SplineFontDB: 3.0
FontName: Oliver-Regular
FullName: Oliver Regular
FamilyName: Oliver
Weight: Regular
Copyright: No Rights Reserved.
Version: 001.102
ItalicAngle: 0
UnderlinePosition: -100
UnderlineWidth: 50
Ascent: 770
Descent: 230
InvalidEm: 0
sfntRevision: 0x00011a1c
LayerCount: 2
Layer: 0 0 "Back" 1
Layer: 1 0 "Fore" 0
XUID: [1021 443 1037699145 11527237]
StyleMap: 0x0040
FSType: 8
OS2Version: 3
OS2_WeightWidthSlopeOnly: 0
OS2_UseTypoMetrics: 0
CreationTime: 1408560985
ModificationTime: 1564742966
PfmFamily: 81
TTFWeight: 400
TTFWidth: 5
LineGap: 0
VLineGap: 0
Panose: 0 0 5 0 0 0 0 0 0 0
OS2TypoAscent: 770
OS2TypoAOffset: 0
OS2TypoDescent: -230
OS2TypoDOffset: 0
OS2TypoLinegap: 200
OS2WinAscent: 970
OS2WinAOffset: 0
OS2WinDescent: 230
OS2WinDOffset: 0
HheadAscent: 970
HheadAOffset: 0
HheadDescent: -230
HheadDOffset: 0
OS2SubXSize: 650
OS2SubYSize: 600
OS2SubXOff: 0
OS2SubYOff: 75
OS2SupXSize: 650
OS2SupYSize: 600
OS2SupXOff: 0
OS2SupYOff: 350
OS2StrikeYSize: 50
OS2StrikeYPos: 318
OS2CapHeight: 690
OS2XHeight: 530
OS2Vendor: 'UKWN'
OS2CodePages: 20000093.00000000
OS2UnicodeRanges: 00000007.00000000.00000000.00000000
Lookup: 1 0 0 "'aalt' Access All Alternates in Latin lookup 0" { "'aalt' Access All Alternates in Latin lookup 0 subtable"  } ['aalt' ('DFLT' <'dflt' > 'latn' <'CAT ' 'MOL ' 'ROM ' 'dflt' > ) ]
Lookup: 1 0 0 "'locl' Localized Forms in Latin lookup 1" { "'locl' Localized Forms in Latin lookup 1 subtable"  } ['locl' ('latn' <'ROM ' > ) ]
Lookup: 1 0 0 "'locl' Localized Forms in Latin lookup 2" { "'locl' Localized Forms in Latin lookup 2 subtable"  } ['locl' ('latn' <'MOL ' > ) ]
Lookup: 6 0 0 "'locl' Localized Forms in Latin lookup 3" { "'locl' Localized Forms in Latin lookup 3 contextual 0"  "'locl' Localized Forms in Latin lookup 3 contextual 1"  } ['locl' ('latn' <'CAT ' > ) ]

StartChar: .notdef
Encoding: 65536 -1 0
Width: 500
Flags: MW
HStem: 0 50<80 420 80 500> 650 50<80 420 80 80>
VStem: 0 50<95 605 95 700> 450 50<95 605 605 605>
LayerCount: 2
Fore
SplineSet
0 0 m 1
 0 700 l 1
 500 700 l 1
 500 0 l 1
 0 0 l 1
250 395 m 1
 420 650 l 1
 80 650 l 1
 250 395 l 1
280 350 m 1
 450 95 l 1
 450 605 l 1
 280 350 l 1
80 50 m 1
 420 50 l 1
 250 305 l 1
 80 50 l 1
50 605 m 1
 50 95 l 1
 220 350 l 1
 50 605 l 1
EndSplineSet
Validated: 1
EndChar

StartChar: A
Encoding: 65 65 1
Width: 639
GlyphClass: 2
Flags: HMW
HStem: 0 21G<29 121 29 29 538 538 538 631> 244 70<226 433 226 456 202 433> 622 68<333 333>
VStem: 29 602<0 0>
LayerCount: 2
Fore
SplineSet
455 244 m 1
 204 244 l 1
 121 0 l 1
 29 0 l 1
 277 690 l 1
 393 690 l 1
 631 0 l 1
 538 0 l 1
 455 244 l 1
229 321 m 1
 430 321 l 1
 333 602 l 1
 229 321 l 1
EndSplineSet
Validated: 1
Position2: "'cpsp' Capital Spacing in Latin lookup 0 subtable" dx=5 dy=0 dh=10 dv=0
EndChar

StartChar: Aacute
Encoding: 193 193 2
Width: 639
GlyphClass: 2
Flags: MW
HStem: 0 21G<29 121 29 29 538 538 538 631> 244 70<226 433 226 456 202 433> 622 68<333 333> 736 94<356 358 302 436>
VStem: 29 602<0 0>
LayerCount: 2
Fore
SplineSet
358 736 m 1
 302 736 l 1
 356 830 l 1
 436 830 l 1
 358 736 l 1
456 244 m 1
 202 244 l 1
 121 0 l 1
 29 0 l 1
 277 690 l 1
 393 690 l 1
 631 0 l 1
 538 0 l 1
 456 244 l 1
226 314 m 1
 433 314 l 1
 333 622 l 1
 226 314 l 1
EndSplineSet
Validated: 1
Position2: "'cpsp' Capital Spacing in Latin lookup 0 subtable" dx=5 dy=0 dh=10 dv=0
EndChar

StartChar: Abreve
Encoding: 258 258 3
Width: 639
GlyphClass: 2
Flags: MW
HStem: 0 21G<29 121 29 29 538 538 538 631> 244 70<226 433 226 456 202 433> 622 68<333 333> 722 55<320.5 349.5 320.5 370.5>
VStem: 233 53<795.5 830> 384 53<795.5 830>
LayerCount: 2
Fore
SplineSet
335 722 m 0
 263 722 233 761 233 830 c 1
 286 830 l 1
 287 794 306 777 335 777 c 0
 364 777 383 794 384 830 c 1
 437 830 l 1
 437 761 406 722 335 722 c 0
456 244 m 1
 202 244 l 1
 121 0 l 1
 29 0 l 1
 277 690 l 1
 393 690 l 1
 631 0 l 1
 538 0 l 1
 456 244 l 1
226 314 m 1
 433 314 l 1
 333 622 l 1
 226 314 l 1
EndSplineSet
Validated: 1
Position2: "'cpsp' Capital Spacing in Latin lookup 0 subtable" dx=5 dy=0 dh=10 dv=0
EndChar

StartChar: Acircumflex
Encoding: 194 194 4
Width: 639
GlyphClass: 2
Flags: MW
HStem: 0 21G<29 121 29 29 538 538 538 631> 244 70<226 433 226 456 202 433> 622 68<333 333> 736 94<239 365 239 365 306 365 306 432>
VStem: 29 602<0 0>
LayerCount: 2
Fore
SplineSet
305 736 m 1
 239 736 l 1
 306 830 l 1
 365 830 l 1
 432 736 l 1
 365 736 l 1
 335 791 l 1
 305 736 l 1
456 244 m 1
 202 244 l 1
 121 0 l 1
 29 0 l 1
 277 690 l 1
 393 690 l 1
 631 0 l 1
 538 0 l 1
 456 244 l 1
226 314 m 1
 433 314 l 1
 333 622 l 1
 226 314 l 1
EndSplineSet
Validated: 1
Position2: "'cpsp' Capital Spacing in Latin lookup 0 subtable" dx=5 dy=0 dh=10 dv=0
EndChar

StartChar: Adieresis
Encoding: 196 196 5
Width: 639
GlyphClass: 2
Flags: MW
HStem: 0 21G<29 121 29 29 538 538 538 631> 244 70<226 433 226 456 202 433> 622 68<333 333> 737 92<252.5 277.5 392.5 417.5>
VStem: 219 92<770.5 795.5> 359 92<770.5 795.5>
LayerCount: 2
Fore
SplineSet
265 737 m 0
 240 737 219 758 219 783 c 0
 219 808 240 829 265 829 c 0
 290 829 311 808 311 783 c 0
 311 758 290 737 265 737 c 0
405 737 m 0
 380 737 359 758 359 783 c 0
 359 808 380 829 405 829 c 0
 430 829 451 808 451 783 c 0
 451 758 430 737 405 737 c 0
456 244 m 1
 202 244 l 1
 121 0 l 1
 29 0 l 1
 277 690 l 1
 393 690 l 1
 631 0 l 1
 538 0 l 1
 456 244 l 1
226 314 m 1
 433 314 l 1
 333 622 l 1
 226 314 l 1
EndSplineSet
Validated: 1
Position2: "'cpsp' Capital Spacing in Latin lookup 0 subtable" dx=5 dy=0 dh=10 dv=0
EndChar

StartChar: Agrave
Encoding: 192 192 6
Width: 639
GlyphClass: 2
Flags: MW
HStem: 0 21G<29 121 29 29 538 538 538 631> 244 70<226 433 226 456 202 433> 622 68<333 333> 736 94<311 311 311 313 233 367>
VStem: 29 602<0 0>
LayerCount: 2
Fore
SplineSet
311 736 m 1
 233 830 l 1
 313 830 l 1
 367 736 l 1
 311 736 l 1
456 244 m 1
 202 244 l 1
 121 0 l 1
 29 0 l 1
 277 690 l 1
 393 690 l 1
 631 0 l 1
 538 0 l 1
 456 244 l 1
226 314 m 1
 433 314 l 1
 333 622 l 1
 226 314 l 1
EndSplineSet
Validated: 1
Position2: "'cpsp' Capital Spacing in Latin lookup 0 subtable" dx=5 dy=0 dh=10 dv=0
EndChar

StartChar: Amacron
Encoding: 256 256 7
Width: 639
GlyphClass: 2
Flags: MW
HStem: 0 21G<29 121 29 29 538 538 538 631> 244 70<226 433 226 456 202 433> 622 68<333 333> 757 52<215 455 215 455>
VStem: 215 240<757 809 757 809>
LayerCount: 2
Fore
SplineSet
455 757 m 1
 215 757 l 1
 215 809 l 1
 455 809 l 1
 455 757 l 1
456 244 m 1
 202 244 l 1
 121 0 l 1
 29 0 l 1
 277 690 l 1
 393 690 l 1
 631 0 l 1
 538 0 l 1
 456 244 l 1
226 314 m 1
 433 314 l 1
 333 622 l 1
 226 314 l 1
EndSplineSet
Validated: 1
Position2: "'cpsp' Capital Spacing in Latin lookup 0 subtable" dx=5 dy=0 dh=10 dv=0
EndChar

StartChar: Aogonek
Encoding: 260 260 8
Width: 639
GlyphClass: 2
Flags: MW
HStem: -223 54<487.5 558> 0 21G<29 121 29 29 598 598 598 631> 244 70<226 433 226 456 202 433> 622 68<333 333>
VStem: 422 82<-137.5 -100>
LayerCount: 2
Fore
SplineSet
504 -119 m 0
 504 -156 519 -169 548 -169 c 0
 568 -169 586 -163 604 -149 c 1
 604 -198 l 1
 579 -215 548 -223 515 -223 c 0
 460 -223 422 -201 422 -138 c 0
 422 -62 476 -11 534 11 c 1
 456 244 l 1
 202 244 l 1
 121 0 l 1
 29 0 l 1
 277 690 l 1
 393 690 l 1
 631 0 l 1
 598 0 l 1
 547 -9 504 -56 504 -119 c 0
226 314 m 1
 433 314 l 1
 333 622 l 1
 226 314 l 1
EndSplineSet
Validated: 1
Position2: "'cpsp' Capital Spacing in Latin lookup 0 subtable" dx=5 dy=0 dh=10 dv=0
EndChar

StartChar: Aring
Encoding: 197 197 9
Width: 639
GlyphClass: 2
Flags: MW
HStem: 0 21G<29 121 29 29 538 538 538 631> 244 70<226 433 226 456 202 433> 622 68<333 333> 716 36<323 347 323 361.5> 838 36<323 347>
VStem: 244 50<782.5 807.5 782.5 818> 376 50<782.5 807.5>
LayerCount: 2
Fore
SplineSet
335 716 m 0
 282 716 244 749 244 795 c 0
 244 841 282 874 335 874 c 0
 388 874 426 841 426 795 c 0
 426 749 388 716 335 716 c 0
335 838 m 0
 311 838 294 820 294 795 c 0
 294 770 311 752 335 752 c 0
 359 752 376 770 376 795 c 0
 376 820 359 838 335 838 c 0
456 244 m 1
 202 244 l 1
 121 0 l 1
 29 0 l 1
 277 690 l 1
 393 690 l 1xee
 631 0 l 1
 538 0 l 1
 456 244 l 1
226 314 m 1
 433 314 l 1
 333 622 l 1
 226 314 l 1
EndSplineSet
Validated: 1
Position2: "'cpsp' Capital Spacing in Latin lookup 0 subtable" dx=5 dy=0 dh=10 dv=0
EndChar

StartChar: Atilde
Encoding: 195 195 10
Width: 639
GlyphClass: 2
Flags: MW
HStem: 0 21G<29 121 29 29 538 538 538 631> 244 70<226 433 226 456 202 433> 622 68<333 333> 746 71<403 405> 750 71<265 267 229 290.5>
VStem: 229 38<750 757.5 750 778> 403 38<809.5 817>
LayerCount: 2
Fore
SplineSet
283 770 m 0xee
 273 770 267 765 267 750 c 1
 229 750 l 1
 229 806 249 821 281 821 c 0xee
 300 821 316 817 343 808 c 0
 367 800 378 797 387 797 c 0
 397 797 403 802 403 817 c 1
 441 817 l 1
 441 761 421 746 389 746 c 0xf6
 370 746 354 750 327 759 c 0
 303 767 292 770 283 770 c 0xee
456 244 m 1
 202 244 l 1
 121 0 l 1
 29 0 l 1
 277 690 l 1
 393 690 l 1
 631 0 l 1
 538 0 l 1
 456 244 l 1
226 314 m 1
 433 314 l 1
 333 622 l 1
 226 314 l 1
EndSplineSet
Validated: 1
Position2: "'cpsp' Capital Spacing in Latin lookup 0 subtable" dx=5 dy=0 dh=10 dv=0
EndChar

StartChar: AE
Encoding: 198 198 11
Width: 908
GlyphClass: 2
Flags: MW
HStem: 0 70<527 880 527 880> 244 70<235 426 235 431 196 426> 310 70<513 840 513 513> 620 70<495 870 495 495>
VStem: 417.5 84.5 438 82
LayerCount: 2
Fore
SplineSet
880 70 m 1xb8
 880 0 l 1
 445 0 l 1
 431 244 l 1
 196 244 l 1xd4
 58 0 l 1
 -35 0 l 1
 363 690 l 1
 870 690 l 1
 870 620 l 1
 495 620 l 1
 509 380 l 1xb8
 840 380 l 1
 840 310 l 1
 513 310 l 1
 527 70 l 1xb4
 880 70 l 1xb8
426 314 m 1xd8
 409 621 l 1
 235 314 l 1
 426 314 l 1xd8
EndSplineSet
Validated: 1
Position2: "'cpsp' Capital Spacing in Latin lookup 0 subtable" dx=5 dy=0 dh=10 dv=0
EndChar

StartChar: B
Encoding: 66 66 12
Width: 627
GlyphClass: 2
Flags: MW
HStem: 0 70<186 322> 323 70<186 319 319 328 186 329 186 319> 620 70<186 186 186 303 303 310>
VStem: 100 86<70 323 393 620> 471 92<480.5 545> 496 92<156.5 236.5>
LayerCount: 2
Fore
SplineSet
446 367 m 1xf4
 537 346 588 298 588 203 c 0xf4
 588 77 501 19 410 5 c 0
 376 0 354 0 322 0 c 2
 100 0 l 1
 100 690 l 1
 303 690 l 2
 336 690 360 690 393 686 c 0
 502 671 563 616 563 518 c 0xf8
 563 435 517 391 446 367 c 1xf4
186 620 m 1
 186 393 l 1
 319 393 l 2
 337 393 354 394 374 397 c 0
 445 408 471 450 471 511 c 0xf8
 471 579 427 611 365 618 c 0
 347 620 326 620 310 620 c 2
 186 620 l 1
383 72 m 0xf4
 449 78 496 119 496 194 c 0
 496 279 450 310 384 319 c 0
 361 322 345 323 329 323 c 2
 186 323 l 1
 186 70 l 1
 335 70 l 2
 351 70 370 71 383 72 c 0xf4
EndSplineSet
Validated: 1
Position2: "'cpsp' Capital Spacing in Latin lookup 0 subtable" dx=5 dy=0 dh=10 dv=0
EndChar

StartChar: C
Encoding: 67 67 13
Width: 699
GlyphClass: 2
Flags: HMW
HStem: -14 68<297 422.5 297 451> 636 68<300.5 428.5>
VStem: 47 96<261 429.5 261 447>
AnchorPoint: "Anchor-0" 346 0 basechar 0
LayerCount: 2
Fore
SplineSet
373 704 m 0
 548 704 649 592 664 440 c 2
 665 430 l 1
 569 430 l 1
 567 440 l 2
 547.2480722 537.772042609 487.50693259 616.037152627 375.254346636 616.037152627 c 0
 373.844522428 616.037152627 372.426415151 616.02480722 371 616 c 0
 240 614 143 513 143 346 c 0
 143 176 238 74 365 74 c 0
 480 74 542 126 561 220 c 2
 563 230 l 1
 659 230 l 1
 658 220 l 2
 644 80 542 -14 360 -14 c 0
 159 -14 47 140 47 342 c 0
 47 552 177 704 373 704 c 0
EndSplineSet
Validated: 1
Position2: "'cpsp' Capital Spacing in Latin lookup 0 subtable" dx=5 dy=0 dh=10 dv=0
EndChar

StartChar: Cacute
Encoding: 262 262 14
Width: 699
GlyphClass: 2
Flags: MW
HStem: -14 68<297 422.5 297 451> 636 68<300.5 428.5> 736 94<387 389 333 467>
VStem: 47 96<261 429.5 261 447>
AnchorPoint: "Anchor-0" 346 0 basechar 0
LayerCount: 2
Fore
SplineSet
389 736 m 1
 333 736 l 1
 387 830 l 1
 467 830 l 1
 389 736 l 1
373 704 m 0
 548 704 640 605 654 470 c 2
 655 460 l 1
 569 460 l 1
 567 470 l 2
 547 569 486 636 371 636 c 0
 230 636 143 513 143 346 c 0
 143 176 229 54 365 54 c 0
 480 54 541 121 561 220 c 2
 563 230 l 1
 649 230 l 1
 648 220 l 2
 635 95 542 -14 360 -14 c 0
 159 -14 47 140 47 342 c 0
 47 552 177 704 373 704 c 0
EndSplineSet
Validated: 1
Position2: "'cpsp' Capital Spacing in Latin lookup 0 subtable" dx=5 dy=0 dh=10 dv=0
EndChar

StartChar: Ccaron
Encoding: 268 268 15
Width: 699
GlyphClass: 2
Flags: MW
HStem: -14 68<297 422.5 297 451> 636 68<300.5 428.5> 736 94<270 337 270 396>
VStem: 47 96<261 429.5 261 447>
AnchorPoint: "Anchor-0" 346 0 basechar 0
LayerCount: 2
Fore
SplineSet
337 736 m 1
 270 830 l 1
 337 830 l 1
 367 775 l 1
 397 830 l 1
 463 830 l 1
 396 736 l 1
 337 736 l 1
563 230 m 1
 649 230 l 1
 648 220 l 2
 635 95 542 -14 360 -14 c 0
 159 -14 47 140 47 342 c 0
 47 552 177 704 373 704 c 0
 548 704 640 605 654 470 c 2
 655 460 l 1
 569 460 l 1
 567 470 l 2
 547 569 486 636 371 636 c 0
 230 636 143 513 143 346 c 0
 143 176 229 54 365 54 c 0
 480 54 541 121 561 220 c 2
 563 230 l 1
EndSplineSet
Validated: 1
Position2: "'cpsp' Capital Spacing in Latin lookup 0 subtable" dx=5 dy=0 dh=10 dv=0
EndChar

StartChar: Ccedilla
Encoding: 199 199 16
Width: 699
GlyphClass: 2
Flags: HMW
HStem: -210 42<304.5 335.5 304.5 348.5> -78 132<281 422.5> -12 66<317 317> 636 68<300.5 428.5>
VStem: 47 96<261 429.5 261 447> 377 58<-137.5 -107>
AnchorPoint: "Anchor-0" 346 0 basechar 0
LayerCount: 2
Fore
SplineSet
563 230 m 1xbc
 649 230 l 1
 648 220 l 2
 635 97 545 -11 368 -14 c 1
 354 -40 l 1
 407 -47 435 -76 435 -123 c 0
 435 -179 385 -210 312 -210 c 0
 294 -210 276 -207 262 -201 c 1
 262 -157 l 1
 277 -165 294 -168 315 -168 c 0
 356 -168 377 -151 377 -124 c 0
 377 -94 356 -77 303 -77 c 0
 296 -77 289 -77 281 -78 c 1xdc
 317 -12 l 1
 143 9 47 155 47 342 c 0
 47 552 177 704 373 704 c 0
 548 704 640 605 654 470 c 2
 655 460 l 1
 569 460 l 1
 567 470 l 2
 547 569 486 636 371 636 c 0
 230 636 143 513 143 346 c 0
 143 176 229 54 365 54 c 0
 480 54 541 121 561 220 c 2
 563 230 l 1xbc
EndSplineSet
Validated: 1
Position2: "'cpsp' Capital Spacing in Latin lookup 0 subtable" dx=5 dy=0 dh=10 dv=0
EndChar

StartChar: Cdotaccent
Encoding: 266 266 17
Width: 699
GlyphClass: 2
Flags: MW
HStem: -14 68<297 422.5 297 451> 636 68<300.5 428.5> 737 92<353.5 378.5>
VStem: 47 96<261 429.5 261 447> 320 92<770.5 795.5>
AnchorPoint: "Anchor-0" 346 0 basechar 0
LayerCount: 2
Fore
SplineSet
366 829 m 0
 391 829 412 808 412 783 c 0
 412 758 391 737 366 737 c 0
 341 737 320 758 320 783 c 0
 320 808 341 829 366 829 c 0
373 704 m 0
 548 704 640 605 654 470 c 2
 655 460 l 1
 569 460 l 1
 567 470 l 2
 547 569 486 636 371 636 c 0
 230 636 143 513 143 346 c 0
 143 176 229 54 365 54 c 0
 480 54 541 121 561 220 c 2
 563 230 l 1
 649 230 l 1
 648 220 l 2
 635 95 542 -14 360 -14 c 0
 159 -14 47 140 47 342 c 0
 47 552 177 704 373 704 c 0
EndSplineSet
Validated: 1
Position2: "'cpsp' Capital Spacing in Latin lookup 0 subtable" dx=5 dy=0 dh=10 dv=0
EndChar

StartChar: D
Encoding: 68 68 18
Width: 709
GlyphClass: 2
Flags: MW
HStem: 0 70<186 300 300 305> 620 70<186 305 186 186>
VStem: 100 86<70 620 70 690 70 690> 577 94<271.5 429.5>
LayerCount: 2
Fore
SplineSet
398 686 m 0
 558 666 671 559 671 353 c 0
 671 150 553 24 393 4 c 0
 358 0 342 0 305 0 c 2
 100 0 l 1
 100 690 l 1
 310 690 l 2
 347 690 363 690 398 686 c 0
384 75 m 0
 501 94 577 190 577 353 c 0
 577 506 506 596 389 615 c 0
 367 619 341 620 305 620 c 2
 186 620 l 1
 186 70 l 1
 300 70 l 2
 336 70 362 71 384 75 c 0
EndSplineSet
Validated: 1
Position2: "'cpsp' Capital Spacing in Latin lookup 0 subtable" dx=5 dy=0 dh=10 dv=0
EndChar

StartChar: Eth
Encoding: 208 208 19
Width: 701
GlyphClass: 2
Flags: MW
HStem: 0 70<178 292 292 297> 305 56<33 92 33 92 178 314> 620 70<178 297 178 178>
VStem: 92 86<70 305 70 305 70 305 361 620> 569 94<271.5 429.5>
LayerCount: 2
Fore
SplineSet
390 686 m 0
 550 666 663 559 663 353 c 0
 663 150 545 24 385 4 c 0
 350 0 334 0 297 0 c 2
 92 0 l 1
 92 305 l 1
 33 305 l 1
 33 361 l 1
 92 361 l 1
 92 690 l 1
 302 690 l 2
 339 690 355 690 390 686 c 0
376 75 m 0
 493 94 569 190 569 353 c 0
 569 506 498 596 381 615 c 0
 359 619 333 620 297 620 c 2
 178 620 l 1
 178 361 l 1
 314 361 l 1
 314 305 l 1
 178 305 l 1
 178 70 l 1
 292 70 l 2
 328 70 354 71 376 75 c 0
EndSplineSet
Validated: 1
Position2: "'cpsp' Capital Spacing in Latin lookup 0 subtable" dx=5 dy=0 dh=10 dv=0
EndChar

StartChar: Dcaron
Encoding: 270 270 20
Width: 709
GlyphClass: 2
Flags: MW
HStem: 0 70<186 300 300 305> 620 70<186 305 186 186> 736 94<274 341 274 400>
VStem: 100 86<70 620 70 690 70 690> 577 94<271.5 429.5>
LayerCount: 2
Fore
SplineSet
341 736 m 1
 274 830 l 1
 341 830 l 1
 371 775 l 1
 401 830 l 1
 467 830 l 1
 400 736 l 1
 341 736 l 1
398 686 m 0
 558 666 671 559 671 353 c 0
 671 150 553 24 393 4 c 0
 358 0 342 0 305 0 c 2
 100 0 l 1
 100 690 l 1
 310 690 l 2
 347 690 363 690 398 686 c 0
384 75 m 0
 501 94 577 190 577 353 c 0
 577 506 506 596 389 615 c 0
 367 619 341 620 305 620 c 2
 186 620 l 1
 186 70 l 1
 300 70 l 2
 336 70 362 71 384 75 c 0
EndSplineSet
Validated: 1
Position2: "'cpsp' Capital Spacing in Latin lookup 0 subtable" dx=5 dy=0 dh=10 dv=0
EndChar

StartChar: Dcroat
Encoding: 272 272 21
Width: 701
GlyphClass: 2
Flags: MW
HStem: 0 70<178 292 292 297> 305 56<33 92 33 92 178 314> 620 70<178 297 178 178>
VStem: 92 86<70 305 70 305 70 305 361 620> 569 94<271.5 429.5>
LayerCount: 2
Fore
SplineSet
390 686 m 0
 550 666 663 559 663 353 c 0
 663 150 545 24 385 4 c 0
 350 0 334 0 297 0 c 2
 92 0 l 1
 92 305 l 1
 33 305 l 1
 33 361 l 1
 92 361 l 1
 92 690 l 1
 302 690 l 2
 339 690 355 690 390 686 c 0
376 75 m 0
 493 94 569 190 569 353 c 0
 569 506 498 596 381 615 c 0
 359 619 333 620 297 620 c 2
 178 620 l 1
 178 361 l 1
 314 361 l 1
 314 305 l 1
 178 305 l 1
 178 70 l 1
 292 70 l 2
 328 70 354 71 376 75 c 0
EndSplineSet
Validated: 1
Position2: "'cpsp' Capital Spacing in Latin lookup 0 subtable" dx=5 dy=0 dh=10 dv=0
EndChar

StartChar: E
Encoding: 69 69 22
Width: 509
GlyphClass: 2
Flags: HMW
HStem: 0 70<108 481 108 481> 310 70<108 441 108 441> 620 70<108 471 108 108>
VStem: 22 86<70 310 380 620>
AnchorPoint: "Anchor-0" 227 0 basechar 0
LayerCount: 2
Fore
SplineSet
481 70 m 1
 481 0 l 1
 22 0 l 1
 22 690 l 1
 471 690 l 1
 471 620 l 1
 108 620 l 1
 108 380 l 1
 441 380 l 1
 441 310 l 1
 108 310 l 1
 108 70 l 1
 481 70 l 1
EndSplineSet
Validated: 1
Position2: "'cpsp' Capital Spacing in Latin lookup 0 subtable" dx=5 dy=0 dh=10 dv=0
EndChar

StartChar: Eacute
Encoding: 201 201 23
Width: 587
GlyphClass: 2
Flags: MW
HStem: 0 70<186 559 186 559> 310 70<186 519 186 519> 620 70<186 549 186 186> 736 94<357 359 303 437>
VStem: 100 86<70 310 380 620>
AnchorPoint: "Anchor-0" 305 0 basechar 0
LayerCount: 2
Fore
SplineSet
359 736 m 1
 303 736 l 1
 357 830 l 1
 437 830 l 1
 359 736 l 1
559 70 m 1
 559 0 l 1
 100 0 l 1
 100 690 l 1
 549 690 l 1
 549 620 l 1
 186 620 l 1
 186 380 l 1
 519 380 l 1
 519 310 l 1
 186 310 l 1
 186 70 l 1
 559 70 l 1
EndSplineSet
Validated: 1
Position2: "'cpsp' Capital Spacing in Latin lookup 0 subtable" dx=5 dy=0 dh=10 dv=0
EndChar

StartChar: Ecaron
Encoding: 282 282 24
Width: 587
GlyphClass: 2
Flags: MW
HStem: 0 70<186 559 186 559> 310 70<186 519 186 519> 620 70<186 549 186 186> 736 94<240 307 240 366>
VStem: 100 86<70 310 380 620>
AnchorPoint: "Anchor-0" 305 0 basechar 0
LayerCount: 2
Fore
SplineSet
307 736 m 1
 240 830 l 1
 307 830 l 1
 337 775 l 1
 367 830 l 1
 433 830 l 1
 366 736 l 1
 307 736 l 1
559 70 m 1
 559 0 l 1
 100 0 l 1
 100 690 l 1
 549 690 l 1
 549 620 l 1
 186 620 l 1
 186 380 l 1
 519 380 l 1
 519 310 l 1
 186 310 l 1
 186 70 l 1
 559 70 l 1
EndSplineSet
Validated: 1
Position2: "'cpsp' Capital Spacing in Latin lookup 0 subtable" dx=5 dy=0 dh=10 dv=0
EndChar

StartChar: Ecircumflex
Encoding: 202 202 25
Width: 587
GlyphClass: 2
Flags: MW
HStem: 0 70<186 559 186 559> 310 70<186 519 186 519> 620 70<186 549 186 186> 736 94<240 366 240 366 307 366 307 433>
VStem: 100 86<70 310 380 620>
AnchorPoint: "Anchor-0" 305 0 basechar 0
LayerCount: 2
Fore
SplineSet
306 736 m 1
 240 736 l 1
 307 830 l 1
 366 830 l 1
 433 736 l 1
 366 736 l 1
 336 791 l 1
 306 736 l 1
559 70 m 1
 559 0 l 1
 100 0 l 1
 100 690 l 1
 549 690 l 1
 549 620 l 1
 186 620 l 1
 186 380 l 1
 519 380 l 1
 519 310 l 1
 186 310 l 1
 186 70 l 1
 559 70 l 1
EndSplineSet
Validated: 1
Position2: "'cpsp' Capital Spacing in Latin lookup 0 subtable" dx=5 dy=0 dh=10 dv=0
EndChar

StartChar: Edieresis
Encoding: 203 203 26
Width: 587
GlyphClass: 2
Flags: MW
HStem: 0 70<186 559 186 559> 310 70<186 519 186 519> 620 70<186 549 186 186> 737 92<253.5 278.5 393.5 418.5>
VStem: 100 86<70 310 380 620> 220 92<770.5 795.5> 360 92<770.5 795.5>
AnchorPoint: "Anchor-0" 305 0 basechar 0
LayerCount: 2
Fore
SplineSet
266 737 m 0
 241 737 220 758 220 783 c 0
 220 808 241 829 266 829 c 0
 291 829 312 808 312 783 c 0
 312 758 291 737 266 737 c 0
406 737 m 0
 381 737 360 758 360 783 c 0
 360 808 381 829 406 829 c 0
 431 829 452 808 452 783 c 0
 452 758 431 737 406 737 c 0
559 70 m 1
 559 0 l 1
 100 0 l 1
 100 690 l 1
 549 690 l 1
 549 620 l 1
 186 620 l 1
 186 380 l 1
 519 380 l 1
 519 310 l 1
 186 310 l 1
 186 70 l 1
 559 70 l 1
EndSplineSet
Validated: 1
Position2: "'cpsp' Capital Spacing in Latin lookup 0 subtable" dx=5 dy=0 dh=10 dv=0
EndChar

StartChar: Edotaccent
Encoding: 278 278 27
Width: 587
GlyphClass: 2
Flags: MW
HStem: 0 70<186 559 186 559> 310 70<186 519 186 519> 620 70<186 549 186 186> 737 92<323.5 348.5>
VStem: 100 86<70 310 380 620> 290 92<770.5 795.5>
AnchorPoint: "Anchor-0" 305 0 basechar 0
LayerCount: 2
Fore
SplineSet
336 737 m 0
 311 737 290 758 290 783 c 0
 290 808 311 829 336 829 c 0
 361 829 382 808 382 783 c 0
 382 758 361 737 336 737 c 0
559 70 m 1
 559 0 l 1
 100 0 l 1
 100 690 l 1
 549 690 l 1
 549 620 l 1
 186 620 l 1
 186 380 l 1
 519 380 l 1
 519 310 l 1
 186 310 l 1
 186 70 l 1
 559 70 l 1
EndSplineSet
Validated: 1
Position2: "'cpsp' Capital Spacing in Latin lookup 0 subtable" dx=5 dy=0 dh=10 dv=0
EndChar

StartChar: Egrave
Encoding: 200 200 28
Width: 587
GlyphClass: 2
Flags: MW
HStem: 0 70<186 559 186 559> 310 70<186 519 186 519> 620 70<186 549 186 186> 736 94<312 312 312 314 234 368>
VStem: 100 86<70 310 380 620>
AnchorPoint: "Anchor-0" 305 0 basechar 0
LayerCount: 2
Fore
SplineSet
312 736 m 1
 234 830 l 1
 314 830 l 1
 368 736 l 1
 312 736 l 1
559 70 m 1
 559 0 l 1
 100 0 l 1
 100 690 l 1
 549 690 l 1
 549 620 l 1
 186 620 l 1
 186 380 l 1
 519 380 l 1
 519 310 l 1
 186 310 l 1
 186 70 l 1
 559 70 l 1
EndSplineSet
Validated: 1
Position2: "'cpsp' Capital Spacing in Latin lookup 0 subtable" dx=5 dy=0 dh=10 dv=0
EndChar

StartChar: Emacron
Encoding: 274 274 29
Width: 587
GlyphClass: 2
Flags: MW
HStem: 0 70<186 559 186 559> 310 70<186 519 186 519> 620 70<186 549 186 186> 757 52<216 456 216 456>
VStem: 100 86<70 310 380 620> 216 240<757 809 757 809>
AnchorPoint: "Anchor-0" 305 0 basechar 0
LayerCount: 2
Fore
SplineSet
456 757 m 1
 216 757 l 1
 216 809 l 1
 456 809 l 1
 456 757 l 1
559 70 m 1
 559 0 l 1
 100 0 l 1
 100 690 l 1
 549 690 l 1
 549 620 l 1
 186 620 l 1
 186 380 l 1
 519 380 l 1
 519 310 l 1
 186 310 l 1
 186 70 l 1xf8
 559 70 l 1
EndSplineSet
Validated: 1
Position2: "'cpsp' Capital Spacing in Latin lookup 0 subtable" dx=5 dy=0 dh=10 dv=0
EndChar

StartChar: Eogonek
Encoding: 280 280 30
Width: 587
GlyphClass: 2
Flags: MW
HStem: -223 54<449.5 520> 0 70<186 473 186 560 186 560> 310 70<186 519 186 519> 620 70<186 549 186 186>
VStem: 100 86<70 310 380 620> 384 82<-137.5 -105.5> 473 86<0 70>
AnchorPoint: "Anchor-0" 305 0 basechar 0
LayerCount: 2
Fore
SplineSet
510 -169 m 0
 530 -169 548 -163 566 -149 c 1
 566 -198 l 1
 541 -215 510 -223 477 -223 c 0
 422 -223 384 -201 384 -138 c 0xfc
 384 -73 424 -26 473 0 c 1
 100 0 l 1
 100 690 l 1
 549 690 l 1
 549 620 l 1
 186 620 l 1
 186 380 l 1
 519 380 l 1
 519 310 l 1
 186 310 l 1
 186 70 l 1
 559 70 l 1
 559 0 l 1
 560 0 l 1x7a
 509 -9 466 -56 466 -119 c 0
 466 -156 481 -169 510 -169 c 0
EndSplineSet
Validated: 1
Position2: "'cpsp' Capital Spacing in Latin lookup 0 subtable" dx=5 dy=0 dh=10 dv=0
EndChar

StartChar: F
Encoding: 70 70 31
Width: 567
GlyphClass: 2
Flags: MW
HStem: 0 21G<100 186 100 100> 310 70<186 509 186 509> 620 70<186 186 186 549>
VStem: 100 86<0 310 380 620>
LayerCount: 2
Fore
SplineSet
186 620 m 1
 186 380 l 1
 509 380 l 1
 509 310 l 1
 186 310 l 1
 186 0 l 1
 100 0 l 1
 100 690 l 1
 549 690 l 1
 549 620 l 1
 186 620 l 1
EndSplineSet
Validated: 1
Position2: "'cpsp' Capital Spacing in Latin lookup 0 subtable" dx=5 dy=0 dh=10 dv=0
EndChar

StartChar: G
Encoding: 71 71 32
Width: 710
GlyphClass: 2
Flags: HMW
HStem: -14 68<297 399.5> 0 21G<570 646 570 570> 263 70<399 560 399 646> 636 68<300.5 428.5>
VStem: 47 96<261 429.5 261 447> 560 86<201.5 263>
AnchorPoint: "Anchor-0" 361 0 basechar 0
LayerCount: 2
Fore
SplineSet
360 -14 m 0
 159.00755416 -12.257382667 47 140 47 342 c 0
 47 552 177 704 373 704 c 0
 548 704 636 585 650 450 c 2
 651 440 l 1
 559 440 l 1
 557 450 l 2
 538.889648438 540.552734375 487 624 372 624 c 0
 231 624 138 513 138 346 c 0
 138 176 230 64 366 64 c 0
 478 64 564 140 564 263 c 1
 399 263 l 1
 399 343 l 1xbc
 660 343 l 1
 653.544921875 127.884765625 581.434982363 -15.9198554293 360 -14 c 0
EndSplineSet
Validated: 33
Position2: "'cpsp' Capital Spacing in Latin lookup 0 subtable" dx=5 dy=0 dh=10 dv=0
EndChar

StartChar: Gbreve
Encoding: 286 286 33
Width: 710
GlyphClass: 2
Flags: MW
HStem: -14 68<297 399.5> 0 21G<570 646 570 570> 263 70<399 560 399 646> 636 68<300.5 428.5> 722 55<348.5 377.5 348.5 398.5>
VStem: 47 96<261 429.5 261 447> 261 53<795.5 830> 412 53<795.5 830> 560 86<201.5 263>
AnchorPoint: "Anchor-0" 361 0 basechar 0
LayerCount: 2
Fore
SplineSet
363 722 m 0xbf80
 291 722 261 761 261 830 c 1
 314 830 l 1
 315 794 334 777 363 777 c 0
 392 777 411 794 412 830 c 1
 465 830 l 1
 465 761 434 722 363 722 c 0xbf80
399 333 m 1
 646 333 l 1
 646 0 l 1
 570 0 l 1x7480
 570 120 l 1
 539 56 l 1
 500 12 439 -14 360 -14 c 0
 159 -14 47 140 47 342 c 0
 47 552 177 704 373 704 c 0
 548 704 640 605 654 470 c 2
 655 460 l 1
 569 460 l 1
 567 470 l 2
 547 569 486 636 371 636 c 0xb480
 230 636 143 513 143 346 c 0
 143 176 229 54 365 54 c 0
 477 54 560 140 560 263 c 1
 399 263 l 1
 399 333 l 1
EndSplineSet
Validated: 1
Position2: "'cpsp' Capital Spacing in Latin lookup 0 subtable" dx=5 dy=0 dh=10 dv=0
EndChar

StartChar: Gcommaaccent
Encoding: 290 290 34
Width: 710
GlyphClass: 2
Flags: MW
HStem: -195 144<336 345 284 405> -14 68<297 399.5> 0 21G<570 646 570 570> 263 70<399 560 399 646> 636 68<300.5 428.5>
VStem: 47 96<261 429.5 261 447> 560 86<201.5 263>
AnchorPoint: "Anchor-0" 361 0 basechar 0
LayerCount: 2
Fore
SplineSet
399 333 m 1x5e
 646 333 l 1
 646 0 l 1
 570 0 l 1xbe
 570 120 l 1
 539 56 l 1
 500 12 439 -14 360 -14 c 0
 159 -14 47 140 47 342 c 0
 47 552 177 704 373 704 c 0
 548 704 640 605 654 470 c 2
 655 460 l 1
 569 460 l 1
 567 470 l 2
 547 569 486 636 371 636 c 0
 230 636 143 513 143 346 c 0
 143 176 229 54 365 54 c 0
 477 54 560 140 560 263 c 1
 399 263 l 1
 399 333 l 1x5e
336 -51 m 1
 405 -51 l 1
 405 -63 l 1
 345 -195 l 1
 284 -195 l 1
 336 -51 l 1
EndSplineSet
Validated: 1
Position2: "'cpsp' Capital Spacing in Latin lookup 0 subtable" dx=5 dy=0 dh=10 dv=0
EndChar

StartChar: Gdotaccent
Encoding: 288 288 35
Width: 710
GlyphClass: 2
Flags: MW
HStem: -14 68<297 399.5> 0 21G<570 646 570 570> 263 70<399 560 399 646> 636 68<300.5 428.5> 737 92<350.5 375.5>
VStem: 47 96<261 429.5 261 447> 317 92<770.5 795.5> 560 86<201.5 263>
AnchorPoint: "Anchor-0" 361 0 basechar 0
LayerCount: 2
Fore
SplineSet
363 737 m 0xbf
 338 737 317 758 317 783 c 0
 317 808 338 829 363 829 c 0
 388 829 409 808 409 783 c 0
 409 758 388 737 363 737 c 0xbf
399 333 m 1
 646 333 l 1
 646 0 l 1
 570 0 l 1x7f
 570 120 l 1
 539 56 l 1
 500 12 439 -14 360 -14 c 0
 159 -14 47 140 47 342 c 0
 47 552 177 704 373 704 c 0
 548 704 640 605 654 470 c 2
 655 460 l 1
 569 460 l 1
 567 470 l 2
 547 569 486 636 371 636 c 0
 230 636 143 513 143 346 c 0
 143 176 229 54 365 54 c 0
 477 54 560 140 560 263 c 1
 399 263 l 1
 399 333 l 1
EndSplineSet
Validated: 1
Position2: "'cpsp' Capital Spacing in Latin lookup 0 subtable" dx=5 dy=0 dh=10 dv=0
EndChar

StartChar: H
Encoding: 72 72 36
Width: 730
GlyphClass: 2
Flags: MW
HStem: 0 21G<100 186 100 100 566 652 566 566> 302 72<186 566 186 566> 670 20G<100 186 186 186 566 652 652 652>
VStem: 100 86<0 302 0 374 374 690> 566 86<0 302 302 302 374 690 0 690>
LayerCount: 2
Fore
SplineSet
652 690 m 1
 652 0 l 1
 566 0 l 1
 566 302 l 1
 186 302 l 1
 186 0 l 1
 100 0 l 1
 100 690 l 1
 186 690 l 1
 186 374 l 1
 566 374 l 1
 566 690 l 1
 652 690 l 1
EndSplineSet
Validated: 1
Position2: "'cpsp' Capital Spacing in Latin lookup 0 subtable" dx=5 dy=0 dh=10 dv=0
EndChar

StartChar: Hbar
Encoding: 294 294 37
Width: 730
GlyphClass: 2
Flags: MW
HStem: 0 21G<100 186 100 100 566 652 566 566> 302 72<186 566 186 566> 502 56<60 100 60 100 186 566 652 692> 502 188<60 186 60 186 100 186 100 566>
VStem: 100 86<0 302 0 374 374 502 558 690> 566 86<0 302 302 302 374 502 0 502 558 690>
LayerCount: 2
Fore
SplineSet
692 502 m 1xec
 652 502 l 1
 652 0 l 1
 566 0 l 1
 566 302 l 1
 186 302 l 1
 186 0 l 1
 100 0 l 1
 100 502 l 1
 60 502 l 1
 60 558 l 1
 100 558 l 1xec
 100 690 l 1
 186 690 l 1xdc
 186 558 l 1
 566 558 l 1xec
 566 690 l 1
 652 690 l 1xdc
 652 558 l 1
 692 558 l 1
 692 502 l 1xec
566 502 m 1
 186 502 l 1
 186 374 l 1
 566 374 l 1
 566 502 l 1
EndSplineSet
Validated: 1
Position2: "'cpsp' Capital Spacing in Latin lookup 0 subtable" dx=5 dy=0 dh=10 dv=0
EndChar

StartChar: I
Encoding: 73 73 38
Width: 183
GlyphClass: 2
Flags: HMW
HStem: 0 21G<63 149 63 63> 670 20G<63 149 149 149>
VStem: 63 86<0 690>
LayerCount: 2
Fore
SplineSet
149 0 m 1
 63 0 l 1
 63 690 l 1
 149 690 l 1
 149 0 l 1
EndSplineSet
Validated: 1
Position2: "'cpsp' Capital Spacing in Latin lookup 0 subtable" dx=5 dy=0 dh=10 dv=0
EndChar

StartChar: IJ
Encoding: 306 306 39
Width: 808
GlyphClass: 2
Flags: MW
HStem: -14 68<498 579 498 600> 0 21G<100 186 100 100> 670 20G<100 186 186 186 666 752 752 752>
VStem: 100 86<0 690> 320 86 666 86<267 690>
LayerCount: 2
Fore
SplineSet
186 0 m 1x7c
 100 0 l 1
 100 690 l 1
 186 690 l 1
 186 0 l 1x7c
752 690 m 1
 752 264 l 2
 752 238 752 215 750 181 c 0
 743 65 673 -14 527 -14 c 0
 399 -14 323 65 320 194 c 2
 319 235 l 1
 405 235 l 1
 407 194 l 2
 412 99 457 54 539 54 c 0xbc
 619 54 659 105 665 186 c 0
 666 206 666 231 666 267 c 2
 666 690 l 1
 752 690 l 1
EndSplineSet
Validated: 1
Position2: "'cpsp' Capital Spacing in Latin lookup 0 subtable" dx=5 dy=0 dh=10 dv=0
EndChar

StartChar: Iacute
Encoding: 205 205 40
Width: 264
GlyphClass: 2
Flags: MW
HStem: 0 21G<100 186 100 100> 670 20G<100 186 186 186> 736 94<164 166 110 244>
VStem: 100 86<0 690>
LayerCount: 2
Fore
SplineSet
166 736 m 1
 110 736 l 1
 164 830 l 1
 244 830 l 1
 166 736 l 1
186 0 m 1
 100 0 l 1
 100 690 l 1
 186 690 l 1
 186 0 l 1
EndSplineSet
Validated: 1
Position2: "'cpsp' Capital Spacing in Latin lookup 0 subtable" dx=5 dy=0 dh=10 dv=0
EndChar

StartChar: Icircumflex
Encoding: 206 206 41
Width: 264
GlyphClass: 2
Flags: MW
HStem: 0 21G<100 186 100 100> 670 20G<100 186 186 186> 736 94<47 173 47 173 114 173 114 240>
VStem: 100 86<0 690 0 690>
LayerCount: 2
Fore
SplineSet
113 736 m 1
 47 736 l 1
 114 830 l 1
 173 830 l 1
 240 736 l 1
 173 736 l 1
 143 791 l 1
 113 736 l 1
100 690 m 1
 186 690 l 1
 186 0 l 1
 100 0 l 1
 100 690 l 1
EndSplineSet
Validated: 1
Position2: "'cpsp' Capital Spacing in Latin lookup 0 subtable" dx=5 dy=0 dh=10 dv=0
EndChar

StartChar: Idieresis
Encoding: 207 207 42
Width: 264
GlyphClass: 2
Flags: MW
HStem: 0 21G<100 186 100 100> 670 20G<100 186 186 186> 737 92<60.5 85.5 200.5 225.5>
VStem: 27 92<770.5 795.5> 100 86<0 690> 167 92<770.5 795.5>
LayerCount: 2
Fore
SplineSet
73 829 m 0xf4
 98 829 119 808 119 783 c 0
 119 758 98 737 73 737 c 0
 48 737 27 758 27 783 c 0
 27 808 48 829 73 829 c 0xf4
213 829 m 0
 238 829 259 808 259 783 c 0
 259 758 238 737 213 737 c 0
 188 737 167 758 167 783 c 0
 167 808 188 829 213 829 c 0
186 0 m 1xe8
 100 0 l 1
 100 690 l 1
 186 690 l 1
 186 0 l 1xe8
EndSplineSet
Validated: 1
Position2: "'cpsp' Capital Spacing in Latin lookup 0 subtable" dx=5 dy=0 dh=10 dv=0
EndChar

StartChar: Idotaccent
Encoding: 304 304 43
Width: 264
GlyphClass: 2
Flags: MW
HStem: 0 21G<100 186 100 100> 670 20G<100 186 186 186> 737 92<130.5 155.5>
VStem: 100 86<0 690>
LayerCount: 2
Fore
SplineSet
143 829 m 0
 168 829 189 808 189 783 c 0
 189 758 168 737 143 737 c 0
 118 737 97 758 97 783 c 0
 97 808 118 829 143 829 c 0
186 0 m 1
 100 0 l 1
 100 690 l 1
 186 690 l 1
 186 0 l 1
EndSplineSet
Validated: 1
Position2: "'cpsp' Capital Spacing in Latin lookup 0 subtable" dx=5 dy=0 dh=10 dv=0
EndChar

StartChar: Igrave
Encoding: 204 204 44
Width: 264
GlyphClass: 2
Flags: MW
HStem: 0 21G<100 186 100 100> 670 20G<100 186 186 186> 736 94<119 121 41 175 119 119>
VStem: 100 86<0 690>
LayerCount: 2
Fore
SplineSet
175 736 m 1
 119 736 l 1
 41 830 l 1
 121 830 l 1
 175 736 l 1
186 0 m 1
 100 0 l 1
 100 690 l 1
 186 690 l 1
 186 0 l 1
EndSplineSet
Validated: 1
Position2: "'cpsp' Capital Spacing in Latin lookup 0 subtable" dx=5 dy=0 dh=10 dv=0
EndChar

StartChar: Imacron
Encoding: 298 298 45
Width: 264
GlyphClass: 2
Flags: MW
HStem: 0 21G<100 186 100 100> 670 20G<100 186 186 186> 757 52<23 263 23 263>
VStem: 100 86<0 690>
LayerCount: 2
Fore
SplineSet
263 757 m 1
 23 757 l 1
 23 809 l 1
 263 809 l 1
 263 757 l 1
186 0 m 1
 100 0 l 1
 100 690 l 1
 186 690 l 1
 186 0 l 1
EndSplineSet
Validated: 1
Position2: "'cpsp' Capital Spacing in Latin lookup 0 subtable" dx=5 dy=0 dh=10 dv=0
EndChar

StartChar: Iogonek
Encoding: 302 302 46
Width: 264
GlyphClass: 2
Flags: MW
HStem: -223 54<51.5 122> 0 21G<162 186 162 162> 670 20G<100 186 186 186>
VStem: -14 82<-137.5 -100> 100 86<11 690>
LayerCount: 2
Fore
SplineSet
186 0 m 1
 162 0 l 1
 111 -9 68 -56 68 -119 c 0
 68 -156 83 -169 112 -169 c 0
 132 -169 150 -163 168 -149 c 1
 168 -198 l 1
 143 -215 112 -223 79 -223 c 0
 24 -223 -14 -201 -14 -138 c 0
 -14 -62 40 -11 99 11 c 1
 100 11 l 1
 100 690 l 1
 186 690 l 1
 186 0 l 1
EndSplineSet
Validated: 1
Position2: "'cpsp' Capital Spacing in Latin lookup 0 subtable" dx=5 dy=0 dh=10 dv=0
EndChar

StartChar: J
Encoding: 74 74 47
Width: 462
GlyphClass: 2
Flags: HMW
HStem: -14 68<192 273 192 294> 670 20G<360 446 446 446>
VStem: 14 86 360 86<267 690>
LayerCount: 2
Fore
SplineSet
446 690 m 1
 446 264 l 2
 446 238 446 215 444 181 c 0
 437 65 367 -14 221 -14 c 0
 93 -14 17 65 14 194 c 2
 13 235 l 1
 99 235 l 1
 101 194 l 2
 106 99 151 54 233 54 c 0
 313 54 353 105 359 186 c 0
 360 206 360 231 360 267 c 2
 360 690 l 1
 446 690 l 1
EndSplineSet
Validated: 1
Position2: "'cpsp' Capital Spacing in Latin lookup 0 subtable" dx=5 dy=0 dh=10 dv=0
EndChar

StartChar: K
Encoding: 75 75 48
Width: 609
GlyphClass: 2
Flags: MW
HStem: 0 21G<100 186 100 100 489 610 489 489> 670 20G<100 186 186 186 527 628 628 628>
VStem: 100 86<0 224 323 690>
AnchorPoint: "Anchor-0" 334 0 basechar 0
LayerCount: 2
Fore
SplineSet
315 353 m 1
 610 0 l 1
 489 0 l 1
 252 295 l 1
 186 224 l 1
 186 0 l 1
 100 0 l 1
 100 690 l 1
 186 690 l 1
 186 323 l 1
 527 690 l 1
 628 690 l 1
 315 353 l 1
EndSplineSet
Validated: 1
Position2: "'cpsp' Capital Spacing in Latin lookup 0 subtable" dx=5 dy=0 dh=10 dv=0
EndChar

StartChar: Kcommaaccent
Encoding: 310 310 49
Width: 609
GlyphClass: 2
Flags: MW
HStem: -195 144<309 318 257 378> 0 21G<100 186 100 100 489 610 489 489> 670 20G<100 186 186 186 527 628 628 628>
VStem: 100 86<0 224 323 690>
AnchorPoint: "Anchor-0" 334 0 basechar 0
LayerCount: 2
Fore
SplineSet
315 353 m 1
 610 0 l 1
 489 0 l 1
 252 295 l 1
 186 224 l 1
 186 0 l 1
 100 0 l 1
 100 690 l 1
 186 690 l 1
 186 323 l 1
 527 690 l 1
 628 690 l 1
 315 353 l 1
309 -51 m 1
 378 -51 l 1
 378 -63 l 1
 318 -195 l 1
 257 -195 l 1
 309 -51 l 1
EndSplineSet
Validated: 1
Position2: "'cpsp' Capital Spacing in Latin lookup 0 subtable" dx=5 dy=0 dh=10 dv=0
EndChar

StartChar: L
Encoding: 76 76 50
Width: 503
GlyphClass: 2
Flags: HMW
HStem: 0 70<118 491 118 491> 670 20G<32 118 118 118>
VStem: 32 86<70 690 70 690 70 690>
AnchorPoint: "Anchor-0" 262 0 basechar 0
LayerCount: 2
Fore
SplineSet
491 80 m 1
 491 0 l 1
 32 0 l 1
 32 690 l 1
 128 690 l 1
 128 80 l 1
 491 80 l 1
EndSplineSet
Validated: 1
Position2: "'cpsp' Capital Spacing in Latin lookup 0 subtable" dx=5 dy=0 dh=10 dv=0
EndChar

StartChar: Lacute
Encoding: 313 313 51
Width: 575
GlyphClass: 2
Flags: MW
HStem: 0 70<186 559 186 559> 670 20G<100 186 186 186> 736 94<164 166 110 244>
VStem: 100 86<70 690 70 690 70 690>
AnchorPoint: "Anchor-0" 330 0 basechar 0
LayerCount: 2
Fore
SplineSet
166 736 m 1
 110 736 l 1
 164 830 l 1
 244 830 l 1
 166 736 l 1
559 70 m 1
 559 0 l 1
 100 0 l 1
 100 690 l 1
 186 690 l 1
 186 70 l 1
 559 70 l 1
EndSplineSet
Validated: 1
Position2: "'cpsp' Capital Spacing in Latin lookup 0 subtable" dx=5 dy=0 dh=10 dv=0
EndChar

StartChar: Lcaron
Encoding: 317 317 52
Width: 575
GlyphClass: 2
Flags: MW
HStem: 0 70<186 559 186 559> 670 20G<100 186 186 186>
VStem: 100 86<70 690 70 690 70 690>
AnchorPoint: "Anchor-0" 330 0 basechar 0
LayerCount: 2
Fore
SplineSet
559 70 m 1
 559 0 l 1
 100 0 l 1
 100 690 l 1
 186 690 l 1
 186 70 l 1
 559 70 l 1
EndSplineSet
Validated: 1
Position2: "'cpsp' Capital Spacing in Latin lookup 0 subtable" dx=5 dy=0 dh=10 dv=0
EndChar

StartChar: Lcommaaccent
Encoding: 315 315 53
Width: 575
GlyphClass: 2
Flags: MW
HStem: -195 144<305 314 253 374> 0 70<186 559 186 559> 670 20G<100 186 186 186>
VStem: 100 86<70 690 70 690 70 690>
AnchorPoint: "Anchor-0" 330 0 basechar 0
LayerCount: 2
Fore
SplineSet
559 70 m 1
 559 0 l 1
 100 0 l 1
 100 690 l 1
 186 690 l 1
 186 70 l 1
 559 70 l 1
305 -51 m 1
 374 -51 l 1
 374 -63 l 1
 314 -195 l 1
 253 -195 l 1
 305 -51 l 1
EndSplineSet
Validated: 1
Position2: "'cpsp' Capital Spacing in Latin lookup 0 subtable" dx=5 dy=0 dh=10 dv=0
EndChar

StartChar: Ldot
Encoding: 319 319 54
Width: 575
GlyphClass: 2
Flags: MW
HStem: 0 70<186 559 186 559> 345 110<376.5 407.5> 670 20G<100 186 186 186>
VStem: 100 86<70 690 70 690 70 690> 337 110<384.5 415.5>
AnchorPoint: "Anchor-0" 330 0 basechar 0
LayerCount: 2
Fore
SplineSet
559 70 m 1
 559 0 l 1
 100 0 l 1
 100 690 l 1
 186 690 l 1
 186 70 l 1
 559 70 l 1
392 345 m 0
 361 345 337 369 337 400 c 0
 337 431 361 455 392 455 c 0
 423 455 447 431 447 400 c 0
 447 369 423 345 392 345 c 0
EndSplineSet
Validated: 1
Ligature2: "Ligature Substitution lookup 5 subtable" L periodcentered
Position2: "'cpsp' Capital Spacing in Latin lookup 0 subtable" dx=5 dy=0 dh=10 dv=0
EndChar

StartChar: Lslash
Encoding: 321 321 55
Width: 597
GlyphClass: 2
Flags: MW
HStem: 0 70<208 581 208 581> 670 20G<122 208 208 208>
VStem: 122 86<70 288 288 288 406 690>
AnchorPoint: "Anchor-0" 352 0 basechar 0
LayerCount: 2
Fore
SplineSet
581 70 m 1
 581 0 l 1
 122 0 l 1
 122 288 l 1
 14 224 l 1
 14 291 l 1
 122 355 l 1
 122 690 l 1
 208 690 l 1
 208 406 l 1
 334 481 l 1
 334 414 l 1
 208 339 l 1
 208 70 l 1
 581 70 l 1
EndSplineSet
Validated: 1
Position2: "'cpsp' Capital Spacing in Latin lookup 0 subtable" dx=5 dy=0 dh=10 dv=0
EndChar

StartChar: M
Encoding: 77 77 56
Width: 866
GlyphClass: 2
Flags: MW
HStem: 0 73<446 446 446 498 390 446> 612 78
VStem: 100 86<0 355 0 690> 702 86<0 355 355 398>
LayerCount: 2
Fore
SplineSet
788 690 m 1
 788 0 l 1
 702 0 l 1
 702 355 l 2
 702 441 702 537 704 612 c 1
 681 537 649 440 620 356 c 2
 498 0 l 1
 390 0 l 1
 266 358 l 2
 238 440 206 536 184 610 c 1
 186 535 186 440 186 355 c 2
 186 0 l 1
 100 0 l 1
 100 690 l 1
 242 690 l 1
 446 73 l 1
 649 690 l 1
 788 690 l 1
EndSplineSet
Validated: 1
Position2: "'cpsp' Capital Spacing in Latin lookup 0 subtable" dx=5 dy=0 dh=10 dv=0
EndChar

StartChar: N
Encoding: 78 78 57
Width: 582
GlyphClass: 2
Flags: HMW
HStem: 0 21G<24 110 24 24 432 564 432 432> 0 84<481 481 481 564 432 481> 606 84<107 107> 670 20G<24 156 156 156 478 562 562 562>
VStem: 24 86<0 345 0 690> 478 85
AnchorPoint: "Anchor-0" 294 0 basechar 0
LayerCount: 2
Fore
SplineSet
564 0 m 1x9c
 432 0 l 1
 120 566 l 1xac
 120 0 l 1
 24 0 l 1
 24 690 l 1
 156 690 l 1
 468 127 l 1x5c
 468 690 l 1
 562 690 l 1
 564 0 l 1x9c
EndSplineSet
Validated: 1
Position2: "'cpsp' Capital Spacing in Latin lookup 0 subtable" dx=5 dy=0 dh=10 dv=0
EndChar

StartChar: Nacute
Encoding: 323 323 58
Width: 718
GlyphClass: 2
Flags: MW
HStem: 0 21G<100 186 100 100 508 640 508 508> 0 84<557 557 557 640 508 557> 606 84<183 183> 670 20G<100 232 232 232 554 638 638 638> 736 94<391 393 337 471>
VStem: 100 86<0 345 0 690> 554 85
AnchorPoint: "Anchor-0" 370 0 basechar 0
LayerCount: 2
Fore
SplineSet
393 736 m 1x9e
 337 736 l 1
 391 830 l 1
 471 830 l 1
 393 736 l 1x9e
640 0 m 1
 508 0 l 1
 183 606 l 1xae
 185 525 186 426 186 345 c 2
 186 0 l 1
 100 0 l 1
 100 690 l 1
 232 690 l 1
 557 84 l 1x5e
 555 165 554 264 554 345 c 2
 554 690 l 1
 638 690 l 1
 640 0 l 1
EndSplineSet
Validated: 1
Position2: "'cpsp' Capital Spacing in Latin lookup 0 subtable" dx=5 dy=0 dh=10 dv=0
EndChar

StartChar: Ncaron
Encoding: 327 327 59
Width: 718
GlyphClass: 2
Flags: MW
HStem: 0 21G<100 186 100 100 508 640 508 508> 0 84<557 557 557 640 508 557> 606 84<183 183> 670 20G<100 232 232 232 554 638 638 638> 736 94<274 341 274 400>
VStem: 100 86<0 345 0 690> 554 85
AnchorPoint: "Anchor-0" 370 0 basechar 0
LayerCount: 2
Fore
SplineSet
341 736 m 1x9e
 274 830 l 1
 341 830 l 1
 371 775 l 1
 401 830 l 1
 467 830 l 1
 400 736 l 1
 341 736 l 1x9e
508 0 m 1
 183 606 l 1xae
 185 525 186 426 186 345 c 2
 186 0 l 1
 100 0 l 1
 100 690 l 1
 232 690 l 1
 557 84 l 1x5e
 555 165 554 264 554 345 c 2
 554 690 l 1
 638 690 l 1
 640 0 l 1
 508 0 l 1
EndSplineSet
Validated: 1
Position2: "'cpsp' Capital Spacing in Latin lookup 0 subtable" dx=5 dy=0 dh=10 dv=0
EndChar

StartChar: Ncommaaccent
Encoding: 325 325 60
Width: 718
GlyphClass: 2
Flags: MW
HStem: -195 144<345 354 293 414> 0 21G<100 186 100 100 508 640 508 508> 0 84<557 557 557 640 508 557> 606 84<183 183> 670 20G<100 232 232 232 554 638 638 638>
VStem: 100 86<0 345 0 690> 554 85
AnchorPoint: "Anchor-0" 370 0 basechar 0
LayerCount: 2
Fore
SplineSet
640 0 m 1xce
 508 0 l 1
 183 606 l 1xd6
 185 525 186 426 186 345 c 2
 186 0 l 1
 100 0 l 1
 100 690 l 1
 232 690 l 1
 557 84 l 1xae
 555 165 554 264 554 345 c 2
 554 690 l 1
 638 690 l 1
 640 0 l 1xce
414 -63 m 1
 354 -195 l 1
 293 -195 l 1
 345 -51 l 1
 414 -51 l 1
 414 -63 l 1
EndSplineSet
Validated: 1
Position2: "'cpsp' Capital Spacing in Latin lookup 0 subtable" dx=5 dy=0 dh=10 dv=0
EndChar

StartChar: Eng
Encoding: 330 330 61
Width: 718
GlyphClass: 2
Flags: MW
HStem: -223 70<482 509 482 526.5> 0 21G<100 186 100 100> 598 92<183 183> 670 20G<100 232 232 232 554 640 640 640>
VStem: 100 86<0 345 0 690> 554 86<365 690>
LayerCount: 2
Fore
SplineSet
640 690 m 1xdc
 640 -67 l 2
 640 -85 640 -94 639 -108 c 0
 630 -196 571 -223 482 -223 c 1
 482 -153 l 1
 536 -153 553 -128 553 -83 c 2
 553 -31 l 1
 183 598 l 1xec
 185 517 186 426 186 345 c 2
 186 0 l 1
 100 0 l 1
 100 690 l 1
 232 690 l 1
 557 124 l 1
 555 205 554 284 554 365 c 2
 554 690 l 1
 640 690 l 1xdc
EndSplineSet
Validated: 1
Position2: "'cpsp' Capital Spacing in Latin lookup 0 subtable" dx=5 dy=0 dh=10 dv=0
EndChar

StartChar: Ntilde
Encoding: 209 209 62
Width: 718
GlyphClass: 2
Flags: MW
HStem: 0 21G<100 186 100 100 508 640 508 508> 0 84<557 557 557 640 508 557> 606 84<183 183> 670 20G<100 232 232 232 554 638 638 638> 746 71<438 440> 750 71<300 302 264 325.5>
VStem: 100 86<0 345 0 690> 264 38<750 757.5 750 778> 438 38<809.5 817> 554 85
AnchorPoint: "Anchor-0" 370 0 basechar 0
LayerCount: 2
Fore
SplineSet
316 821 m 0x9740
 335 821 351 817 378 808 c 0
 402 800 413 797 422 797 c 0
 432 797 438 802 438 817 c 1
 476 817 l 1
 476 761 456 746 424 746 c 0x9bc0
 405 746 389 750 362 759 c 0
 338 767 327 770 318 770 c 0
 308 770 302 765 302 750 c 1
 264 750 l 1
 264 806 284 821 316 821 c 0x9740
640 0 m 1
 508 0 l 1
 183 606 l 1xa740
 185 525 186 426 186 345 c 2
 186 0 l 1
 100 0 l 1
 100 690 l 1
 232 690 l 1
 557 84 l 1x5740
 555 165 554 264 554 345 c 2
 554 690 l 1
 638 690 l 1
 640 0 l 1
EndSplineSet
Validated: 1
Position2: "'cpsp' Capital Spacing in Latin lookup 0 subtable" dx=5 dy=0 dh=10 dv=0
EndChar

StartChar: O
Encoding: 79 79 63
Width: 791
GlyphClass: 2
Flags: HW
HStem: 12 662<213 579>
VStem: 65 662<160 526>
LayerCount: 2
Fore
SplineSet
119 343 m 0
 119 190 244 65 397 65 c 0
 551 65 675 190 675 343 c 0
 675 496 551 621 397 621 c 0
 244 621 119 496 119 343 c 0
28 343 m 0
 28 547 192 711 396 711 c 0
 600 711 764 547 764 343 c 0
 764 139 600 -25 396 -25 c 0
 192 -25 28 139 28 343 c 0
EndSplineSet
Validated: 1
Position2: "'cpsp' Capital Spacing in Latin lookup 0 subtable" dx=5 dy=0 dh=10 dv=0
EndChar

StartChar: Oacute
Encoding: 211 211 64
Width: 737
GlyphClass: 2
Flags: MW
HStem: -14 68<300.5 445.5 300.5 478> 636 68<300.5 445.5> 736 94<394 396 340 474>
VStem: 47 96<255.5 435 255.5 450.5> 603 96<255.5 435>
LayerCount: 2
Fore
SplineSet
396 736 m 1
 340 736 l 1
 394 830 l 1
 474 830 l 1
 396 736 l 1
373 704 m 0
 583 704 699 556 699 345 c 0
 699 135 583 -14 373 -14 c 0
 163 -14 47 135 47 345 c 0
 47 556 163 704 373 704 c 0
373 54 m 0
 518 54 603 166 603 345 c 0
 603 525 518 636 373 636 c 0
 228 636 143 525 143 345 c 0
 143 166 228 54 373 54 c 0
EndSplineSet
Validated: 1
Position2: "'cpsp' Capital Spacing in Latin lookup 0 subtable" dx=5 dy=0 dh=10 dv=0
EndChar

StartChar: Ocircumflex
Encoding: 212 212 65
Width: 737
GlyphClass: 2
Flags: MW
HStem: -14 68<300.5 445.5 300.5 478> 636 68<300.5 445.5> 736 94<277 403 277 403 344 403 344 470>
VStem: 47 96<255.5 435 255.5 450.5> 603 96<255.5 435>
LayerCount: 2
Fore
SplineSet
343 736 m 1
 277 736 l 1
 344 830 l 1
 403 830 l 1
 470 736 l 1
 403 736 l 1
 373 791 l 1
 343 736 l 1
373 704 m 0
 583 704 699 556 699 345 c 0
 699 135 583 -14 373 -14 c 0
 163 -14 47 135 47 345 c 0
 47 556 163 704 373 704 c 0
373 54 m 0
 518 54 603 166 603 345 c 0
 603 525 518 636 373 636 c 0
 228 636 143 525 143 345 c 0
 143 166 228 54 373 54 c 0
EndSplineSet
Validated: 1
Position2: "'cpsp' Capital Spacing in Latin lookup 0 subtable" dx=5 dy=0 dh=10 dv=0
EndChar

StartChar: Odieresis
Encoding: 214 214 66
Width: 737
GlyphClass: 2
Flags: MW
HStem: -14 68<300.5 445.5 300.5 478> 636 68<300.5 445.5> 737 92<290.5 315.5 430.5 455.5>
VStem: 47 96<255.5 435 255.5 450.5> 257 92<770.5 795.5> 397 92<770.5 795.5> 603 96<255.5 435>
LayerCount: 2
Fore
SplineSet
303 737 m 0
 278 737 257 758 257 783 c 0
 257 808 278 829 303 829 c 0
 328 829 349 808 349 783 c 0
 349 758 328 737 303 737 c 0
443 737 m 0
 418 737 397 758 397 783 c 0
 397 808 418 829 443 829 c 0
 468 829 489 808 489 783 c 0
 489 758 468 737 443 737 c 0
373 704 m 0
 583 704 699 556 699 345 c 0
 699 135 583 -14 373 -14 c 0
 163 -14 47 135 47 345 c 0
 47 556 163 704 373 704 c 0
373 54 m 0
 518 54 603 166 603 345 c 0
 603 525 518 636 373 636 c 0
 228 636 143 525 143 345 c 0
 143 166 228 54 373 54 c 0
EndSplineSet
Validated: 1
Position2: "'cpsp' Capital Spacing in Latin lookup 0 subtable" dx=5 dy=0 dh=10 dv=0
EndChar

StartChar: Ograve
Encoding: 210 210 67
Width: 737
GlyphClass: 2
Flags: MW
HStem: -14 68<300.5 445.5 300.5 478> 636 68<300.5 445.5> 736 94<349 349 349 351 271 405>
VStem: 47 96<255.5 435 255.5 450.5> 603 96<255.5 435>
LayerCount: 2
Fore
SplineSet
349 736 m 1
 271 830 l 1
 351 830 l 1
 405 736 l 1
 349 736 l 1
373 704 m 0
 583 704 699 556 699 345 c 0
 699 135 583 -14 373 -14 c 0
 163 -14 47 135 47 345 c 0
 47 556 163 704 373 704 c 0
373 54 m 0
 518 54 603 166 603 345 c 0
 603 525 518 636 373 636 c 0
 228 636 143 525 143 345 c 0
 143 166 228 54 373 54 c 0
EndSplineSet
Validated: 1
Position2: "'cpsp' Capital Spacing in Latin lookup 0 subtable" dx=5 dy=0 dh=10 dv=0
EndChar

StartChar: Ohungarumlaut
Encoding: 336 336 68
Width: 737
GlyphClass: 2
Flags: MW
HStem: -14 68<300.5 445.5 300.5 478> 636 68<300.5 445.5> 736 94<323 325 269 403 378 403 432 434 378 378>
VStem: 47 96<255.5 435 255.5 450.5> 603 96<255.5 435>
LayerCount: 2
Fore
SplineSet
325 736 m 1
 269 736 l 1
 323 830 l 1
 403 830 l 1
 325 736 l 1
378 736 m 1
 432 830 l 1
 512 830 l 1
 434 736 l 1
 378 736 l 1
373 704 m 0
 583 704 699 556 699 345 c 0
 699 135 583 -14 373 -14 c 0
 163 -14 47 135 47 345 c 0
 47 556 163 704 373 704 c 0
373 54 m 0
 518 54 603 166 603 345 c 0
 603 525 518 636 373 636 c 0
 228 636 143 525 143 345 c 0
 143 166 228 54 373 54 c 0
EndSplineSet
Validated: 1
Position2: "'cpsp' Capital Spacing in Latin lookup 0 subtable" dx=5 dy=0 dh=10 dv=0
EndChar

StartChar: Omacron
Encoding: 332 332 69
Width: 737
GlyphClass: 2
Flags: MW
HStem: -14 68<300.5 445.5 300.5 478> 636 68<300.5 445.5> 757 52<253 493 253 493>
VStem: 47 96<255.5 435 255.5 450.5> 253 240<757 809 757 809> 603 96<255.5 435>
LayerCount: 2
Fore
SplineSet
493 757 m 1
 253 757 l 1
 253 809 l 1
 493 809 l 1
 493 757 l 1
373 704 m 0
 583 704 699 556 699 345 c 0
 699 135 583 -14 373 -14 c 0
 163 -14 47 135 47 345 c 0
 47 556 163 704 373 704 c 0
373 54 m 0
 518 54 603 166 603 345 c 0
 603 525 518 636 373 636 c 0
 228 636 143 525 143 345 c 0
 143 166 228 54 373 54 c 0
EndSplineSet
Validated: 1
Position2: "'cpsp' Capital Spacing in Latin lookup 0 subtable" dx=5 dy=0 dh=10 dv=0
EndChar

StartChar: Oslash
Encoding: 216 216 70
Width: 745
GlyphClass: 2
Flags: MW
HStem: -14 68<340.5 449.5 340.5 482> 636 68<304.5 413.5>
VStem: 51 96<314 435> 607 96<255.5 376>
LayerCount: 2
Fore
SplineSet
711 638 m 1
 644 571 l 1
 683 511 703 433 703 345 c 0
 703 135 587 -14 377 -14 c 0
 279 -14 202 18 147 74 c 1
 84 11 l 1
 43 52 l 1
 111 120 l 1
 71 180 51 257 51 345 c 0
 51 556 167 704 377 704 c 0
 475 704 552 672 607 616 c 1
 670 679 l 1
 711 638 l 1
147 345 m 0
 147 283 157 229 176 185 c 1
 548 557 l 1
 508 608 450 636 377 636 c 0
 232 636 147 525 147 345 c 0
607 345 m 0
 607 407 597 461 578 505 c 1
 207 134 l 1
 246 82 304 54 377 54 c 0
 522 54 607 166 607 345 c 0
EndSplineSet
Validated: 1
Position2: "'cpsp' Capital Spacing in Latin lookup 0 subtable" dx=5 dy=0 dh=10 dv=0
EndChar

StartChar: Otilde
Encoding: 213 213 71
Width: 737
GlyphClass: 2
Flags: MW
HStem: -14 68<300.5 445.5 300.5 478> 636 68<300.5 445.5> 746 71<441 443> 750 71<303 305 267 328.5>
VStem: 47 96<255.5 435 255.5 450.5> 267 38<750 757.5 750 778> 441 38<809.5 817> 603 96<255.5 435>
LayerCount: 2
Fore
SplineSet
321 770 m 0xdd
 311 770 305 765 305 750 c 1
 267 750 l 1
 267 806 287 821 319 821 c 0xdd
 338 821 354 817 381 808 c 0
 405 800 416 797 425 797 c 0
 435 797 441 802 441 817 c 1
 479 817 l 1
 479 761 459 746 427 746 c 0xef
 408 746 392 750 365 759 c 0
 341 767 330 770 321 770 c 0xdd
373 704 m 0
 583 704 699 556 699 345 c 0
 699 135 583 -14 373 -14 c 0
 163 -14 47 135 47 345 c 0
 47 556 163 704 373 704 c 0
373 54 m 0
 518 54 603 166 603 345 c 0
 603 525 518 636 373 636 c 0
 228 636 143 525 143 345 c 0
 143 166 228 54 373 54 c 0
EndSplineSet
Validated: 1
Position2: "'cpsp' Capital Spacing in Latin lookup 0 subtable" dx=5 dy=0 dh=10 dv=0
EndChar

StartChar: OE
Encoding: 338 338 72
Width: 1090
GlyphClass: 2
Flags: MW
HStem: -14 68<300.5 407.5> 0 70<689 1062 689 1062> 310 70<689 1022 689 1022> 620 70<689 1052 689 689> 636 68<300.5 414 263 445.5>
VStem: 47 96<259 431.5 259 445.5> 603 86<70 141 141 141 259 310 380 431.5 547 620>
LayerCount: 2
Fore
SplineSet
1062 70 m 1x76
 1062 0 l 1
 603 0 l 1x76
 603 141 l 1
 576 68 l 1
 524 9 452 -14 363 -14 c 0
 163 -14 47 145 47 345 c 0
 47 546 163 704 363 704 c 0
 465 704 523 680 576 618 c 1xae
 603 547 l 1
 603 690 l 1
 1052 690 l 1
 1052 620 l 1
 689 620 l 1
 689 380 l 1
 1022 380 l 1
 1022 310 l 1
 689 310 l 1
 689 70 l 1
 1062 70 l 1x76
373 54 m 0xae
 518 54 603 173 603 345 c 0
 603 518 518 636 373 636 c 0
 228 636 143 518 143 345 c 0
 143 173 228 54 373 54 c 0xae
EndSplineSet
Validated: 1
Position2: "'cpsp' Capital Spacing in Latin lookup 0 subtable" dx=5 dy=0 dh=10 dv=0
EndChar

StartChar: P
Encoding: 80 80 73
Width: 554
GlyphClass: 2
Flags: HMW
HStem: 0 21G<100 186 100 100> 282 72<186 314 186 322> 618 72<186 314 314 322 186 186>
VStem: 100 86<0 282 0 354 354 618> 491 92<446 526>
LayerCount: 2
Fore
SplineSet
354 686 m 0
 464 672 533 603 533 486 c 0
 533 369 454 299 354 286 c 0
 323 282 299 282 264 282 c 2
 186 282 l 1
 186 0 l 1
 100 0 l 1
 100 690 l 1
 264 690 l 2
 299 690 323 690 354 686 c 0
349 359 m 0
 398 370 441 406 441 486 c 0
 441 566 398 602 349 613 c 0
 330 617 303 618 272 618 c 2
 186 618 l 1
 186 354 l 1
 272 354 l 2
 303 354 330 355 349 359 c 0
EndSplineSet
Validated: 1
Position2: "'cpsp' Capital Spacing in Latin lookup 0 subtable" dx=5 dy=0 dh=10 dv=0
EndChar

StartChar: Thorn
Encoding: 222 222 74
Width: 630
GlyphClass: 2
Flags: MW
HStem: 0 21G<100 186 100 100> 211 72<186 319 186 319> 530 72<186 319 186 319> 530 160<100 319 100 186>
VStem: 100 86<0 211 0 283 283 530 602 690> 491 92<368 444>
LayerCount: 2
Fore
SplineSet
409 598 m 0xec
 509 585 583 521 583 408 c 0
 583 295 509 228 409 215 c 0
 378 211 354 211 319 211 c 2
 186 211 l 1
 186 0 l 1
 100 0 l 1
 100 690 l 1
 186 690 l 1xdc
 186 602 l 1
 319 602 l 2
 354 602 378 602 409 598 c 0xec
396 288 m 0xdc
 445 299 491 330 491 406 c 0
 491 482 445 514 396 525 c 0
 377 529 350 530 319 530 c 2
 186 530 l 1
 186 283 l 1
 319 283 l 2
 350 283 377 284 396 288 c 0xdc
EndSplineSet
Validated: 1
Position2: "'cpsp' Capital Spacing in Latin lookup 0 subtable" dx=5 dy=0 dh=10 dv=0
EndChar

StartChar: Q
Encoding: 81 81 75
Width: 733
GlyphClass: 2
Flags: MW
HStem: -14 21G -14 68<300.5 386> 2 52 636 68<300.5 445.5>
VStem: 47 96<255.5 435 255.5 450.5> 603 96<287 435>
LayerCount: 2
Fore
SplineSet
573 72 m 1x5c
 619 65 659 42 701 7 c 1x9c
 652 -52 l 1
 584 -6 552 2 517 2 c 0x3c
 489 2 472 -1 444 -7 c 0
 422 -12 399 -14 373 -14 c 0
 163 -14 47 135 47 345 c 0
 47 556 163 704 373 704 c 0
 583 704 699 556 699 345 c 0
 699 229 655 132 573 72 c 1x5c
143 345 m 0
 143 166 228 54 373 54 c 0
 518 54 603 166 603 345 c 0
 603 525 518 636 373 636 c 0
 228 636 143 525 143 345 c 0
EndSplineSet
Validated: 1
Position2: "'cpsp' Capital Spacing in Latin lookup 0 subtable" dx=5 dy=0 dh=10 dv=0
EndChar

StartChar: R
Encoding: 82 82 76
Width: 619
GlyphClass: 2
Flags: MW
HStem: 0 21G<100 186 100 100 505 600 505 505> 297 70<186 316 186 318> 620 70<186 326 186 186>
VStem: 100 86<0 297 367 620> 496 92<456.5 532.5>
AnchorPoint: "Anchor-0" 317 0 basechar 0
LayerCount: 2
Fore
SplineSet
554 181 m 0
 562 91 572 37 600 0 c 1
 505 0 l 1
 486 44 477 88 468 173 c 0
 460 244 433 291 365 296 c 0
 349 297 332 297 316 297 c 2
 186 297 l 1
 186 0 l 1
 100 0 l 1
 100 690 l 1
 326 690 l 2
 361 690 385 690 416 686 c 0
 516 673 588 618 588 502 c 0
 588 411 529 359 465 339 c 1
 521 313 548 250 554 181 c 0
186 367 m 1
 318 367 l 2
 349 367 366 367 385 369 c 0
 449 375 496 416 496 494 c 0
 496 571 459 606 395 616 c 0
 376 619 357 620 326 620 c 2
 186 620 l 1
 186 367 l 1
EndSplineSet
Validated: 1
Position2: "'cpsp' Capital Spacing in Latin lookup 0 subtable" dx=5 dy=0 dh=10 dv=0
EndChar

StartChar: Racute
Encoding: 340 340 77
Width: 619
GlyphClass: 2
Flags: MW
HStem: 0 21G<100 186 100 100 505 600 505 505> 297 70<186 316 186 318> 620 70<186 326 186 186> 736 94<343 345 289 423>
VStem: 100 86<0 297 367 620> 496 92<456.5 532.5>
AnchorPoint: "Anchor-0" 317 0 basechar 0
LayerCount: 2
Fore
SplineSet
345 736 m 1
 289 736 l 1
 343 830 l 1
 423 830 l 1
 345 736 l 1
554 181 m 0
 562 91 572 37 600 0 c 1
 505 0 l 1
 486 44 477 88 468 173 c 0
 460 244 433 291 365 296 c 0
 349 297 332 297 316 297 c 2
 186 297 l 1
 186 0 l 1
 100 0 l 1
 100 690 l 1
 326 690 l 2
 361 690 385 690 416 686 c 0
 516 673 588 618 588 502 c 0
 588 411 529 359 465 339 c 1
 521 313 548 250 554 181 c 0
186 367 m 1
 318 367 l 2
 349 367 366 367 385 369 c 0
 449 375 496 416 496 494 c 0
 496 571 459 606 395 616 c 0
 376 619 357 620 326 620 c 2
 186 620 l 1
 186 367 l 1
EndSplineSet
Validated: 1
Position2: "'cpsp' Capital Spacing in Latin lookup 0 subtable" dx=5 dy=0 dh=10 dv=0
EndChar

StartChar: Rcaron
Encoding: 344 344 78
Width: 619
GlyphClass: 2
Flags: MW
HStem: 0 21G<100 186 100 100 505 600 505 505> 297 70<186 316 186 318> 620 70<186 326 186 186> 736 94<226 293 226 352>
VStem: 100 86<0 297 367 620> 496 92<456.5 532.5>
AnchorPoint: "Anchor-0" 317 0 basechar 0
LayerCount: 2
Fore
SplineSet
293 736 m 1
 226 830 l 1
 293 830 l 1
 323 775 l 1
 353 830 l 1
 419 830 l 1
 352 736 l 1
 293 736 l 1
554 181 m 0
 562 91 572 37 600 0 c 1
 505 0 l 1
 486 44 477 88 468 173 c 0
 460 244 433 291 365 296 c 0
 349 297 332 297 316 297 c 2
 186 297 l 1
 186 0 l 1
 100 0 l 1
 100 690 l 1
 326 690 l 2
 361 690 385 690 416 686 c 0
 516 673 588 618 588 502 c 0
 588 411 529 359 465 339 c 1
 521 313 548 250 554 181 c 0
186 367 m 1
 318 367 l 2
 349 367 366 367 385 369 c 0
 449 375 496 416 496 494 c 0
 496 571 459 606 395 616 c 0
 376 619 357 620 326 620 c 2
 186 620 l 1
 186 367 l 1
EndSplineSet
Validated: 1
Position2: "'cpsp' Capital Spacing in Latin lookup 0 subtable" dx=5 dy=0 dh=10 dv=0
EndChar

StartChar: Rcommaaccent
Encoding: 342 342 79
Width: 619
GlyphClass: 2
Flags: MW
HStem: -195 144<292 301 240 361> 0 21G<100 186 100 100 505 600 505 505> 297 70<186 316 186 318> 620 70<186 326 186 186>
VStem: 100 86<0 297 367 620> 496 92<456.5 532.5>
AnchorPoint: "Anchor-0" 317 0 basechar 0
LayerCount: 2
Fore
SplineSet
554 181 m 0
 562 91 572 37 600 0 c 1
 505 0 l 1
 486 44 477 88 468 173 c 0
 460 244 433 291 365 296 c 0
 349 297 332 297 316 297 c 2
 186 297 l 1
 186 0 l 1
 100 0 l 1
 100 690 l 1
 326 690 l 2
 361 690 385 690 416 686 c 0
 516 673 588 618 588 502 c 0
 588 411 529 359 465 339 c 1
 521 313 548 250 554 181 c 0
186 367 m 1
 318 367 l 2
 349 367 366 367 385 369 c 0
 449 375 496 416 496 494 c 0
 496 571 459 606 395 616 c 0
 376 619 357 620 326 620 c 2
 186 620 l 1
 186 367 l 1
292 -51 m 1
 361 -51 l 1
 361 -63 l 1
 301 -195 l 1
 240 -195 l 1
 292 -51 l 1
EndSplineSet
Validated: 1
Position2: "'cpsp' Capital Spacing in Latin lookup 0 subtable" dx=5 dy=0 dh=10 dv=0
EndChar

StartChar: S
Encoding: 83 83 80
Width: 585
GlyphClass: 2
Flags: HMW
HStem: -14 68<272 356.5 272 381.5> 636 68<270.5 350.5>
VStem: 84 92<492.5 566 492.5 569.5> 460 92<133 211>
AnchorPoint: "Anchor-0" 304 0 basechar 0
LayerCount: 2
Fore
SplineSet
314 704 m 0
 457 704 532 617 545 499 c 1
 453 499 l 1
 445 586 394 626 307 626 c 0
 234 626 166 592 166 520 c 0
 166 445 219 423 324 399 c 0
 476 364 552 302 552 185 c 0
 552 64 448 -14 315 -14 c 0
 163 -14 67 63 52 196 c 1
 144 196 l 1
 164 105 227 64 317 64 c 0
 396 64 470 107 470 179 c 0
 470 263 412 291 291 319 c 0
 169 347 84 396 84 510 c 0
 84 629 187 704 314 704 c 0
EndSplineSet
Validated: 1
Position2: "'cpsp' Capital Spacing in Latin lookup 0 subtable" dx=5 dy=0 dh=10 dv=0
EndChar

StartChar: Sacute
Encoding: 346 346 81
Width: 585
GlyphClass: 2
Flags: MW
HStem: -14 68<272 356.5 272 381.5> 636 68<270.5 350.5> 736 94<325 327 271 405>
VStem: 84 92<492.5 566 492.5 569.5> 460 92<133 211>
AnchorPoint: "Anchor-0" 304 0 basechar 0
LayerCount: 2
Fore
SplineSet
327 736 m 1
 271 736 l 1
 325 830 l 1
 405 830 l 1
 327 736 l 1
314 704 m 0
 457 704 532 617 545 499 c 1
 453 499 l 1
 445 586 394 636 307 636 c 0
 234 636 176 602 176 530 c 0
 176 455 219 423 324 399 c 0
 476 364 552 302 552 185 c 0
 552 64 448 -14 315 -14 c 0
 163 -14 67 63 52 196 c 1
 144 196 l 1
 164 105 227 54 317 54 c 0
 396 54 460 97 460 169 c 0
 460 253 412 291 291 319 c 0
 169 347 84 396 84 510 c 0
 84 629 187 704 314 704 c 0
EndSplineSet
Validated: 1
Position2: "'cpsp' Capital Spacing in Latin lookup 0 subtable" dx=5 dy=0 dh=10 dv=0
EndChar

StartChar: Scaron
Encoding: 352 352 82
Width: 585
GlyphClass: 2
Flags: MW
HStem: -14 68<272 356.5 272 381.5> 636 68<270.5 350.5> 736 94<208 275 208 334>
VStem: 84 92<492.5 566 492.5 569.5> 460 92<133 211>
AnchorPoint: "Anchor-0" 304 0 basechar 0
LayerCount: 2
Fore
SplineSet
275 736 m 1
 208 830 l 1
 275 830 l 1
 305 775 l 1
 335 830 l 1
 401 830 l 1
 334 736 l 1
 275 736 l 1
324 399 m 0
 476 364 552 302 552 185 c 0
 552 64 448 -14 315 -14 c 0
 163 -14 67 63 52 196 c 1
 144 196 l 1
 164 105 227 54 317 54 c 0
 396 54 460 97 460 169 c 0
 460 253 412 291 291 319 c 0
 169 347 84 396 84 510 c 0
 84 629 187 704 314 704 c 0
 457 704 532 617 545 499 c 1
 453 499 l 1
 445 586 394 636 307 636 c 0
 234 636 176 602 176 530 c 0
 176 455 219 423 324 399 c 0
EndSplineSet
Validated: 1
Position2: "'cpsp' Capital Spacing in Latin lookup 0 subtable" dx=5 dy=0 dh=10 dv=0
EndChar

StartChar: Scedilla
Encoding: 350 350 83
Width: 585
GlyphClass: 2
Flags: HMW
HStem: -210 42<262.5 293.5 262.5 306.5> -78 132<239 356.5> -12 21G<275 275> -12 66<275 275> 636 68<270.5 350.5>
VStem: 84 92<492.5 566 492.5 569.5> 335 58<-137.5 -107> 460 92<133 211>
AnchorPoint: "Anchor-0" 304 0 basechar 0
LayerCount: 2
Fore
SplineSet
552 185 m 0xaf
 552 67 454 -9 326 -14 c 1
 312 -40 l 1
 365 -47 393 -76 393 -123 c 0
 393 -179 343 -210 270 -210 c 0
 252 -210 234 -207 220 -201 c 1
 220 -157 l 1
 235 -165 252 -168 273 -168 c 0
 314 -168 335 -151 335 -124 c 0
 335 -94 314 -77 261 -77 c 0
 254 -77 247 -77 239 -78 c 1xcf
 275 -12 l 1
 146 1 66 75 52 196 c 1
 144 196 l 1
 164 105 227 54 317 54 c 0x9f
 396 54 460 97 460 169 c 0
 460 253 412 291 291 319 c 0
 169 347 84 396 84 510 c 0
 84 629 187 704 314 704 c 0
 457 704 532 617 545 499 c 1
 453 499 l 1
 445 586 394 636 307 636 c 0
 234 636 176 602 176 530 c 0
 176 455 219 423 324 399 c 0
 476 364 552 302 552 185 c 0xaf
EndSplineSet
Validated: 1
Substitution2: "'locl' Localized Forms in Latin lookup 2 subtable" Scommaaccent
Substitution2: "'locl' Localized Forms in Latin lookup 1 subtable" Scommaaccent
Substitution2: "'aalt' Access All Alternates in Latin lookup 0 subtable" Scommaaccent
Position2: "'cpsp' Capital Spacing in Latin lookup 0 subtable" dx=5 dy=0 dh=10 dv=0
EndChar

StartChar: Scommaaccent
Encoding: 536 536 84
Width: 585
GlyphClass: 2
Flags: MW
HStem: -195 144<279 288 227 348> -14 68<272 356.5 272 381.5> 636 68<270.5 350.5>
VStem: 84 92<492.5 566 492.5 569.5> 460 92<133 211>
AnchorPoint: "Anchor-0" 304 0 basechar 0
LayerCount: 2
Fore
SplineSet
314 704 m 0
 457 704 532 617 545 499 c 1
 453 499 l 1
 445 586 394 636 307 636 c 0
 234 636 176 602 176 530 c 0
 176 455 219 423 324 399 c 0
 476 364 552 302 552 185 c 0
 552 64 448 -14 315 -14 c 0
 163 -14 67 63 52 196 c 1
 144 196 l 1
 164 105 227 54 317 54 c 0
 396 54 460 97 460 169 c 0
 460 253 412 291 291 319 c 0
 169 347 84 396 84 510 c 0
 84 629 187 704 314 704 c 0
348 -63 m 1
 288 -195 l 1
 227 -195 l 1
 279 -51 l 1
 348 -51 l 1
 348 -63 l 1
EndSplineSet
Validated: 1
Position2: "'cpsp' Capital Spacing in Latin lookup 0 subtable" dx=5 dy=0 dh=10 dv=0
EndChar

StartChar: T
Encoding: 84 84 85
Width: 620
GlyphClass: 2
Flags: HMW
HStem: 0 21G<280 366 280 280> 620 70<34 280 34 612 366 612 366 366>
VStem: 280 86<0 620 0 620>
AnchorPoint: "Anchor-0" 323 0 basechar 0
LayerCount: 2
Fore
SplineSet
592 620 m 1
 366 620 l 1
 366 0 l 1
 280 0 l 1
 280 620 l 1
 54 620 l 1
 54 697 l 1
 592 697 l 1
 592 620 l 1
EndSplineSet
Validated: 1
Position2: "'cpsp' Capital Spacing in Latin lookup 0 subtable" dx=5 dy=0 dh=10 dv=0
EndChar

StartChar: Tbar
Encoding: 358 358 86
Width: 612
GlyphClass: 2
Flags: MW
HStem: 0 21G<280 366 280 280> 305 56<168 280 168 280 366 478> 620 70<34 280 34 612 366 612 366 366>
VStem: 280 86<0 305 0 305 361 620>
AnchorPoint: "Anchor-0" 323 0 basechar 0
LayerCount: 2
Fore
SplineSet
366 620 m 1
 366 361 l 1
 478 361 l 1
 478 305 l 1
 366 305 l 1
 366 0 l 1
 280 0 l 1
 280 305 l 1
 168 305 l 1
 168 361 l 1
 280 361 l 1
 280 620 l 1
 34 620 l 1
 34 690 l 1
 612 690 l 1
 612 620 l 1
 366 620 l 1
EndSplineSet
Validated: 1
Position2: "'cpsp' Capital Spacing in Latin lookup 0 subtable" dx=5 dy=0 dh=10 dv=0
EndChar

StartChar: Tcaron
Encoding: 356 356 87
Width: 612
GlyphClass: 2
Flags: MW
HStem: 0 21G<280 366 280 280> 620 70<34 280 34 612 366 612 366 366> 736 94<227 294 227 353>
VStem: 280 86<0 620 0 620>
AnchorPoint: "Anchor-0" 323 0 basechar 0
LayerCount: 2
Fore
SplineSet
294 736 m 1
 227 830 l 1
 294 830 l 1
 324 775 l 1
 354 830 l 1
 420 830 l 1
 353 736 l 1
 294 736 l 1
612 620 m 1
 366 620 l 1
 366 0 l 1
 280 0 l 1
 280 620 l 1
 34 620 l 1
 34 690 l 1
 612 690 l 1
 612 620 l 1
EndSplineSet
Validated: 1
Position2: "'cpsp' Capital Spacing in Latin lookup 0 subtable" dx=5 dy=0 dh=10 dv=0
EndChar

StartChar: Tcedilla
Encoding: 354 354 88
Width: 612
GlyphClass: 2
Flags: HMW
HStem: -210 42<281.5 312.5 281.5 325.5> 0 21G<280 300 280 280 353 366 353 353> 620 70<34 280 34 612 366 366 366 612>
VStem: 280 86<0 620 0 620> 354 58<-137.5 -107>
AnchorPoint: "Anchor-0" 323 0 basechar 0
LayerCount: 2
Fore
SplineSet
353 0 m 1xf0
 331 -40 l 1
 384 -47 412 -76 412 -123 c 0
 412 -179 362 -210 289 -210 c 0
 271 -210 253 -207 239 -201 c 1
 239 -157 l 1
 254 -165 271 -168 292 -168 c 0
 333 -168 354 -151 354 -124 c 0
 354 -94 333 -77 280 -77 c 0
 273 -77 266 -77 258 -78 c 1
 300 0 l 1xe8
 280 0 l 1
 280 620 l 1
 34 620 l 1
 34 690 l 1
 612 690 l 1
 612 620 l 1
 366 620 l 1
 366 0 l 1
 353 0 l 1xf0
EndSplineSet
Validated: 1
Substitution2: "'locl' Localized Forms in Latin lookup 2 subtable" uni021A
Substitution2: "'locl' Localized Forms in Latin lookup 1 subtable" uni021A
Substitution2: "'aalt' Access All Alternates in Latin lookup 0 subtable" uni021A
Position2: "'cpsp' Capital Spacing in Latin lookup 0 subtable" dx=5 dy=0 dh=10 dv=0
EndChar

StartChar: uni021A
Encoding: 538 538 89
Width: 612
GlyphClass: 2
Flags: MW
HStem: -195 144<298 307 246 367> 0 21G<280 366 280 280> 620 70<34 280 34 612 366 612 366 366>
VStem: 280 86<0 620 0 620>
AnchorPoint: "Anchor-0" 323 0 basechar 0
LayerCount: 2
Fore
SplineSet
612 690 m 1
 612 620 l 1
 366 620 l 1
 366 0 l 1
 280 0 l 1
 280 620 l 1
 34 620 l 1
 34 690 l 1
 612 690 l 1
298 -51 m 1
 367 -51 l 1
 367 -63 l 1
 307 -195 l 1
 246 -195 l 1
 298 -51 l 1
EndSplineSet
Validated: 1
Position2: "'cpsp' Capital Spacing in Latin lookup 0 subtable" dx=5 dy=0 dh=10 dv=0
EndChar

StartChar: U
Encoding: 85 85 90
Width: 682
GlyphClass: 2
Flags: MW
HStem: -14 68<300 406 300 437.5> 670 20G<94 180 180 180 526 612 612 612>
VStem: 94 86<255 263 263 690> 526 86<263 690>
LayerCount: 2
Fore
SplineSet
612 690 m 1
 612 255 l 2
 612 233 612 213 610 193 c 0
 600 78 522 -14 353 -14 c 0
 184 -14 106 78 96 193 c 0
 94 213 94 233 94 255 c 2
 94 690 l 1
 180 690 l 1
 180 263 l 2
 180 241 180 220 182 202 c 0
 190 115 247 54 353 54 c 0
 459 54 516 115 524 202 c 0
 526 220 526 241 526 263 c 2
 526 690 l 1
 612 690 l 1
EndSplineSet
Validated: 1
Position2: "'cpsp' Capital Spacing in Latin lookup 0 subtable" dx=5 dy=0 dh=10 dv=0
EndChar

StartChar: Uacute
Encoding: 218 218 91
Width: 682
GlyphClass: 2
Flags: MW
HStem: -14 68<300 406 300 437.5> 670 20G<94 180 180 180 526 612 612 612> 736 94<374 376 320 454>
VStem: 94 86<255 263 263 690> 526 86<263 690>
LayerCount: 2
Fore
SplineSet
376 736 m 1
 320 736 l 1
 374 830 l 1
 454 830 l 1
 376 736 l 1
612 690 m 1
 612 255 l 2
 612 233 612 213 610 193 c 0
 600 78 522 -14 353 -14 c 0
 184 -14 106 78 96 193 c 0
 94 213 94 233 94 255 c 2
 94 690 l 1
 180 690 l 1
 180 263 l 2
 180 241 180 220 182 202 c 0
 190 115 247 54 353 54 c 0
 459 54 516 115 524 202 c 0
 526 220 526 241 526 263 c 2
 526 690 l 1
 612 690 l 1
EndSplineSet
Validated: 1
Position2: "'cpsp' Capital Spacing in Latin lookup 0 subtable" dx=5 dy=0 dh=10 dv=0
EndChar

StartChar: Ucircumflex
Encoding: 219 219 92
Width: 682
GlyphClass: 2
Flags: MW
HStem: -14 68<300 406 300 437.5> 670 20G<94 180 180 180 526 612 612 612> 736 94<257 383 257 383 324 383 324 450>
VStem: 94 86<255 263 263 690> 526 86<263 690>
LayerCount: 2
Fore
SplineSet
323 736 m 1
 257 736 l 1
 324 830 l 1
 383 830 l 1
 450 736 l 1
 383 736 l 1
 353 791 l 1
 323 736 l 1
612 690 m 1
 612 255 l 2
 612 233 612 213 610 193 c 0
 600 78 522 -14 353 -14 c 0
 184 -14 106 78 96 193 c 0
 94 213 94 233 94 255 c 2
 94 690 l 1
 180 690 l 1
 180 263 l 2
 180 241 180 220 182 202 c 0
 190 115 247 54 353 54 c 0
 459 54 516 115 524 202 c 0
 526 220 526 241 526 263 c 2
 526 690 l 1
 612 690 l 1
EndSplineSet
Validated: 1
Position2: "'cpsp' Capital Spacing in Latin lookup 0 subtable" dx=5 dy=0 dh=10 dv=0
EndChar

StartChar: Udieresis
Encoding: 220 220 93
Width: 682
GlyphClass: 2
Flags: MW
HStem: -14 68<300 406 300 437.5> 670 20G<94 180 180 180 526 612 612 612> 737 92<270.5 295.5 410.5 435.5>
VStem: 94 86<255 263 263 690> 237 92<770.5 795.5> 377 92<770.5 795.5> 526 86<263 690>
LayerCount: 2
Fore
SplineSet
283 829 m 0
 308 829 329 808 329 783 c 0
 329 758 308 737 283 737 c 0
 258 737 237 758 237 783 c 0
 237 808 258 829 283 829 c 0
423 829 m 0
 448 829 469 808 469 783 c 0
 469 758 448 737 423 737 c 0
 398 737 377 758 377 783 c 0
 377 808 398 829 423 829 c 0
612 690 m 1
 612 255 l 2
 612 233 612 213 610 193 c 0
 600 78 522 -14 353 -14 c 0
 184 -14 106 78 96 193 c 0
 94 213 94 233 94 255 c 2
 94 690 l 1
 180 690 l 1
 180 263 l 2
 180 241 180 220 182 202 c 0
 190 115 247 54 353 54 c 0
 459 54 516 115 524 202 c 0
 526 220 526 241 526 263 c 2
 526 690 l 1
 612 690 l 1
EndSplineSet
Validated: 1
Position2: "'cpsp' Capital Spacing in Latin lookup 0 subtable" dx=5 dy=0 dh=10 dv=0
EndChar

StartChar: Ugrave
Encoding: 217 217 94
Width: 682
GlyphClass: 2
Flags: MW
HStem: -14 68<300 406 300 437.5> 670 20G<94 180 180 180 526 612 612 612> 736 94<329 331 251 385 329 329>
VStem: 94 86<255 263 263 690> 526 86<263 690>
LayerCount: 2
Fore
SplineSet
385 736 m 1
 329 736 l 1
 251 830 l 1
 331 830 l 1
 385 736 l 1
612 690 m 1
 612 255 l 2
 612 233 612 213 610 193 c 0
 600 78 522 -14 353 -14 c 0
 184 -14 106 78 96 193 c 0
 94 213 94 233 94 255 c 2
 94 690 l 1
 180 690 l 1
 180 263 l 2
 180 241 180 220 182 202 c 0
 190 115 247 54 353 54 c 0
 459 54 516 115 524 202 c 0
 526 220 526 241 526 263 c 2
 526 690 l 1
 612 690 l 1
EndSplineSet
Validated: 1
Position2: "'cpsp' Capital Spacing in Latin lookup 0 subtable" dx=5 dy=0 dh=10 dv=0
EndChar

StartChar: Uhungarumlaut
Encoding: 368 368 95
Width: 682
GlyphClass: 2
Flags: MW
HStem: -14 68<300 406 300 437.5> 670 20G<94 180 180 180 526 612 612 612> 736 94<303 305 249 383 358 358 358 383 412 414>
VStem: 94 86<255 263 263 690> 526 86<263 690>
LayerCount: 2
Fore
SplineSet
305 736 m 1
 249 736 l 1
 303 830 l 1
 383 830 l 1
 305 736 l 1
414 736 m 1
 358 736 l 1
 412 830 l 1
 492 830 l 1
 414 736 l 1
612 690 m 1
 612 255 l 2
 612 233 612 213 610 193 c 0
 600 78 522 -14 353 -14 c 0
 184 -14 106 78 96 193 c 0
 94 213 94 233 94 255 c 2
 94 690 l 1
 180 690 l 1
 180 263 l 2
 180 241 180 220 182 202 c 0
 190 115 247 54 353 54 c 0
 459 54 516 115 524 202 c 0
 526 220 526 241 526 263 c 2
 526 690 l 1
 612 690 l 1
EndSplineSet
Validated: 1
Position2: "'cpsp' Capital Spacing in Latin lookup 0 subtable" dx=5 dy=0 dh=10 dv=0
EndChar

StartChar: Umacron
Encoding: 362 362 96
Width: 682
GlyphClass: 2
Flags: MW
HStem: -14 68<300 406 300 437.5> 670 20G<94 180 180 180 526 612 612 612> 757 52<233 473 233 473>
VStem: 94 86<255 263 263 690> 233 240<757 809 757 809> 526 86<263 690>
LayerCount: 2
Fore
SplineSet
473 757 m 1
 233 757 l 1
 233 809 l 1
 473 809 l 1
 473 757 l 1
612 690 m 1
 612 255 l 2
 612 233 612 213 610 193 c 0
 600 78 522 -14 353 -14 c 0
 184 -14 106 78 96 193 c 0
 94 213 94 233 94 255 c 2
 94 690 l 1
 180 690 l 1
 180 263 l 2
 180 241 180 220 182 202 c 0
 190 115 247 54 353 54 c 0
 459 54 516 115 524 202 c 0
 526 220 526 241 526 263 c 2
 526 690 l 1
 612 690 l 1
EndSplineSet
Validated: 1
Position2: "'cpsp' Capital Spacing in Latin lookup 0 subtable" dx=5 dy=0 dh=10 dv=0
EndChar

StartChar: Uogonek
Encoding: 370 370 97
Width: 682
GlyphClass: 2
Flags: MW
HStem: -223 54<345.5 416> -14 68 670 20G<94 180 180 180 526 612 612 612>
VStem: 94 86<255 263 263 690> 280 82<-137.5 -110.5> 526 86<263 690>
LayerCount: 2
Fore
SplineSet
612 690 m 1
 612 255 l 2
 612 233 612 213 610 193 c 0
 602 99 549 21 438 -5 c 1
 395 -21 362 -64 362 -119 c 0
 362 -156 377 -169 406 -169 c 0
 426 -169 444 -163 462 -149 c 1
 462 -198 l 1
 437 -215 406 -223 373 -223 c 0
 318 -223 280 -201 280 -138 c 0
 280 -83 308 -41 346 -14 c 1
 182 -11 106 80 96 193 c 0
 94 213 94 233 94 255 c 2
 94 690 l 1
 180 690 l 1
 180 263 l 2
 180 241 180 220 182 202 c 0
 190 115 247 54 353 54 c 0
 459 54 516 115 524 202 c 0
 526 220 526 241 526 263 c 2
 526 690 l 1
 612 690 l 1
EndSplineSet
Validated: 1
Position2: "'cpsp' Capital Spacing in Latin lookup 0 subtable" dx=5 dy=0 dh=10 dv=0
EndChar

StartChar: Uring
Encoding: 366 366 98
Width: 682
GlyphClass: 2
Flags: MW
HStem: -14 68<300 406 300 437.5> 670 20G<94 180 180 180 526 612 612 612> 716 36<341 365 341 379.5> 838 36<341 365>
VStem: 94 86<255 263 263 690> 262 50<782.5 807.5 782.5 818> 394 50<782.5 807.5> 526 86<263 690>
LayerCount: 2
Fore
SplineSet
353 874 m 0
 406 874 444 841 444 795 c 0
 444 749 406 716 353 716 c 0xff
 300 716 262 749 262 795 c 0
 262 841 300 874 353 874 c 0
353 838 m 0
 329 838 312 820 312 795 c 0
 312 770 329 752 353 752 c 0xff
 377 752 394 770 394 795 c 0
 394 820 377 838 353 838 c 0
612 690 m 1
 612 255 l 2
 612 233 612 213 610 193 c 0
 600 78 522 -14 353 -14 c 0
 184 -14 106 78 96 193 c 0
 94 213 94 233 94 255 c 2
 94 690 l 1
 180 690 l 1
 180 263 l 2
 180 241 180 220 182 202 c 0
 190 115 247 54 353 54 c 0
 459 54 516 115 524 202 c 0
 526 220 526 241 526 263 c 2
 526 690 l 1
 612 690 l 1
EndSplineSet
Validated: 1
Position2: "'cpsp' Capital Spacing in Latin lookup 0 subtable" dx=5 dy=0 dh=10 dv=0
EndChar

StartChar: V
Encoding: 86 86 99
Width: 622
GlyphClass: 2
Flags: MW
HStem: 0 65<330 330 330 386 270 330> 670 20G<32 125 125 125 542 634 634 634>
VStem: 32 602<690 690>
LayerCount: 2
Fore
SplineSet
386 0 m 1
 270 0 l 1
 32 690 l 1
 125 690 l 1
 330 65 l 1
 542 690 l 1
 634 690 l 1
 386 0 l 1
EndSplineSet
Validated: 1
Position2: "'cpsp' Capital Spacing in Latin lookup 0 subtable" dx=5 dy=0 dh=10 dv=0
EndChar

StartChar: W
Encoding: 87 87 100
Width: 952
GlyphClass: 2
Flags: MW
HStem: 0 21G<208 322 208 208 640 753 640 640> 0 76<701 701 701 753 640 701> 595 85<484 484> 670 20G<26 124 124 124 854 945 945 945>
VStem: 26 919<690 690>
LayerCount: 2
Fore
SplineSet
945 690 m 1x98
 753 0 l 1
 640 0 l 1
 484 595 l 1xa8
 322 0 l 1
 208 0 l 1
 26 690 l 1
 124 690 l 1x98
 269 77 l 1
 429 680 l 1
 545 680 l 1
 701 76 l 1x68
 854 690 l 1
 945 690 l 1x98
EndSplineSet
Validated: 1
Position2: "'cpsp' Capital Spacing in Latin lookup 0 subtable" dx=5 dy=0 dh=10 dv=0
EndChar

StartChar: Wacute
Encoding: 7810 7810 101
Width: 952
GlyphClass: 2
Flags: MW
HStem: 0 21G<208 322 208 208 640 753 640 640> 0 76<701 701 701 753 640 701> 595 85<484 484> 670 20G<26 124 124 124 854 945 945 945> 736 94<508 510 454 588>
VStem: 26 919<690 690>
LayerCount: 2
Fore
SplineSet
510 736 m 1x9c
 454 736 l 1
 508 830 l 1
 588 830 l 1
 510 736 l 1x9c
945 690 m 1
 753 0 l 1
 640 0 l 1
 484 595 l 1xac
 322 0 l 1
 208 0 l 1
 26 690 l 1
 124 690 l 1x9c
 269 77 l 1
 429 680 l 1
 545 680 l 1
 701 76 l 1x6c
 854 690 l 1
 945 690 l 1
EndSplineSet
Validated: 1
Position2: "'cpsp' Capital Spacing in Latin lookup 0 subtable" dx=5 dy=0 dh=10 dv=0
EndChar

StartChar: Wcircumflex
Encoding: 372 372 102
Width: 952
GlyphClass: 2
Flags: MW
HStem: 0 21G<208 322 208 208 640 753 640 640> 0 76<701 701 701 753 640 701> 595 85<484 484> 670 20G<26 124 124 124 854 945 945 945> 736 94<391 517 391 517 458 517 458 584>
VStem: 26 919<690 690>
LayerCount: 2
Fore
SplineSet
457 736 m 1x9c
 391 736 l 1
 458 830 l 1
 517 830 l 1
 584 736 l 1
 517 736 l 1
 487 791 l 1
 457 736 l 1x9c
945 690 m 1
 753 0 l 1
 640 0 l 1
 484 595 l 1xac
 322 0 l 1
 208 0 l 1
 26 690 l 1
 124 690 l 1x9c
 269 77 l 1
 429 680 l 1
 545 680 l 1
 701 76 l 1x6c
 854 690 l 1
 945 690 l 1
EndSplineSet
Validated: 1
Position2: "'cpsp' Capital Spacing in Latin lookup 0 subtable" dx=5 dy=0 dh=10 dv=0
EndChar

StartChar: Wdieresis
Encoding: 7812 7812 103
Width: 952
GlyphClass: 2
Flags: MW
HStem: 0 21G<208 322 208 208 640 753 640 640> 0 76<701 701 701 753 640 701> 595 85<484 484> 670 20G<26 124 124 124 854 945 945 945> 737 92<404.5 429.5 544.5 569.5>
VStem: 371 92<770.5 795.5> 511 92<770.5 795.5>
LayerCount: 2
Fore
SplineSet
417 737 m 0x9e
 392 737 371 758 371 783 c 0
 371 808 392 829 417 829 c 0
 442 829 463 808 463 783 c 0
 463 758 442 737 417 737 c 0x9e
557 737 m 0
 532 737 511 758 511 783 c 0
 511 808 532 829 557 829 c 0
 582 829 603 808 603 783 c 0
 603 758 582 737 557 737 c 0
945 690 m 1
 753 0 l 1
 640 0 l 1
 484 595 l 1xae
 322 0 l 1
 208 0 l 1
 26 690 l 1
 124 690 l 1x9e
 269 77 l 1
 429 680 l 1
 545 680 l 1
 701 76 l 1x6e
 854 690 l 1
 945 690 l 1
EndSplineSet
Validated: 1
Position2: "'cpsp' Capital Spacing in Latin lookup 0 subtable" dx=5 dy=0 dh=10 dv=0
EndChar

StartChar: Wgrave
Encoding: 7808 7808 104
Width: 952
GlyphClass: 2
Flags: MW
HStem: 0 21G<208 322 208 208 640 753 640 640> 0 76<701 701 701 753 640 701> 595 85<484 484> 670 20G<26 124 124 124 854 945 945 945> 736 94<463 463 463 465 385 519>
VStem: 26 919<690 690>
LayerCount: 2
Fore
SplineSet
463 736 m 1x9c
 385 830 l 1
 465 830 l 1
 519 736 l 1
 463 736 l 1x9c
945 690 m 1
 753 0 l 1
 640 0 l 1
 484 595 l 1xac
 322 0 l 1
 208 0 l 1
 26 690 l 1
 124 690 l 1x9c
 269 77 l 1
 429 680 l 1
 545 680 l 1
 701 76 l 1x6c
 854 690 l 1
 945 690 l 1
EndSplineSet
Validated: 1
Position2: "'cpsp' Capital Spacing in Latin lookup 0 subtable" dx=5 dy=0 dh=10 dv=0
EndChar

StartChar: X
Encoding: 88 88 105
Width: 625
GlyphClass: 2
Flags: HMW
HStem: 0 21G<25 124 25 25 522 623 522 522> 670 20G<43 141 141 141 514 613 613 613>
VStem: 25 598<0 0>
LayerCount: 2
Fore
SplineSet
522 0 m 1
 320 288 l 1
 124 0 l 1
 25 0 l 1
 261 348 l 1
 43 690 l 1
 141 690 l 1
 324 412 l 1
 514 690 l 1
 613 690 l 1
 383 351 l 1
 623 0 l 1
 522 0 l 1
EndSplineSet
Validated: 1
Position2: "'cpsp' Capital Spacing in Latin lookup 0 subtable" dx=5 dy=0 dh=10 dv=0
EndChar

StartChar: Y
Encoding: 89 89 106
Width: 581
GlyphClass: 2
Flags: MW
HStem: 0 21G<263 349 263 263> 670 20G<19 118 118 118 496 593 593 593>
VStem: 263 86<0 272 0 272>
LayerCount: 2
Fore
SplineSet
349 272 m 1
 349 0 l 1
 263 0 l 1
 263 272 l 1
 19 690 l 1
 118 690 l 1
 310 355 l 1
 496 690 l 1
 593 690 l 1
 349 272 l 1
EndSplineSet
Validated: 1
Position2: "'cpsp' Capital Spacing in Latin lookup 0 subtable" dx=5 dy=0 dh=10 dv=0
EndChar

StartChar: Yacute
Encoding: 221 221 107
Width: 581
GlyphClass: 2
Flags: MW
HStem: 0 21G<263 349 263 263> 670 20G<19 118 118 118 496 593 593 593> 736 94<327 329 273 407>
VStem: 263 86<0 272 0 272>
LayerCount: 2
Fore
SplineSet
329 736 m 1
 273 736 l 1
 327 830 l 1
 407 830 l 1
 329 736 l 1
349 272 m 1
 349 0 l 1
 263 0 l 1
 263 272 l 1
 19 690 l 1
 118 690 l 1
 310 355 l 1
 496 690 l 1
 593 690 l 1
 349 272 l 1
EndSplineSet
Validated: 1
Position2: "'cpsp' Capital Spacing in Latin lookup 0 subtable" dx=5 dy=0 dh=10 dv=0
EndChar

StartChar: Ycircumflex
Encoding: 374 374 108
Width: 581
GlyphClass: 2
Flags: MW
HStem: 0 21G<263 349 263 263> 670 20G<19 118 118 118 496 593 593 593> 736 94<210 336 210 336 277 336 277 403>
VStem: 263 86<0 272 0 272>
LayerCount: 2
Fore
SplineSet
276 736 m 1
 210 736 l 1
 277 830 l 1
 336 830 l 1
 403 736 l 1
 336 736 l 1
 306 791 l 1
 276 736 l 1
349 272 m 1
 349 0 l 1
 263 0 l 1
 263 272 l 1
 19 690 l 1
 118 690 l 1
 310 355 l 1
 496 690 l 1
 593 690 l 1
 349 272 l 1
EndSplineSet
Validated: 1
Position2: "'cpsp' Capital Spacing in Latin lookup 0 subtable" dx=5 dy=0 dh=10 dv=0
EndChar

StartChar: Ydieresis
Encoding: 376 376 109
Width: 581
GlyphClass: 2
Flags: MW
HStem: 0 21G<263 349 263 263> 670 20G<19 118 118 118 496 593 593 593> 737 92<223.5 248.5 363.5 388.5>
VStem: 190 92<770.5 795.5> 263 86<0 272 0 272> 330 92<770.5 795.5>
LayerCount: 2
Fore
SplineSet
236 737 m 0xf4
 211 737 190 758 190 783 c 0
 190 808 211 829 236 829 c 0
 261 829 282 808 282 783 c 0
 282 758 261 737 236 737 c 0xf4
376 737 m 0
 351 737 330 758 330 783 c 0
 330 808 351 829 376 829 c 0
 401 829 422 808 422 783 c 0
 422 758 401 737 376 737 c 0
349 272 m 1xe8
 349 0 l 1
 263 0 l 1
 263 272 l 1
 19 690 l 1
 118 690 l 1
 310 355 l 1
 496 690 l 1
 593 690 l 1
 349 272 l 1xe8
EndSplineSet
Validated: 1
Position2: "'cpsp' Capital Spacing in Latin lookup 0 subtable" dx=5 dy=0 dh=10 dv=0
EndChar

StartChar: Ygrave
Encoding: 7922 7922 110
Width: 581
GlyphClass: 2
Flags: MW
HStem: 0 21G<263 349 263 263> 670 20G<19 118 118 118 496 593 593 593> 736 94<282 282 282 284 204 338>
VStem: 263 86<0 272 0 272>
LayerCount: 2
Fore
SplineSet
282 736 m 1
 204 830 l 1
 284 830 l 1
 338 736 l 1
 282 736 l 1
349 272 m 1
 349 0 l 1
 263 0 l 1
 263 272 l 1
 19 690 l 1
 118 690 l 1
 310 355 l 1
 496 690 l 1
 593 690 l 1
 349 272 l 1
EndSplineSet
Validated: 1
Position2: "'cpsp' Capital Spacing in Latin lookup 0 subtable" dx=5 dy=0 dh=10 dv=0
EndChar

StartChar: Z
Encoding: 90 90 111
Width: 591
GlyphClass: 2
Flags: MW
HStem: 0 70<148 569 148 569> 620 70<74 463 74 563>
VStem: 46 523<0 66 66 66>
LayerCount: 2
Fore
SplineSet
569 70 m 1
 569 0 l 1
 46 0 l 1
 46 66 l 1
 463 620 l 1
 74 620 l 1
 74 690 l 1
 563 690 l 1
 563 621 l 1
 148 70 l 1
 569 70 l 1
EndSplineSet
Validated: 1
Position2: "'cpsp' Capital Spacing in Latin lookup 0 subtable" dx=5 dy=0 dh=10 dv=0
EndChar

StartChar: Zacute
Encoding: 377 377 112
Width: 591
GlyphClass: 2
Flags: MW
HStem: 0 70<148 569 148 569> 620 70<74 463 74 563> 736 94<327 329 273 407>
VStem: 46 523<0 66 66 66>
LayerCount: 2
Fore
SplineSet
329 736 m 1
 273 736 l 1
 327 830 l 1
 407 830 l 1
 329 736 l 1
569 70 m 1
 569 0 l 1
 46 0 l 1
 46 66 l 1
 463 620 l 1
 74 620 l 1
 74 690 l 1
 563 690 l 1
 563 621 l 1
 148 70 l 1
 569 70 l 1
EndSplineSet
Validated: 1
Position2: "'cpsp' Capital Spacing in Latin lookup 0 subtable" dx=5 dy=0 dh=10 dv=0
EndChar

StartChar: Zcaron
Encoding: 381 381 113
Width: 591
GlyphClass: 2
Flags: MW
HStem: 0 70<148 569 148 569> 620 70<74 463 74 563> 736 94<210 277 210 336>
VStem: 46 523<0 66 66 66>
LayerCount: 2
Fore
SplineSet
277 736 m 1
 210 830 l 1
 277 830 l 1
 307 775 l 1
 337 830 l 1
 403 830 l 1
 336 736 l 1
 277 736 l 1
569 70 m 1
 569 0 l 1
 46 0 l 1
 46 66 l 1
 463 620 l 1
 74 620 l 1
 74 690 l 1
 563 690 l 1
 563 621 l 1
 148 70 l 1
 569 70 l 1
EndSplineSet
Validated: 1
Position2: "'cpsp' Capital Spacing in Latin lookup 0 subtable" dx=5 dy=0 dh=10 dv=0
EndChar

StartChar: Zdotaccent
Encoding: 379 379 114
Width: 591
GlyphClass: 2
Flags: MW
HStem: 0 70<148 569 148 569> 620 70<74 463 74 563> 737 92<293.5 318.5>
VStem: 260 92<770.5 795.5>
LayerCount: 2
Fore
SplineSet
306 737 m 0
 281 737 260 758 260 783 c 0
 260 808 281 829 306 829 c 0
 331 829 352 808 352 783 c 0
 352 758 331 737 306 737 c 0
569 70 m 1
 569 0 l 1
 46 0 l 1
 46 66 l 1
 463 620 l 1
 74 620 l 1
 74 690 l 1
 563 690 l 1
 563 621 l 1
 148 70 l 1
 569 70 l 1
EndSplineSet
Validated: 1
Position2: "'cpsp' Capital Spacing in Latin lookup 0 subtable" dx=5 dy=0 dh=10 dv=0
EndChar

StartChar: a
Encoding: 97 97 115
Width: 487
GlyphClass: 2
Flags: HMW
HStem: -14 66<203.5 232.5> 0 21G<378 378 378 464> 257.13 61.87 478 66<227 298.5>
VStem: 36 94<112 189.5 112 197> 368 86<201 255 255 255 319 333 333 334>
LayerCount: 2
Fore
SplineSet
368.5 0 m 1x7c
 369 76 l 1
 349 0 258 -14 207 -14 c 0xbc
 111 -14 36 34 36 137 c 0
 36 210.006848994 88 318 296 318 c 2
 296 318 347 316 368 349 c 1
 368 363 l 2
 368 386 367.635356151 376.966887155 366 397 c 0
 362 446 316 473 245 473 c 0
 173 473 135 429 129 356 c 1
 39 356 l 1
 47 469 126 544 243 544 c 0
 369 544 442 491 451 404 c 0
 453 383 454 357 454 334 c 2
 454 135 l 2
 454 0 l 1
 368.5 0 l 1x7c
236 52 m 0xbc
 316 52 368 105 368 201 c 2
 368 265 l 1
 344 247 297 244 280 244 c 0
 201 244 130 223 130 144 c 0
 130 80 171 52 236 52 c 0xbc
EndSplineSet
EndChar

StartChar: aacute
Encoding: 225 225 116
Width: 531
GlyphClass: 2
Flags: HMW
HStem: -14 66<203.5 232.5> 0 21G<378 378 378 464> 257.13 61.87 478 66<227 298.5> 580 110<230 371 230 371>
VStem: 36 94<112 189.5 112 197> 368 86<201 255 255 255 319 333 333 334>
LayerCount: 2
Fore
SplineSet
286 580 m 1xbe
 230 580 l 1
 291 690 l 1
 371 690 l 1
 286 580 l 1xbe
378 0 m 1x7e
 369 76 l 1x7e
 340 19 l 1
 304 -6 258 -14 207 -14 c 0xbe
 111 -14 36 39 36 137 c 0
 36 257 126 319 334 319 c 2
 368 319 l 1
 368 333 l 2
 368 356 368 377 366 397 c 0
 362 446 334 478 263 478 c 0
 191 478 155 439 149 366 c 1
 59 366 l 1
 67 479 146 544 263 544 c 0
 389 544 442 491 451 404 c 0
 453 383 454 357 454 334 c 2
 454 135 l 2
 454 95 456 59 464 0 c 1
 378 0 l 1x7e
236 52 m 0xbe
 316 52 368 105 368 201 c 2
 368 255 l 1
 349 256 332 257 315 257 c 0
 200 257 130 223 130 144 c 0
 130 80 171 52 236 52 c 0xbe
EndSplineSet
Validated: 1
EndChar

StartChar: abreve
Encoding: 259 259 117
Width: 531
GlyphClass: 2
Flags: HMW
HStem: -14 66<203.5 232.5> 0 21G<378 378 378 464> 257.13 61.87 478 66<227 298.5> 566 55<249.5 278.5 249.5 299.5> 566 124<162 299.5>
VStem: 36 94<112 189.5 112 197> 162 53<648.5 690> 313 53<648.5 690> 368 86<201 255 255 255 319 333 333 334>
LayerCount: 2
Fore
SplineSet
264 566 m 0xb780
 192 566 162 607 162 690 c 1
 215 690 l 1xb740
 216 638 235 621 264 621 c 0xbb80
 293 621 312 638 313 690 c 1
 366 690 l 1
 366 607 335 566 264 566 c 0xb780
378 0 m 1x7340
 369 76 l 1x7340
 340 19 l 1
 304 -6 258 -14 207 -14 c 0xb340
 111 -14 36 39 36 137 c 0
 36 257 126 319 334 319 c 2
 368 319 l 1
 368 333 l 2
 368 356 368 377 366 397 c 0
 362 446 334 478 263 478 c 0
 191 478 155 439 149 366 c 1
 59 366 l 1
 67 479 146 544 263 544 c 0
 389 544 442 491 451 404 c 0
 453 383 454 357 454 334 c 2
 454 135 l 2
 454 95 456 59 464 0 c 1
 378 0 l 1x7340
236 52 m 0xb340
 316 52 368 105 368 201 c 2
 368 255 l 1
 349 256 332 257 315 257 c 0
 200 257 130 223 130 144 c 0
 130 80 171 52 236 52 c 0xb340
EndSplineSet
Validated: 1
EndChar

StartChar: acircumflex
Encoding: 226 226 118
Width: 531
GlyphClass: 2
Flags: HMW
HStem: -14 66<203.5 232.5> 0 21G<378 378 378 464> 257.13 61.87 478 66<227 298.5> 580 110<168 294 168 294 235 297 235 361> 643 47<264 264>
VStem: 36 94<112 189.5 112 197> 368 86<201 255 255 255 319 333 333 334>
LayerCount: 2
Fore
SplineSet
231 580 m 1xbb
 168 580 l 1
 235 690 l 1
 294 690 l 1
 361 580 l 1
 297 580 l 1x7b
 264 643 l 1xb7
 231 580 l 1xbb
378 0 m 1
 369 76 l 1x7b
 340 19 l 1
 304 -6 258 -14 207 -14 c 0xbb
 111 -14 36 39 36 137 c 0
 36 257 126 319 334 319 c 2
 368 319 l 1
 368 333 l 2
 368 356 368 377 366 397 c 0
 362 446 334 478 263 478 c 0
 191 478 155 439 149 366 c 1
 59 366 l 1
 67 479 146 544 263 544 c 0
 389 544 442 491 451 404 c 0
 453 383 454 357 454 334 c 2
 454 135 l 2
 454 95 456 59 464 0 c 1
 378 0 l 1
236 52 m 0xbb
 316 52 368 105 368 201 c 2
 368 255 l 1
 349 256 332 257 315 257 c 0
 200 257 130 223 130 144 c 0
 130 80 171 52 236 52 c 0xbb
EndSplineSet
Validated: 1
EndChar

StartChar: adieresis
Encoding: 228 228 119
Width: 531
GlyphClass: 2
Flags: HMW
HStem: -14 66<203.5 232.5> 0 21G<378 378 378 464> 257.13 61.87 478 66<227 298.5> 583 92<178.5 203.5 324.5 349.5>
VStem: 36 94<112 189.5 112 197> 145 92<616.5 641.5> 291 92<616.5 641.5> 368 86<201 255 255 255 319 333 333 334>
LayerCount: 2
Fore
SplineSet
191 583 m 0xbf
 166 583 145 604 145 629 c 0
 145 654 166 675 191 675 c 0
 216 675 237 654 237 629 c 0
 237 604 216 583 191 583 c 0xbf
337 583 m 0
 312 583 291 604 291 629 c 0
 291 654 312 675 337 675 c 0
 362 675 383 654 383 629 c 0
 383 604 362 583 337 583 c 0
378 0 m 1x7480
 369 76 l 1x7480
 340 19 l 1
 304 -6 258 -14 207 -14 c 0xb480
 111 -14 36 39 36 137 c 0
 36 257 126 319 334 319 c 2
 368 319 l 1
 368 333 l 2
 368 356 368 377 366 397 c 0
 362 446 334 478 263 478 c 0
 191 478 155 439 149 366 c 1
 59 366 l 1
 67 479 146 544 263 544 c 0
 389 544 442 491 451 404 c 0
 453 383 454 357 454 334 c 2
 454 135 l 2
 454 95 456 59 464 0 c 1
 378 0 l 1x7480
236 52 m 0xb480
 316 52 368 105 368 201 c 2
 368 255 l 1
 349 256 332 257 315 257 c 0
 200 257 130 223 130 144 c 0
 130 80 171 52 236 52 c 0xb480
EndSplineSet
Validated: 1
EndChar

StartChar: agrave
Encoding: 224 224 120
Width: 531
GlyphClass: 2
Flags: HMW
HStem: -14 66<203.5 232.5> 0 21G<378 378 378 464> 257.13 61.87 478 66<227 298.5> 580 110<155 240 155 296>
VStem: 36 94<112 189.5 112 197> 368 86<201 255 255 255 319 333 333 334>
LayerCount: 2
Fore
SplineSet
240 580 m 1xbe
 155 690 l 1
 235 690 l 1
 296 580 l 1
 240 580 l 1xbe
378 0 m 1x7e
 369 76 l 1x7e
 340 19 l 1
 304 -6 258 -14 207 -14 c 0xbe
 111 -14 36 39 36 137 c 0
 36 257 126 319 334 319 c 2
 368 319 l 1
 368 333 l 2
 368 356 368 377 366 397 c 0
 362 446 334 478 263 478 c 0
 191 478 155 439 149 366 c 1
 59 366 l 1
 67 479 146 544 263 544 c 0
 389 544 442 491 451 404 c 0
 453 383 454 357 454 334 c 2
 454 135 l 2
 454 95 456 59 464 0 c 1
 378 0 l 1x7e
236 52 m 0xbe
 316 52 368 105 368 201 c 2
 368 255 l 1
 349 256 332 257 315 257 c 0
 200 257 130 223 130 144 c 0
 130 80 171 52 236 52 c 0xbe
EndSplineSet
Validated: 1
EndChar

StartChar: amacron
Encoding: 257 257 121
Width: 531
GlyphClass: 2
Flags: HMW
HStem: -14 66<203.5 232.5> 0 21G<378 378 378 464> 257.13 61.87 478 66<227 298.5> 604 52<144 384 144 384>
VStem: 36 94<112 189.5 112 197> 144 240<604 656 604 656> 368 86<201 255 255 255 319 333 333 334>
LayerCount: 2
Fore
SplineSet
384 604 m 1xbe
 144 604 l 1
 144 656 l 1
 384 656 l 1
 384 604 l 1xbe
378 0 m 1x7d
 369 76 l 1x7d
 340 19 l 1
 304 -6 258 -14 207 -14 c 0xbd
 111 -14 36 39 36 137 c 0
 36 257 126 319 334 319 c 2
 368 319 l 1
 368 333 l 2
 368 356 368 377 366 397 c 0
 362 446 334 478 263 478 c 0
 191 478 155 439 149 366 c 1
 59 366 l 1
 67 479 146 544 263 544 c 0
 389 544 442 491 451 404 c 0
 453 383 454 357 454 334 c 2
 454 135 l 2
 454 95 456 59 464 0 c 1
 378 0 l 1x7d
236 52 m 0xbd
 316 52 368 105 368 201 c 2
 368 255 l 1
 349 256 332 257 315 257 c 0
 200 257 130 223 130 144 c 0
 130 80 171 52 236 52 c 0xbd
EndSplineSet
Validated: 1
EndChar

StartChar: aogonek
Encoding: 261 261 122
Width: 531
GlyphClass: 2
Flags: HMW
HStem: -223 54<330.5 401> -14 66<203.5 232.5> 0 21G<441 464 441 441> 257.13 61.87 478 66<227 298.5>
VStem: 36 94<112 189.5 112 197> 265 82<-137.5 -100.5> 368 86<201 255 255 255 319 333 333 334>
LayerCount: 2
Fore
SplineSet
347 -119 m 0xbf
 347 -156 362 -169 391 -169 c 0
 411 -169 429 -163 447 -149 c 1
 447 -198 l 1
 422 -215 391 -223 358 -223 c 0
 303 -223 265 -201 265 -138 c 0
 265 -63 318 -12 377 11 c 1
 369 76 l 1
 340 19 l 1
 304 -6 258 -14 207 -14 c 0xdf
 111 -14 36 39 36 137 c 0
 36 257 126 319 334 319 c 2
 368 319 l 1
 368 333 l 2
 368 356 368 377 366 397 c 0
 362 446 334 478 263 478 c 0
 191 478 155 439 149 366 c 1
 59 366 l 1
 67 479 146 544 263 544 c 0
 389 544 442 491 451 404 c 0
 453 383 454 357 454 334 c 2
 454 135 l 2
 454 95 456 59 464 0 c 1x3d
 441 0 l 1
 390 -9 347 -56 347 -119 c 0xbf
236 52 m 0x5d
 316 52 368 105 368 201 c 2
 368 255 l 1
 349 256 332 257 315 257 c 0
 200 257 130 223 130 144 c 0
 130 80 171 52 236 52 c 0x5d
EndSplineSet
Validated: 1
EndChar

StartChar: aring
Encoding: 229 229 123
Width: 531
GlyphClass: 2
Flags: HMW
HStem: -14 66<203.5 232.5> 0 21G<378 378 378 464> 257.13 61.87 478 66<227 298.5> 565 36<252 276 252 290.5> 697 36<252 276>
VStem: 36 94<112 189.5 112 197> 173 50<634 664 634 673.5> 305 50<634 664> 368 86<201 255 255 255 319 333 333 334>
LayerCount: 2
Fore
SplineSet
264 565 m 0xbfc0
 211 565 173 600 173 649 c 0
 173 698 211 733 264 733 c 0
 317 733 355 698 355 649 c 0
 355 600 317 565 264 565 c 0xbfc0
264 697 m 0
 240 697 223 679 223 649 c 0
 223 619 240 601 264 601 c 0
 288 601 305 619 305 649 c 0
 305 679 288 697 264 697 c 0
378 0 m 1x7740
 369 76 l 1x7740
 340 19 l 1
 304 -6 258 -14 207 -14 c 0xb740
 111 -14 36 39 36 137 c 0
 36 257 126 319 334 319 c 2
 368 319 l 1
 368 333 l 2
 368 356 368 377 366 397 c 0
 362 446 334 478 263 478 c 0
 191 478 155 439 149 366 c 1
 59 366 l 1
 67 479 146 544 263 544 c 0
 389 544 442 491 451 404 c 0
 453 383 454 357 454 334 c 2
 454 135 l 2
 454 95 456 59 464 0 c 1
 378 0 l 1x7740
236 52 m 0xb740
 316 52 368 105 368 201 c 2
 368 255 l 1
 349 256 332 257 315 257 c 0
 200 257 130 223 130 144 c 0
 130 80 171 52 236 52 c 0xb740
EndSplineSet
Validated: 1
EndChar

StartChar: atilde
Encoding: 227 227 124
Width: 531
GlyphClass: 2
Flags: HMW
HStem: -14 66<203.5 232.5> 0 21G<378 378 378 464> 257.13 61.87 478 66<227 298.5> 596 71<332 334> 600 71<194 196 158 219.5>
VStem: 36 94<112 189.5 112 197> 158 38<600 607.5 600 628> 332 38<659.5 667> 368 86<201 255 255 255 319 333 333 334>
LayerCount: 2
Fore
SplineSet
212 620 m 0xb740
 202 620 196 615 196 600 c 1
 158 600 l 1
 158 656 178 671 210 671 c 0xb740
 229 671 245 667 272 658 c 0
 296 650 307 647 316 647 c 0
 326 647 332 652 332 667 c 1
 370 667 l 1
 370 611 350 596 318 596 c 0xba80
 299 596 283 600 256 609 c 0
 232 617 221 620 212 620 c 0xb740
378 0 m 1x7240
 369 76 l 1x7240
 340 19 l 1
 304 -6 258 -14 207 -14 c 0xb240
 111 -14 36 39 36 137 c 0
 36 257 126 319 334 319 c 2
 368 319 l 1
 368 333 l 2
 368 356 368 377 366 397 c 0
 362 446 334 478 263 478 c 0
 191 478 155 439 149 366 c 1
 59 366 l 1
 67 479 146 544 263 544 c 0
 389 544 442 491 451 404 c 0
 453 383 454 357 454 334 c 2
 454 135 l 2
 454 95 456 59 464 0 c 1
 378 0 l 1x7240
236 52 m 0xb240
 316 52 368 105 368 201 c 2
 368 255 l 1
 349 256 332 257 315 257 c 0
 200 257 130 223 130 144 c 0
 130 80 171 52 236 52 c 0xb240
EndSplineSet
Validated: 1
EndChar

StartChar: ae
Encoding: 230 230 125
Width: 888
GlyphClass: 2
Flags: HMW
HStem: -14 66<203.5 244.5 575 648.5> 239 66<344 378 464 761> 478 66<225.5 304.5 580 662.5>
VStem: 36 94<112 187 112 197> 378 86<209 239 239 239 239 333> 761 87<305 305>
LayerCount: 2
Fore
SplineSet
848 280 m 0
 848 272 848 258 846 239 c 1
 464 239 l 1
 472 107 536 52 614 52 c 0
 683 52 739 95 751 171 c 1
 841 171 l 1
 820 43 719 -14 610 -14 c 0
 526 -14 453 17 411 101 c 1
 384 47 l 1
 331 1 275 -14 214 -14 c 0
 118 -14 36 39 36 137 c 0
 36 257 136 305 344 305 c 2
 378 305 l 1
 378 333 l 2
 378 421 346 478 263 478 c 0
 188 478 152 439 149 366 c 1
 59 366 l 1
 62 479 139 544 263 544 c 0
 361 544 414 510 439 448 c 1
 479 509 539 544 621 544 c 0
 767 544 848 435 848 280 c 0
464 305 m 1
 761 305 l 1
 752 415 706 478 619 478 c 0
 534 478 475 418 464 305 c 1
378 209 m 2
 378 239 l 1
 359 240 340 240 323 240 c 0
 201 240 130 219 130 144 c 0
 130 80 171 52 236 52 c 0
 316 52 378 113 378 209 c 2
EndSplineSet
Validated: 1
EndChar

StartChar: b
Encoding: 98 98 126
Width: 572
GlyphClass: 2
Flags: HMW
HStem: -14 66<260 328.5 244 350.5> 0 21G 478 66<273 340> 715 20G<34 120 120 120>
VStem: 34 86<0 73 172.5 241 241 270 445 735> 447 94<193.5 323>
LayerCount: 2
Fore
SplineSet
463 248 m 0
 467.768774077 157.376192533 398.66061474 73.2902854816 304 66 c 0
 204.29525259 58.3212407347 120 156 119 248 c 0
 118.010742188 339 191 430 291 430 c 0
 391 430 457.745105693 347.861834981 463 248 c 0
33 736 m 1xbc
 33 125 l 1
 33 1 l 1
 119 1 l 1x7c
 119 96 l 1
 155 30 224.864257812 -11.458984375 306 -9 c 0
 437.943359375 -5.0009765625 556 111.666809082 556 254 c 0
 556 440.913588578 402.16796875 515.689453125 291 518 c 0
 220.747070312 519.459960938 165.099609375 489.375 119 451 c 1
 119 736 l 1
 33 736 l 1xbc
EndSplineSet
EndChar

StartChar: c
Encoding: 99 99 127
Width: 517
GlyphClass: 2
Flags: HMW
HStem: -14 66<223.5 298 223.5 317> 478 66<227.5 304.5>
VStem: 22 94<193 341.5 193 353.5>
AnchorPoint: "Anchor-0" 255 0 basechar 0
LayerCount: 2
Fore
SplineSet
275 544 m 0
 412 549 509 440 516 323 c 1
 426 323 l 1
 416 412 359.02325267 456 273 456 c 0
 196 456 107.893964418 395.001651584 106 270 c 0
 104 138 188 72 267 72 c 0
 337 72 421 118 428 209 c 1
 518 209 l 1
 517 84 388.554885137 -20.1611366807 262 -14 c 0
 137.147867499 -7.92175930327 13 89 12 264 c 0
 11.0571409348 429.000336414 142.08848852 539.149214909 275 544 c 0
EndSplineSet
EndChar

StartChar: cacute
Encoding: 263 263 128
Width: 529
GlyphClass: 2
Flags: MW
HStem: -14 66<231.5 306 231.5 325> 478 66<235.5 312.5> 580 110<235 376 235 376>
VStem: 30 94<193 341.5 193 353.5>
AnchorPoint: "Anchor-0" 259 0 basechar 0
LayerCount: 2
Fore
SplineSet
291 580 m 1
 235 580 l 1
 296 690 l 1
 376 690 l 1
 291 580 l 1
279 544 m 0
 406 544 487 468 503 352 c 1
 413 352 l 1
 394 437 348 478 277 478 c 0
 194 478 124 413 124 270 c 0
 124 116 192 52 271 52 c 0
 341 52 390 92 408 169 c 1
 498 169 l 1
 472 46 384 -14 266 -14 c 0
 132 -14 30 70 30 264 c 0
 30 443 146 544 279 544 c 0
EndSplineSet
Validated: 1
EndChar

StartChar: ccaron
Encoding: 269 269 129
Width: 529
GlyphClass: 2
Flags: MW
HStem: -14 66<231.5 306 231.5 325> 478 66<235.5 312.5> 580 110<173 240 173 299>
VStem: 30 94<193 341.5 193 353.5>
AnchorPoint: "Anchor-0" 259 0 basechar 0
LayerCount: 2
Fore
SplineSet
240 580 m 1
 173 690 l 1
 237 690 l 1
 270 627 l 1
 303 690 l 1
 366 690 l 1
 299 580 l 1
 240 580 l 1
271 52 m 0
 341 52 390 92 408 169 c 1
 498 169 l 1
 472 46 384 -14 266 -14 c 0
 132 -14 30 70 30 264 c 0
 30 443 146 544 279 544 c 0
 406 544 487 468 503 352 c 1
 413 352 l 1
 394 437 348 478 277 478 c 0
 194 478 124 413 124 270 c 0
 124 116 192 52 271 52 c 0
EndSplineSet
Validated: 1
EndChar

StartChar: ccedilla
Encoding: 231 231 130
Width: 529
GlyphClass: 2
Flags: HMW
HStem: -210 42<217.5 248.5 217.5 261.5> -78 130<194 306> -12 64<230 306> 478 66<235.5 312.5>
VStem: 30 94<193 341.5 193 353.5> 290 58<-137.5 -107>
AnchorPoint: "Anchor-0" 259 0 basechar 0
LayerCount: 2
Fore
SplineSet
271 52 m 0xbc
 341 52 390 92 408 169 c 1
 498 169 l 1
 473 51 392 -9 281 -14 c 1
 267 -40 l 1
 320 -47 348 -76 348 -123 c 0
 348 -179 298 -210 225 -210 c 0
 207 -210 189 -207 175 -201 c 1
 175 -157 l 1
 190 -165 207 -168 228 -168 c 0
 269 -168 290 -151 290 -124 c 0
 290 -94 269 -77 216 -77 c 0
 209 -77 202 -77 194 -78 c 1xdc
 230 -12 l 1
 114 2 30 88 30 264 c 0
 30 443 146 544 279 544 c 0
 406 544 487 468 503 352 c 1
 413 352 l 1
 394 437 348 478 277 478 c 0
 194 478 124 413 124 270 c 0
 124 116 192 52 271 52 c 0xbc
EndSplineSet
Validated: 1
EndChar

StartChar: cdotaccent
Encoding: 267 267 131
Width: 529
GlyphClass: 2
Flags: MW
HStem: -14 66<231.5 306 231.5 325> 478 66<235.5 312.5> 594 110<253.5 284.5>
VStem: 30 94<193 341.5 193 353.5> 214 110<633.5 664.5>
AnchorPoint: "Anchor-0" 259 0 basechar 0
LayerCount: 2
Fore
SplineSet
269 704 m 0
 300 704 324 680 324 649 c 0
 324 618 300 594 269 594 c 0
 238 594 214 618 214 649 c 0
 214 680 238 704 269 704 c 0
279 544 m 0
 406 544 487 468 503 352 c 1
 413 352 l 1
 394 437 348 478 277 478 c 0
 194 478 124 413 124 270 c 0
 124 116 192 52 271 52 c 0
 341 52 390 92 408 169 c 1
 498 169 l 1
 472 46 384 -14 266 -14 c 0
 132 -14 30 70 30 264 c 0
 30 443 146 544 279 544 c 0
EndSplineSet
Validated: 1
EndChar

StartChar: d
Encoding: 100 100 132
Width: 561
GlyphClass: 2
Flags: HW
HStem: -14 76<188.281 373.711> 0 21G<461.159 545> 461 76<189.251 362.336> 715 20G<449 535>
VStem: 18 84<153.957 370.132> 449 86<1.45169 95.667 140.051 370.579 477 735>
LayerCount: 2
Fore
SplineSet
105 247 m 4
 105 147 177 65 277 65 c 4
 377 65 448 155 449 247 c 4
 449.989257812 338 377 429 277 429 c 4
 177 429 105 347 105 247 c 4
535 735 m 5xbc
 535 124 l 5
 535 0 l 5
 449 0 l 5x7c
 449 95 l 5
 413 29 343.135742188 -12.458984375 262 -10 c 4
 130.056640625 -6.0009765625 4.1943359375 106.875 12 253 c 4
 21.970703125 439.647460938 165.83203125 514.689453125 277 517 c 4
 347.252929688 518.459960938 402.900390625 488.375 449 450 c 5
 449 735 l 5
 535 735 l 5xbc
EndSplineSet
EndChar

StartChar: eth
Encoding: 240 240 133
Width: 585
GlyphClass: 2
Flags: MW
HStem: -14 66<230 327 230 345.5> 478 66<235.5 296.5 208.5 320> 670 20G<241 241> 725 20G<295 295>
VStem: 30 94<201 329.5 201 347> 444 94<260 289 289 357.5>
LayerCount: 2
Fore
SplineSet
483 662 m 1
 441 645 l 1
 510 565 538 455 538 307 c 0
 538 74 414 -14 277 -14 c 0
 112 -14 30 102 30 257 c 0
 30 437 145 544 272 544 c 0
 321 544 352 537 389 515 c 1
 434 455 l 1
 429 521 406 573 366 614 c 1
 228 557 l 1
 208 609 l 1
 317 654 l 1
 294 668 269 680 241 690 c 1
 295 745 l 1
 334 729 368 709 396 687 c 1
 463 714 l 1
 483 662 l 1
444 260 m 2
 444 289 l 2
 444 426 358 478 282 478 c 0
 189 478 124 392 124 267 c 0
 124 135 177 52 283 52 c 0
 371 52 444 117 444 260 c 2
EndSplineSet
Validated: 1
EndChar

StartChar: dcaron
Encoding: 271 271 134
Width: 615
GlyphClass: 2
Flags: MW
HStem: -14 66<231 298> 0 21G<451 537 451 451> 478 66<242.5 311 220.5 327> 591 144<615 624 451 563>
VStem: 30 94<207 336.5 207 355> 451 86<0 85 85 85 260 289 289 357.5 457 735 0 735>
LayerCount: 2
Fore
SplineSet
451 735 m 1xbc
 537 735 l 1
 537 0 l 1
 451 0 l 1
 451 85 l 1x7c
 411 28 l 1
 381 3 325 -14 271 -14 c 0
 116 -14 30 102 30 257 c 0
 30 453 152 544 289 544 c 0
 333 544 389 531 416 509 c 1
 451 457 l 1
 451 735 l 1xbc
684 735 m 1
 684 723 l 1
 624 591 l 1
 563 591 l 1
 615 735 l 1
 684 735 l 1
284 52 m 0xbc
 372 52 451 108 451 260 c 2
 451 289 l 2
 451 426 365 478 289 478 c 0
 196 478 124 406 124 267 c 0
 124 147 178 52 284 52 c 0xbc
EndSplineSet
Validated: 1
EndChar

StartChar: dcroat
Encoding: 273 273 135
Width: 619
GlyphClass: 2
Flags: MW
HStem: -14 66<231 298> 0 21G<451 537 451 451> 478 66<242.5 311 220.5 327> 595 56<335 451 335 451 537 581> 595 140<335 537 335 537 451 581 451 537>
VStem: 30 94<207 336.5 207 355> 451 86<0 85 85 85 260 289 289 357.5 457 595 0 595 651 735>
LayerCount: 2
Fore
SplineSet
581 595 m 1xae
 537 595 l 1
 537 0 l 1
 451 0 l 1
 451 85 l 1x6e
 411 28 l 1
 381 3 325 -14 271 -14 c 0
 116 -14 30 102 30 257 c 0
 30 453 152 544 289 544 c 0
 333 544 389 531 416 509 c 1
 451 457 l 1
 451 595 l 1
 335 595 l 1xae
 335 651 l 1
 451 651 l 1xb6
 451 735 l 1
 537 735 l 1xae
 537 651 l 1
 581 651 l 1xb6
 581 595 l 1xae
284 52 m 0xae
 372 52 451 108 451 260 c 2
 451 289 l 2
 451 426 365 478 289 478 c 0
 196 478 124 406 124 267 c 0
 124 147 178 52 284 52 c 0xae
EndSplineSet
Validated: 1
EndChar

StartChar: e
Encoding: 101 101 136
Width: 558
GlyphClass: 2
Flags: HW
HStem: -14 86<194.317 385.875> 229 76<119 444> 467 77<188.484 365.989>
VStem: 26 93<141.486 229 305 388.328> 433 97<120.698 170> 444 93<305 386.812>
AnchorPoint: "Anchor-0" 9.21493e+06 -47842.3 basechar 0
LayerCount: 2
Fore
SplineSet
534 237 m 0xf4
 534 235 534 234 534 232 c 1
 117 229 l 1
 119 119 228 67 300 69 c 0
 359.985351562 70.666015625 410 95.666809082 433 170 c 1
 530 170 l 1xf8
 518.474871399 59.5494547877 401.871158286 -17.294122923 292 -14 c 0
 291.000449148 -13.970031777 290 -14 289 -14 c 0
 148 -12 24.1970942674 95.6854000063 21 263 c 0
 18 420 132.989572738 542.970726808 274 544 c 0
 411 545 537 444 537 281 c 0
 537 267 536 252 534 237 c 0xf4
276 467 m 0
 199 466 124 402 119 313 c 0
 118.943908672 312.001574358 119 311 119 310 c 1
 444 310 l 1
 444 311 444.011763892 313.000069197 444 314 c 0xf4
 443 399 363.992579788 468.142760776 276 467 c 0
EndSplineSet
EndChar

StartChar: eacute
Encoding: 233 233 137
Width: 549
GlyphClass: 2
Flags: MW
HStem: -14 66<236 309.5 236 325.5> 239 66<124 422 124 507 123 422> 478 66<238 323.5> 580 110<243 384 243 384>
VStem: 30 94<305 305 305 349> 422 87<305 305>
AnchorPoint: "Anchor-0" 268 0 basechar 0
LayerCount: 2
Fore
SplineSet
299 580 m 1
 243 580 l 1
 304 690 l 1
 384 690 l 1
 299 580 l 1
509 280 m 0
 509 272 509 258 507 239 c 1
 123 239 l 1
 131 99 197 52 275 52 c 0
 344 52 400 95 412 171 c 1
 502 171 l 1
 481 43 380 -14 271 -14 c 0
 133 -14 30 76 30 263 c 0
 30 435 137 544 282 544 c 0
 428 544 509 435 509 280 c 0
280 478 m 0
 196 478 134 418 124 305 c 1
 422 305 l 1
 414 415 367 478 280 478 c 0
EndSplineSet
Validated: 1
EndChar

StartChar: ecaron
Encoding: 283 283 138
Width: 549
GlyphClass: 2
Flags: MW
HStem: -14 66<236 309.5 236 325.5> 239 66<124 422 124 507 123 422> 478 66<238 323.5> 580 110<181 248 181 307>
VStem: 30 94<305 305 305 349> 422 87<305 305>
AnchorPoint: "Anchor-0" 268 0 basechar 0
LayerCount: 2
Fore
SplineSet
248 580 m 1
 181 690 l 1
 245 690 l 1
 278 627 l 1
 311 690 l 1
 374 690 l 1
 307 580 l 1
 248 580 l 1
509 280 m 0
 509 272 509 258 507 239 c 1
 123 239 l 1
 131 99 197 52 275 52 c 0
 344 52 400 95 412 171 c 1
 502 171 l 1
 481 43 380 -14 271 -14 c 0
 133 -14 30 76 30 263 c 0
 30 435 137 544 282 544 c 0
 428 544 509 435 509 280 c 0
280 478 m 0
 196 478 134 418 124 305 c 1
 422 305 l 1
 414 415 367 478 280 478 c 0
EndSplineSet
Validated: 1
EndChar

StartChar: ecircumflex
Encoding: 234 234 139
Width: 549
GlyphClass: 2
Flags: MW
HStem: -14 66<236 309.5 236 325.5> 239 66<124 422 124 507 123 422> 478 66<238 323.5> 580 110<181 307 181 307 248 310 248 374> 643 47<277 277>
VStem: 30 94<305 305 305 349> 422 87<305 305>
AnchorPoint: "Anchor-0" 268 0 basechar 0
LayerCount: 2
Fore
SplineSet
244 580 m 1xf6
 181 580 l 1
 248 690 l 1
 307 690 l 1
 374 580 l 1
 310 580 l 1xf6
 277 643 l 1xee
 244 580 l 1xf6
509 280 m 0
 509 272 509 258 507 239 c 1
 123 239 l 1
 131 99 197 52 275 52 c 0
 344 52 400 95 412 171 c 1
 502 171 l 1
 481 43 380 -14 271 -14 c 0
 133 -14 30 76 30 263 c 0
 30 435 137 544 282 544 c 0
 428 544 509 435 509 280 c 0
280 478 m 0
 196 478 134 418 124 305 c 1
 422 305 l 1
 414 415 367 478 280 478 c 0
EndSplineSet
Validated: 1
EndChar

StartChar: edieresis
Encoding: 235 235 140
Width: 549
GlyphClass: 2
Flags: MW
HStem: -14 66<236 309.5 236 325.5> 239 66<124 422 124 507 123 422> 478 66<238 323.5> 583 92<191.5 216.5 337.5 362.5>
VStem: 30 94<305 305 305 349> 158 92<616.5 641.5> 304 92<616.5 641.5> 422 87<305 305>
AnchorPoint: "Anchor-0" 268 0 basechar 0
LayerCount: 2
Fore
SplineSet
204 583 m 0
 179 583 158 604 158 629 c 0
 158 654 179 675 204 675 c 0
 229 675 250 654 250 629 c 0
 250 604 229 583 204 583 c 0
350 583 m 0xff
 325 583 304 604 304 629 c 0
 304 654 325 675 350 675 c 0
 375 675 396 654 396 629 c 0
 396 604 375 583 350 583 c 0xff
509 280 m 0xfd
 509 272 509 258 507 239 c 1
 123 239 l 1
 131 99 197 52 275 52 c 0
 344 52 400 95 412 171 c 1
 502 171 l 1
 481 43 380 -14 271 -14 c 0
 133 -14 30 76 30 263 c 0
 30 435 137 544 282 544 c 0
 428 544 509 435 509 280 c 0xfd
280 478 m 0
 196 478 134 418 124 305 c 1
 422 305 l 1
 414 415 367 478 280 478 c 0
EndSplineSet
Validated: 1
EndChar

StartChar: edotaccent
Encoding: 279 279 141
Width: 549
GlyphClass: 2
Flags: MW
HStem: -14 66<236 309.5 236 325.5> 239 66<124 422 124 507 123 422> 478 66<238 323.5> 594 110<261.5 292.5>
VStem: 30 94<305 305 305 349> 222 110<633.5 664.5> 422 87<305 305>
AnchorPoint: "Anchor-0" 268 0 basechar 0
LayerCount: 2
Fore
SplineSet
277 594 m 0
 246 594 222 618 222 649 c 0
 222 680 246 704 277 704 c 0
 308 704 332 680 332 649 c 0
 332 618 308 594 277 594 c 0
509 280 m 0
 509 272 509 258 507 239 c 1
 123 239 l 1
 131 99 197 52 275 52 c 0
 344 52 400 95 412 171 c 1
 502 171 l 1
 481 43 380 -14 271 -14 c 0
 133 -14 30 76 30 263 c 0
 30 435 137 544 282 544 c 0
 428 544 509 435 509 280 c 0
280 478 m 0
 196 478 134 418 124 305 c 1
 422 305 l 1
 414 415 367 478 280 478 c 0
EndSplineSet
Validated: 1
EndChar

StartChar: egrave
Encoding: 232 232 142
Width: 549
GlyphClass: 2
Flags: MW
HStem: -14 66<236 309.5 236 325.5> 239 66<124 422 124 507 123 422> 478 66<238 323.5> 580 110<168 253 168 309>
VStem: 30 94<305 305 305 349> 422 87<305 305>
AnchorPoint: "Anchor-0" 268 0 basechar 0
LayerCount: 2
Fore
SplineSet
253 580 m 1
 168 690 l 1
 248 690 l 1
 309 580 l 1
 253 580 l 1
509 280 m 0
 509 272 509 258 507 239 c 1
 123 239 l 1
 131 99 197 52 275 52 c 0
 344 52 400 95 412 171 c 1
 502 171 l 1
 481 43 380 -14 271 -14 c 0
 133 -14 30 76 30 263 c 0
 30 435 137 544 282 544 c 0
 428 544 509 435 509 280 c 0
280 478 m 0
 196 478 134 418 124 305 c 1
 422 305 l 1
 414 415 367 478 280 478 c 0
EndSplineSet
Validated: 1
EndChar

StartChar: emacron
Encoding: 275 275 143
Width: 549
GlyphClass: 2
Flags: MW
HStem: -14 66<236 309.5 236 325.5> 239 66<124 422 124 507 123 422> 478 66<238 323.5> 604 52<157 397 157 397>
VStem: 30 94<305 305 305 349> 157 240<604 656 604 656> 422 87<305 305>
AnchorPoint: "Anchor-0" 268 0 basechar 0
LayerCount: 2
Fore
SplineSet
397 604 m 1
 157 604 l 1
 157 656 l 1
 397 656 l 1
 397 604 l 1
509 280 m 0xfa
 509 272 509 258 507 239 c 1
 123 239 l 1
 131 99 197 52 275 52 c 0
 344 52 400 95 412 171 c 1
 502 171 l 1
 481 43 380 -14 271 -14 c 0
 133 -14 30 76 30 263 c 0
 30 435 137 544 282 544 c 0
 428 544 509 435 509 280 c 0xfa
280 478 m 0
 196 478 134 418 124 305 c 1
 422 305 l 1
 414 415 367 478 280 478 c 0
EndSplineSet
Validated: 1
EndChar

StartChar: eogonek
Encoding: 281 281 144
Width: 549
GlyphClass: 2
Flags: MW
HStem: -223 54<249.5 320> -13 65 239 66<124 422 124 507 123 422> 478 66<238 323.5>
VStem: 30 94<305 305 305 349> 184 82<-137.5 -110.5> 422 87<305 305>
AnchorPoint: "Anchor-0" 268 0 basechar 0
LayerCount: 2
Fore
SplineSet
509 280 m 0
 509 272 509 258 507 239 c 1
 123 239 l 1
 131 99 197 52 275 52 c 0
 344 52 400 95 412 171 c 1
 502 171 l 1
 487 79 431 24 360 0 c 0
 353 -2 346 -4 339 -6 c 0
 298 -23 266 -65 266 -119 c 0
 266 -156 281 -169 310 -169 c 0
 330 -169 348 -163 366 -149 c 1
 366 -198 l 1
 341 -215 310 -223 277 -223 c 0
 222 -223 184 -201 184 -138 c 0
 184 -83 213 -41 251 -13 c 1
 123 -5 30 85 30 263 c 0
 30 435 137 544 282 544 c 0
 428 544 509 435 509 280 c 0
280 478 m 0
 196 478 134 418 124 305 c 1
 422 305 l 1
 414 415 367 478 280 478 c 0
EndSplineSet
Validated: 1
EndChar

StartChar: f
Encoding: 102 102 145
Width: 290
GlyphClass: 2
Flags: HMW
HStem: 0 21G<78 164 78 78> 460 66<21 78 21 78 164 273> 681.93 67.07
VStem: 78 86<0 460 0 460 526 570 570 578>
LayerCount: 2
Fore
SplineSet
164 547 m 6
 164 537 l 1
 273 537 l 1
 273 461 l 1
 164 461 l 1
 164 0 l 1
 78 0 l 1
 78 461 l 1
 21 461 l 1
 21 537 l 1
 78 537 l 1
 78 539 l 2
 78 632 115.465820312 720.15625 282 719 c 5
 282 629 l 5
 237 629 164 634 164 547 c 6
EndSplineSet
EndChar

StartChar: g
Encoding: 103 103 146
Width: 573
GlyphClass: 2
Flags: HMW
HStem: -210 66<238.5 336.5 238.5 360.5> -14 66<231 298> 478 66<242.5 311 220.5 327> 510 20G<451 537 537 537>
VStem: 30 94<207 336.5 207 355> 47 87<-35 -34> 451 86<76 130 85 130 260 289 289 357.5 457 530>
LayerCount: 2
Fore
SplineSet
547 537 m 1xda
 539.247529045 514.960398021 537 494 537 477 c 1
 537 130 l 2
 537 97 536.2421875 66.0166015625 536 37 c 0
 535 -83 480 -229 293 -230 c 0
 142.002159009 -230.807475086 58 -157 47 -45 c 2
 46 -35 l 1
 123 -35 l 1
 124 -44 l 2xe6
 131 -109 202.00390625 -153.172851562 293 -154 c 0
 403 -155 451 -44 451 96 c 2
 451 105 l 1
 416 43 371.441127538 -14 271 -14 c 0
 116 -14 20 102 20 257 c 0
 20 453 142 544 279 544 c 0
 367.654296875 544 401 528 451 477 c 1xea
 451 498 454 518 461 537 c 1
 547 537 l 1xda
274 62 m 0
 362 62 451 108 451 260 c 2
 451 289 l 2
 451 426 355 458 279 458 c 0
 186 458 108 396 108 257 c 0xea
 108 137 168 62 274 62 c 0
EndSplineSet
EndChar

StartChar: gbreve
Encoding: 287 287 147
Width: 615
GlyphClass: 2
Flags: MW
HStem: -210 66<238.5 336.5 238.5 360.5> -14 66<231 298> 478 66<242.5 311 220.5 327> 510 20G<451 537 537 537> 566 55<288.5 317.5 288.5 338.5> 566 124<201 338.5>
VStem: 30 94<207 336.5 207 355> 47 87<-35 -34> 201 53<648.5 690> 352 53<648.5 690> 451 86<76 130 85 130 260 289 289 357.5 457 530>
LayerCount: 2
Fore
SplineSet
303 566 m 0xe6e0
 231 566 201 607 201 690 c 1
 254 690 l 1xe6e0
 255 638 274 621 303 621 c 0xeae0
 332 621 351 638 352 690 c 1
 405 690 l 1
 405 607 374 566 303 566 c 0xe6e0
537 530 m 1xd2e0
 537 130 l 2
 537 97 537 56 536 27 c 0
 531 -128 437 -210 284 -210 c 0
 133 -210 58 -147 47 -35 c 2
 46 -25 l 1
 133 -25 l 1
 134 -34 l 2xe1e0
 141 -99 193 -144 284 -144 c 0
 389 -144 446 -84 450 18 c 0
 451 43 451 60 451 76 c 2
 451 85 l 1
 411 28 l 1
 381 3 325 -14 271 -14 c 0
 116 -14 30 102 30 257 c 0
 30 453 152 544 289 544 c 0
 333 544 389 531 416 509 c 1
 451 457 l 1xe2e0
 451 530 l 1
 537 530 l 1xd2e0
284 52 m 0
 372 52 451 108 451 260 c 2
 451 289 l 2
 451 426 365 478 289 478 c 0
 196 478 124 406 124 267 c 0xe2e0
 124 147 178 52 284 52 c 0
EndSplineSet
Validated: 1
EndChar

StartChar: gcommaaccent
Encoding: 291 291 148
Width: 615
GlyphClass: 2
Flags: MW
HStem: -210 66<238.5 336.5 238.5 360.5> -14 66<231 298> 478 66<242.5 311 220.5 327> 510 20G<451 537 537 537> 581 144<325 334 265 386>
VStem: 30 94<207 336.5 207 355> 47 87<-35 -34> 451 86<76 130 85 130 260 289 289 357.5 457 530>
LayerCount: 2
Fore
SplineSet
334 581 m 1xed
 265 581 l 1
 265 593 l 1
 325 725 l 1
 386 725 l 1
 334 581 l 1xed
537 530 m 1xdd
 537 130 l 2
 537 97 537 56 536 27 c 0
 531 -128 437 -210 284 -210 c 0
 133 -210 58 -147 47 -35 c 2
 46 -25 l 1
 133 -25 l 1
 134 -34 l 2xeb
 141 -99 193 -144 284 -144 c 0
 389 -144 446 -84 450 18 c 0
 451 43 451 60 451 76 c 2
 451 85 l 1
 411 28 l 1
 381 3 325 -14 271 -14 c 0
 116 -14 30 102 30 257 c 0
 30 453 152 544 289 544 c 0
 333 544 389 531 416 509 c 1
 451 457 l 1xed
 451 530 l 1
 537 530 l 1xdd
284 52 m 0
 372 52 451 108 451 260 c 2
 451 289 l 2
 451 426 365 478 289 478 c 0
 196 478 124 406 124 267 c 0xed
 124 147 178 52 284 52 c 0
EndSplineSet
Validated: 1
EndChar

StartChar: gdotaccent
Encoding: 289 289 149
Width: 615
GlyphClass: 2
Flags: MW
HStem: -210 66<238.5 336.5 238.5 360.5> -14 66<231 298> 478 66<242.5 311 220.5 327> 510 20G<451 537 537 537> 594 110<287.5 318.5>
VStem: 30 94<207 336.5 207 355> 47 87<-35 -34> 248 110<633.5 664.5> 451 86<76 130 85 130 260 289 289 357.5 457 530>
LayerCount: 2
Fore
SplineSet
303 594 m 0xed80
 272 594 248 618 248 649 c 0
 248 680 272 704 303 704 c 0
 334 704 358 680 358 649 c 0
 358 618 334 594 303 594 c 0xed80
537 530 m 1xdd80
 537 130 l 2
 537 97 537 56 536 27 c 0
 531 -128 437 -210 284 -210 c 0
 133 -210 58 -147 47 -35 c 2
 46 -25 l 1
 133 -25 l 1
 134 -34 l 2xeb80
 141 -99 193 -144 284 -144 c 0
 389 -144 446 -84 450 18 c 0
 451 43 451 60 451 76 c 2
 451 85 l 1
 411 28 l 1
 381 3 325 -14 271 -14 c 0
 116 -14 30 102 30 257 c 0
 30 453 152 544 289 544 c 0
 333 544 389 531 416 509 c 1
 451 457 l 1xed80
 451 530 l 1
 537 530 l 1xdd80
284 52 m 0
 372 52 451 108 451 260 c 2
 451 289 l 2
 451 426 365 478 289 478 c 0
 196 478 124 406 124 267 c 0xed80
 124 147 178 52 284 52 c 0
EndSplineSet
Validated: 1
EndChar

StartChar: h
Encoding: 104 104 150
Width: 498
GlyphClass: 2
Flags: HMW
HStem: 0 21G<30 116 30 30 392 478 392 392> 476 68 720 20G<30 116 116 116>
VStem: 30 86<0 233 439 740> 392 86<0 292 292 298 0 305.5>
LayerCount: 2
Fore
SplineSet
476 329 m 0
 476 301.92578125 478 281 478 238 c 2
 478 0 l 1
 392 0 l 1
 392 232 l 2
 392 255.995117188 389.892578125 275.989257812 389.892578125 299.139648438 c 0
 389.892578125 302.0390625 389.92578125 304.98828125 390 308 c 0
 390.096679688 311.921875 390.146484375 315.78515625 390.146484375 319.5859375 c 0
 390.146484375 394.293945312 340.852539062 436.048828125 279 437 c 0
 277.706054688 437 276.419921875 437 275.140625 437 c 0
 172.586914062 437 116 381.76953125 116 203 c 2
 116 0 l 1
 30 0 l 1
 30 719 l 1
 116 719 l 1
 115 448 l 1
 152 511 223 524 277 524 c 0
 393 524 476 436 476 329 c 0
EndSplineSet
Validated: 1
EndChar

StartChar: hbar
Encoding: 295 295 151
Width: 609
GlyphClass: 2
Flags: HMW
HStem: 0 21G<90 176 90 90 452 538 452 452> 476 68 595 56<34 90 34 90 176 280> 595 145<34 176 34 176 90 176 90 280>
VStem: 90 86<0 233 439 595 651 740> 452 86<0 292 292 298 0 305.5>
LayerCount: 2
Fore
SplineSet
536 389 m 0xdc
 538 362 538 341 538 298 c 2
 538 0 l 1
 452 0 l 1
 452 292 l 2
 452 319 452 341 450 368 c 0
 445.100730558 428.750941075 412.358165487 476.060291156 333.897654155 476.060291156 c 0
 332.284480759 476.060291156 330.651981159 476.040292223 329 476 c 0
 246 474 176 414 176 233 c 2
 176 0 l 1
 90 0 l 1
 90 595 l 1
 34 595 l 1xdc
 34 651 l 1
 90 651 l 1xec
 90 740 l 1
 176 740 l 1xdc
 176 651 l 1
 280 651 l 1xec
 280 595 l 1
 176 595 l 1
 176 439 l 1
 209 500 l 1
 254 535 293 544 347 544 c 0
 463 544 528 482 536 389 c 0xdc
EndSplineSet
Validated: 1
EndChar

StartChar: i
Encoding: 105 105 152
Width: 157
GlyphClass: 2
Flags: HMW
HStem: 0 21G<44 130 44 44> 510 20G<44 130 130 130> 594 110<71.5 102.5>
VStem: 32 110<633.5 664.5> 44 86<0 530>
LayerCount: 2
Fore
SplineSet
87 704 m 0xf0
 118 704 142 680 142 649 c 0
 142 618 118 594 87 594 c 0
 56 594 32 618 32 649 c 0
 32 680 56 704 87 704 c 0xf0
130 0 m 1xe8
 44 0 l 1
 44 537 l 1
 130 537 l 1
 130 0 l 1xe8
EndSplineSet
Validated: 1
EndChar

StartChar: dotlessi
Encoding: 305 305 153
Width: 238
GlyphClass: 2
Flags: MW
HStem: 0 21G<74 160 74 74> 510 20G<74 160 160 160>
VStem: 74 86<0 530>
LayerCount: 2
Fore
SplineSet
160 0 m 1
 74 0 l 1
 74 530 l 1
 160 530 l 1
 160 0 l 1
EndSplineSet
Validated: 1
EndChar

StartChar: iacute
Encoding: 237 237 154
Width: 238
GlyphClass: 2
Flags: MW
HStem: 0 21G<74 160 74 74> 510 20G<74 160 160 160> 580 110<83 224 83 224>
VStem: 74 86<0 530>
LayerCount: 2
Fore
SplineSet
139 580 m 1
 83 580 l 1
 144 690 l 1
 224 690 l 1
 139 580 l 1
160 0 m 1
 74 0 l 1
 74 530 l 1
 160 530 l 1
 160 0 l 1
EndSplineSet
Validated: 1
EndChar

StartChar: icircumflex
Encoding: 238 238 155
Width: 238
GlyphClass: 2
Flags: MW
HStem: 0 21G<74 160 74 74> 510 20G<74 160 160 160> 580 110<21 147 21 147 88 150 88 214> 643 47<117 117>
VStem: 74 86<0 530 0 530>
LayerCount: 2
Fore
SplineSet
84 580 m 1xe8
 21 580 l 1
 88 690 l 1
 147 690 l 1
 214 580 l 1
 150 580 l 1xe8
 117 643 l 1xd8
 84 580 l 1xe8
74 530 m 1
 160 530 l 1
 160 0 l 1
 74 0 l 1
 74 530 l 1
EndSplineSet
Validated: 1
EndChar

StartChar: idieresis
Encoding: 239 239 156
Width: 238
GlyphClass: 2
Flags: MW
HStem: 0 21G<74 160 74 74> 510 20G<74 160 160 160> 583 92<31.5 56.5 177.5 202.5>
VStem: -2 92<616.5 641.5> 74 86<0 530> 144 92<616.5 641.5>
LayerCount: 2
Fore
SplineSet
44 675 m 0xf4
 69 675 90 654 90 629 c 0
 90 604 69 583 44 583 c 0
 19 583 -2 604 -2 629 c 0
 -2 654 19 675 44 675 c 0xf4
190 675 m 0
 215 675 236 654 236 629 c 0
 236 604 215 583 190 583 c 0
 165 583 144 604 144 629 c 0
 144 654 165 675 190 675 c 0
160 0 m 1xe8
 74 0 l 1
 74 530 l 1
 160 530 l 1
 160 0 l 1xe8
EndSplineSet
Validated: 1
EndChar

StartChar: igrave
Encoding: 236 236 157
Width: 238
GlyphClass: 2
Flags: MW
HStem: 0 21G<74 160 74 74> 510 20G<74 160 160 160> 580 110<8 149 8 93>
VStem: 74 86<0 530>
LayerCount: 2
Fore
SplineSet
149 580 m 1
 93 580 l 1
 8 690 l 1
 88 690 l 1
 149 580 l 1
160 0 m 1
 74 0 l 1
 74 530 l 1
 160 530 l 1
 160 0 l 1
EndSplineSet
Validated: 1
EndChar

StartChar: ij
Encoding: 307 307 158
Width: 471
GlyphClass: 2
Flags: HMW
HStem: -210 72<225 307> 0 21G<74 160 74 74> 510 20G<74 160 160 160 307 393 393 393> 594 110<101.5 132.5 334.5 365.5>
VStem: 62 110<633.5 664.5> 74 86<0 530> 295 110<633.5 664.5> 307 86<-50 -46 -46 530>
LayerCount: 2
Fore
SplineSet
117 704 m 0xfa
 148 704 172 680 172 649 c 0
 172 618 148 594 117 594 c 0
 86 594 62 618 62 649 c 0
 62 680 86 704 117 704 c 0xfa
350 704 m 0
 381 704 405 680 405 649 c 0
 405 618 381 594 350 594 c 0
 319 594 295 618 295 649 c 0
 295 680 319 704 350 704 c 0
160 0 m 1xf5
 74 0 l 1
 74 530 l 1
 160 530 l 1
 160 0 l 1xf5
393 530 m 1
 393 -46 l 2
 393 -66 392 -92 390 -110 c 0
 383 -174 348 -210 266 -210 c 0
 250 -210 238 -210 225 -208 c 1
 225 -138 l 1
 231.36727064 -138.578842785 237.27886108 -138.862833677 242.76114804 -138.862833677 c 0
 284.634439298 -138.862833677 301.463074228 -122.295406173 305 -94 c 0
 307 -80 307 -65 307 -50 c 2
 307 530 l 1
 393 530 l 1
EndSplineSet
Validated: 1
EndChar

StartChar: imacron
Encoding: 299 299 159
Width: 238
GlyphClass: 2
Flags: MW
HStem: 0 21G<74 160 74 74> 510 20G<74 160 160 160> 604 52<-3 237 -3 237>
VStem: 74 86<0 530>
LayerCount: 2
Fore
SplineSet
237 604 m 1
 -3 604 l 1
 -3 656 l 1
 237 656 l 1
 237 604 l 1
160 0 m 1
 74 0 l 1
 74 530 l 1
 160 530 l 1
 160 0 l 1
EndSplineSet
Validated: 1
EndChar

StartChar: iogonek
Encoding: 303 303 160
Width: 238
GlyphClass: 2
Flags: MW
HStem: -223 54<26.5 97> 0 21G<137 160 137 137> 510 20G<74 160 160 160> 594 110<101.5 132.5>
VStem: -39 82<-137.5 -100> 62 110<633.5 664.5> 74 86<11 530 0 530>
LayerCount: 2
Fore
SplineSet
117 594 m 0xfc
 86 594 62 618 62 649 c 0
 62 680 86 704 117 704 c 0
 148 704 172 680 172 649 c 0
 172 618 148 594 117 594 c 0xfc
74 530 m 1xfa
 160 530 l 1
 160 0 l 1
 137 0 l 1
 86 -9 43 -56 43 -119 c 0
 43 -156 58 -169 87 -169 c 0
 107 -169 125 -163 143 -149 c 1
 143 -198 l 1
 118 -215 87 -223 54 -223 c 0
 -1 -223 -39 -201 -39 -138 c 0
 -39 -62 15 -11 74 11 c 1
 74 530 l 1xfa
EndSplineSet
Validated: 1
EndChar

StartChar: j
Encoding: 106 106 161
Width: 193
GlyphClass: 2
Flags: HMW
HStem: -210 72<-13 69> 510 20G<69 155 155 155> 594 110<96.5 127.5>
VStem: 57 110<633.5 664.5> 69 86<-50 -46 -46 530>
LayerCount: 2
Fore
SplineSet
112 704 m 0xf0
 143 704 167 680 167 649 c 0
 167 618 143 594 112 594 c 0
 81 594 57 618 57 649 c 0
 57 680 81 704 112 704 c 0xf0
155 530 m 1xe8
 155 -46 l 2
 155 -66 154 -92 152 -110 c 0
 145 -174 110 -210 28 -210 c 0
 12 -210 0 -210 -13 -208 c 1
 -13 -138 l 1
 -6.63272936042 -138.578842785 -0.721138920351 -138.862833677 4.7611480398 -138.862833677 c 0
 46.6344392977 -138.862833677 63.4630742283 -122.295406173 67 -94 c 0
 69 -80 69 -65 69 -50 c 2
 69 530 l 1
 155 530 l 1xe8
EndSplineSet
Validated: 1
EndChar

StartChar: k
Encoding: 107 107 162
Width: 522
GlyphClass: 2
Flags: HMW
HStem: 0 21G<74 160 74 74 403 520 403 403> 510 20G<407 517 517 517> 715 20G<74 160 160 160>
VStem: 74 86<0 169 263 735>
AnchorPoint: "Anchor-0" 273 0 basechar 0
LayerCount: 2
Fore
SplineSet
403 0 m 1
 218 222 l 1
 160 164 l 1
 160 0 l 1
 74 0 l 1
 74 649 l 1
 160 649 l 1
 160 272 l 1
 412 537 l 1
 522 537 l 1
 270 280 l 1
 520 0 l 1
 403 0 l 1
EndSplineSet
Validated: 1
EndChar

StartChar: kcommaaccent
Encoding: 311 311 163
Width: 522
GlyphClass: 2
Flags: MW
HStem: -195 144<242 251 190 311> 0 21G<74 160 74 74 403 520 403 403> 510 20G<407 517 517 517> 715 20G<74 160 160 160>
VStem: 74 86<0 169 263 735>
AnchorPoint: "Anchor-0" 273 0 basechar 0
LayerCount: 2
Fore
SplineSet
520 0 m 1
 403 0 l 1
 210 224 l 1
 160 169 l 1
 160 0 l 1
 74 0 l 1
 74 735 l 1
 160 735 l 1
 160 263 l 1
 407 530 l 1
 517 530 l 1
 270 280 l 1
 520 0 l 1
242 -51 m 1
 311 -51 l 1
 311 -63 l 1
 251 -195 l 1
 190 -195 l 1
 242 -51 l 1
EndSplineSet
Validated: 1
EndChar

StartChar: l
Encoding: 108 108 164
Width: 151
GlyphClass: 2
Flags: HMW
HStem: -4 66<100 186> 0 21G<186 186> 715 20G<34 120 120 120>
VStem: 34 86<149 152 152 735>
LayerCount: 2
Fore
SplineSet
29 719 m 1
 120 719 l 1
 120 0 l 1
 29 0 l 1
 29 719 l 1
EndSplineSet
Validated: 1
EndChar

StartChar: lacute
Encoding: 314 314 165
Width: 247
GlyphClass: 2
Flags: HMW
HStem: -4 66<136 222> 0 21G<222 222> 715 20G<70 156 156 156> 785 110<79 220 79 220>
VStem: 70 86<149 152 152 735>
AnchorPoint: "Anchor-0" 123 0 basechar 0
LayerCount: 2
Fore
SplineSet
135 785 m 1x78
 79 785 l 1
 140 895 l 1
 220 895 l 1
 135 785 l 1x78
156 735 m 1
 156 152 l 2
 156 136 156 119 157 102 c 0
 159 73 170 61 203 61 c 0
 208 61 215 61 222 62 c 1
 222 0 l 1
 203 -3 181 -4 161 -4 c 0
 111 -4 74 12 71 79 c 0xb8
 70 97 70 120 70 149 c 2
 70 735 l 1
 156 735 l 1
EndSplineSet
Validated: 1
EndChar

StartChar: lcaron
Encoding: 318 318 166
Width: 247
GlyphClass: 2
Flags: HMW
HStem: -4 66<136 222> 0 21G<222 222> 715 20G<70 156 156 156>
VStem: 70 86<149 152 152 735>
AnchorPoint: "Anchor-0" 123 0 basechar 0
LayerCount: 2
Fore
SplineSet
156 735 m 1x70
 156 152 l 2
 156 136 156 119 157 102 c 0
 158.697507969 73.1423645306 170.480382502 60.8535455597 202.74290331 60.8535455597 c 0
 208.492010607 60.8535455597 214.891437267 61.243769922 222 62 c 1
 222 0 l 1
 203 -3 181 -4 161 -4 c 0
 111 -4 74 12 71 79 c 0xb0
 70 97 70 120 70 149 c 2
 70 735 l 1
 156 735 l 1x70
EndSplineSet
Validated: 1
EndChar

StartChar: lcommaaccent
Encoding: 316 316 167
Width: 247
GlyphClass: 2
Flags: HMW
HStem: -195 144<92 101 40 161> -4 66<136 222> 0 21G<222 222> 715 20G<70 156 156 156>
VStem: 70 86<149 152 152 735>
AnchorPoint: "Anchor-0" 123 0 basechar 0
LayerCount: 2
Fore
SplineSet
156 735 m 1xb8
 156 152 l 2
 156 136 156 119 157 102 c 0
 158.697507969 73.1423645306 170.480382502 60.8535455597 202.74290331 60.8535455597 c 0
 208.492010607 60.8535455597 214.891437267 61.243769922 222 62 c 1
 222 0 l 1
 203 -3 181 -4 161 -4 c 0
 111 -4 74 12 71 79 c 0xd8
 70 97 70 120 70 149 c 2
 70 735 l 1
 156 735 l 1xb8
161 -63 m 1
 101 -195 l 1
 40 -195 l 1
 92 -51 l 1
 161 -51 l 1
 161 -63 l 1
EndSplineSet
Validated: 1
EndChar

StartChar: ldot
Encoding: 320 320 168
Width: 350
GlyphClass: 2
Flags: HMW
HStem: -4 66<136 222> 0 21G<222 222> 345 110<265.5 296.5> 715 20G<70 156 156 156>
VStem: 70 86<149 152 152 735> 226 110<384.5 415.5>
AnchorPoint: "Anchor-0" 123 0 basechar 0
LayerCount: 2
Fore
SplineSet
156 735 m 1x78
 156 152 l 2
 156 136 156 119 157 102 c 0
 158.697507969 73.1423645306 170.480382502 60.8535455597 202.74290331 60.8535455597 c 0
 208.492010607 60.8535455597 214.891437267 61.243769922 222 62 c 1
 222 0 l 1
 203 -3 181 -4 161 -4 c 0
 111 -4 74 12 71 79 c 0xbc
 70 97 70 120 70 149 c 2
 70 735 l 1
 156 735 l 1x78
281 455 m 0
 312 455 336 431 336 400 c 0
 336 369 312 345 281 345 c 0
 250 345 226 369 226 400 c 0
 226 431 250 455 281 455 c 0
EndSplineSet
Validated: 1
Ligature2: "Ligature Substitution lookup 5 subtable" l periodcentered
EndChar

StartChar: lslash
Encoding: 322 322 169
Width: 284
GlyphClass: 2
Flags: HMW
HStem: -4 66<163 249> 715 20G<97 183 183 183>
VStem: 97 86<149 152 152 264 264 264 381 735>
AnchorPoint: "Anchor-0" 150 0 basechar 0
LayerCount: 2
Fore
SplineSet
184 102 m 0
 185.697507969 73.1423645306 197.480382502 60.8535455597 229.74290331 60.8535455597 c 0
 235.492010607 60.8535455597 241.891437267 61.243769922 249 62 c 1
 249 0 l 1
 230 -3 208 -4 188 -4 c 0
 138 -4 101 12 98 79 c 0
 97 97 97 120 97 149 c 2
 97 264 l 1
 32 225 l 1
 32 292 l 1
 97 331 l 1
 97 735 l 1
 183 735 l 1
 183 381 l 1
 248 420 l 1
 248 353 l 1
 183 314 l 1
 183 152 l 2
 183 136 183 119 184 102 c 0
EndSplineSet
Validated: 1
EndChar

StartChar: m
Encoding: 109 109 170
Width: 774
GlyphClass: 2
Flags: HMW
HStem: 0 21G<36 122 36 36 348 434 348 348 660 746 660 660> 476 54 476 68<244.5 268 556.5 580>
VStem: 36 86<0 262 453 530> 348 86<0 262 0 284 0 307.5> 660 86<0 284 284 307.5>
LayerCount: 2
Fore
SplineSet
741 385 m 0
 745 358 746 337 746 294 c 2
 746 0 l 1
 660 0 l 1
 660 254 l 2
 660 301 658.083544589 329.913920346 656 357 c 0
 651 422 592.994140625 453.666992188 555 453 c 0
 498 452 434 423 434 262 c 2
 434 0 l 1
 348 0 l 1
 348 284 l 2
 348 331 347 360 344 387 c 0
 336 447 286 460 238 456 c 0
 209.813429463 453.651119122 122 423 122 262 c 2
 122 0 l 1
 36 0 l 1
 36 530 l 1
 122 530 l 1
 121 459 l 1
 152 521 205.381835938 538.258789062 243.014648438 538.258789062 c 0
 251.262695312 538.258789062 259.55078125 538 268 538 c 0
 349 538 386 504 406 446 c 1
 461 538 533 537 580 537 c 0
 675 537 729 458 741 385 c 0
EndSplineSet
Validated: 33
EndChar

StartChar: n
Encoding: 110 110 171
Width: 508
GlyphClass: 2
Flags: HW
HStem: 0 21G<31 117 393 479> 476 68<196.434 347.639> 510 20G<31 117>
VStem: 31 86<0 374.749 439 530> 393 86<0 429.418>
AnchorPoint: "Anchor-0" 253 0 basechar 0
LayerCount: 2
Fore
SplineSet
477.98046875 264.46484375 m 0
 477.98046875 242.291992188 479 256.880859375 479 217 c 2
 479 0 l 1
 393 0 l 1
 393 225 l 2
 393 370.275519405 351 451 269.70703125 453 c 0
 151.863454795 455.899231711 113.62109375 364.892578125 115 216 c 2
 117 0 l 1
 31 0 l 1
 31 537 l 1
 117 537 l 1
 117 457 l 1
 175 536.903035482 226.995379112 540.247926066 274 541 c 0
 399 543 479.002184245 446.999985561 477.98046875 292.607421875 c 0
 477.962890625 289.951171875 477.98046875 266.963867188 477.98046875 264.46484375 c 0
EndSplineSet
EndChar

StartChar: nacute
Encoding: 324 324 172
Width: 593
GlyphClass: 2
Flags: MW
HStem: 476 68<304 354>
VStem: 74 86<0 233 439 530> 436 86<0 292 292 298 0 305.5>
AnchorPoint: "Anchor-0" 296 0 basechar 0
LayerCount: 2
Fore
SplineSet
412 690 m 1
 327 580 l 1
 271 580 l 1
 332 690 l 1
 412 690 l 1
520 389 m 0
 522 362 522 341 522 298 c 2
 522 0 l 1
 436 0 l 1
 436 292 l 2
 436 319 436 341 434 368 c 0
 429 430 395 476 313 476 c 0
 230 476 160 414 160 233 c 2
 160 0 l 1
 74 0 l 1
 74 530 l 1
 160 530 l 1
 160 439 l 1
 193 500 l 1
 238 535 277 544 331 544 c 0
 447 544 512 482 520 389 c 0
EndSplineSet
Validated: 1
EndChar

StartChar: ncaron
Encoding: 328 328 173
Width: 593
GlyphClass: 2
Flags: MW
HStem: 476 68<304 354>
VStem: 74 86<0 233 439 530> 436 86<0 292 292 298 0 305.5>
AnchorPoint: "Anchor-0" 296 0 basechar 0
LayerCount: 2
Fore
SplineSet
335 580 m 1
 276 580 l 1
 209 690 l 1
 273 690 l 1
 306 627 l 1
 339 690 l 1
 402 690 l 1
 335 580 l 1
520 389 m 0
 522 362 522 341 522 298 c 2
 522 0 l 1
 436 0 l 1
 436 292 l 2
 436 319 436 341 434 368 c 0
 429 430 395 476 313 476 c 0
 230 476 160 414 160 233 c 2
 160 0 l 1
 74 0 l 1
 74 530 l 1
 160 530 l 1
 160 439 l 1
 193 500 l 1
 238 535 277 544 331 544 c 0
 447 544 512 482 520 389 c 0
EndSplineSet
Validated: 1
EndChar

StartChar: ncommaaccent
Encoding: 326 326 174
Width: 593
GlyphClass: 2
Flags: MW
HStem: 476 68<304 354>
VStem: 74 86<0 233 439 530> 436 86<0 292 292 298 0 305.5>
AnchorPoint: "Anchor-0" 296 0 basechar 0
LayerCount: 2
Fore
SplineSet
520 389 m 0
 522 362 522 341 522 298 c 2
 522 0 l 1
 436 0 l 1
 436 292 l 2
 436 319 436 341 434 368 c 0
 429 430 395 476 313 476 c 0
 230 476 160 414 160 233 c 2
 160 0 l 1
 74 0 l 1
 74 530 l 1
 160 530 l 1
 160 439 l 1
 193 500 l 1
 238 535 277 544 331 544 c 0
 447 544 512 482 520 389 c 0
213 -195 m 1
 265 -51 l 1
 334 -51 l 1
 334 -63 l 1
 274 -195 l 1
 213 -195 l 1
EndSplineSet
Validated: 1
EndChar

StartChar: eng
Encoding: 331 331 175
Width: 593
GlyphClass: 2
Flags: W
LayerCount: 2
Fore
SplineSet
520 389 m 0
 522 362 522 341 522 298 c 2
 522 -54 l 2
 522 -72 522 -81 521 -95 c 0
 514 -189 454 -210 355 -210 c 1
 355 -140 l 1
 409 -140 431 -129 435 -87 c 0
 436 -79 436 -70 436 -60 c 2
 436 292 l 2
 436 319 436 341 434 368 c 0
 429 430 395 476 313 476 c 0
 230 476 160 414 160 233 c 2
 160 0 l 1
 74 0 l 1
 74 530 l 1
 160 530 l 1
 160 439 l 1
 193 500 l 1
 238 535 277 544 331 544 c 0
 447 544 512 482 520 389 c 0
EndSplineSet
Validated: 1
EndChar

StartChar: ntilde
Encoding: 241 241 176
Width: 593
GlyphClass: 2
Flags: MW
HStem: 476 68<304 354>
VStem: 74 86<0 233 439 530> 436 86<0 292 292 298 0 305.5>
AnchorPoint: "Anchor-0" 296 0 basechar 0
LayerCount: 2
Fore
SplineSet
253 620 m 0
 243 620 237 615 237 600 c 1
 199 600 l 1
 199 656 219 671 251 671 c 0
 270 671 286 667 313 658 c 0
 337 650 348 647 357 647 c 0
 367 647 373 652 373 667 c 1
 411 667 l 1
 411 611 391 596 359 596 c 0
 340 596 324 600 297 609 c 0
 273 617 262 620 253 620 c 0
520 389 m 0
 522 362 522 341 522 298 c 2
 522 0 l 1
 436 0 l 1
 436 292 l 2
 436 319 436 341 434 368 c 0
 429 430 395 476 313 476 c 0
 230 476 160 414 160 233 c 2
 160 0 l 1
 74 0 l 1
 74 530 l 1
 160 530 l 1
 160 439 l 1
 193 500 l 1
 238 535 277 544 331 544 c 0
 447 544 512 482 520 389 c 0
EndSplineSet
Validated: 1
EndChar

StartChar: o
Encoding: 111 111 177
Width: 554
GlyphClass: 2
Flags: HMW
HStem: -14 66<229.5 336.5 229.5 373> 478 66<229.5 336.5>
VStem: 20 94<203 327.5 203 340> 452 94<203 327.5>
LayerCount: 2
Fore
SplineSet
451.366210938 272.052734375 m 4
 451.366210938 372.631835938 372.31640625 454.412109375 275.090820312 454.412109375 c 4
 177.870117188 454.412109375 98.8173828125 372.631835938 98.8173828125 272.052734375 c 4
 98.8173828125 171.474609375 177.870117188 89.6943359375 275.090820312 89.6943359375 c 4
 372.31640625 89.6943359375 451.366210938 171.474609375 451.366210938 272.052734375 c 4
537.171875 273.518554688 m 0
 537.171875 123.036132812 420.604492188 0.384765625 276.139648438 0.384765625 c 0
 131.676757812 0.384765625 15.109375 123.036132812 15.109375 273.518554688 c 0
 15.109375 423.999023438 131.676757812 546.653320312 276.139648438 546.653320312 c 0
 420.604492188 546.653320312 537.171875 423.999023438 537.171875 273.518554688 c 0
EndSplineSet
EndChar

StartChar: oacute
Encoding: 243 243 178
Width: 586
GlyphClass: 2
Flags: MW
HStem: -14 66<239.5 346.5 239.5 383> 478 66<239.5 346.5> 580 110<259 400 259 400>
VStem: 30 94<203 327.5 203 340> 462 94<203 327.5>
LayerCount: 2
Fore
SplineSet
315 580 m 1
 259 580 l 1
 320 690 l 1
 400 690 l 1
 315 580 l 1
293 544 m 0
 473 544 556 415 556 265 c 0
 556 116 473 -14 293 -14 c 0
 113 -14 30 116 30 265 c 0
 30 415 113 544 293 544 c 0
293 52 m 0
 400 52 462 141 462 265 c 0
 462 390 400 478 293 478 c 0
 186 478 124 390 124 265 c 0
 124 141 186 52 293 52 c 0
EndSplineSet
Validated: 1
EndChar

StartChar: ocircumflex
Encoding: 244 244 179
Width: 586
GlyphClass: 2
Flags: MW
HStem: -14 66<239.5 346.5 239.5 383> 478 66<239.5 346.5> 580 110<197 323 197 323 264 326 264 390> 643 47<293 293>
VStem: 30 94<203 327.5 203 340> 462 94<203 327.5>
LayerCount: 2
Fore
SplineSet
260 580 m 1xec
 197 580 l 1
 264 690 l 1
 323 690 l 1
 390 580 l 1
 326 580 l 1xec
 293 643 l 1xdc
 260 580 l 1xec
293 544 m 0
 473 544 556 415 556 265 c 0
 556 116 473 -14 293 -14 c 0
 113 -14 30 116 30 265 c 0
 30 415 113 544 293 544 c 0
293 52 m 0
 400 52 462 141 462 265 c 0
 462 390 400 478 293 478 c 0
 186 478 124 390 124 265 c 0
 124 141 186 52 293 52 c 0
EndSplineSet
Validated: 1
EndChar

StartChar: odieresis
Encoding: 246 246 180
Width: 586
GlyphClass: 2
Flags: MW
HStem: -14 66<239.5 346.5 239.5 383> 478 66<239.5 346.5> 583 92<207.5 232.5 353.5 378.5>
VStem: 30 94<203 327.5 203 340> 174 92<616.5 641.5> 320 92<616.5 641.5> 462 94<203 327.5>
LayerCount: 2
Fore
SplineSet
220 583 m 0
 195 583 174 604 174 629 c 0
 174 654 195 675 220 675 c 0
 245 675 266 654 266 629 c 0
 266 604 245 583 220 583 c 0
366 583 m 0
 341 583 320 604 320 629 c 0
 320 654 341 675 366 675 c 0
 391 675 412 654 412 629 c 0
 412 604 391 583 366 583 c 0
293 544 m 0
 473 544 556 415 556 265 c 0
 556 116 473 -14 293 -14 c 0
 113 -14 30 116 30 265 c 0
 30 415 113 544 293 544 c 0
293 52 m 0
 400 52 462 141 462 265 c 0
 462 390 400 478 293 478 c 0
 186 478 124 390 124 265 c 0
 124 141 186 52 293 52 c 0
EndSplineSet
Validated: 1
EndChar

StartChar: ograve
Encoding: 242 242 181
Width: 586
GlyphClass: 2
Flags: MW
HStem: -14 66<239.5 346.5 239.5 383> 478 66<239.5 346.5> 580 110<184 269 184 325>
VStem: 30 94<203 327.5 203 340> 462 94<203 327.5>
LayerCount: 2
Fore
SplineSet
269 580 m 1
 184 690 l 1
 264 690 l 1
 325 580 l 1
 269 580 l 1
293 544 m 0
 473 544 556 415 556 265 c 0
 556 116 473 -14 293 -14 c 0
 113 -14 30 116 30 265 c 0
 30 415 113 544 293 544 c 0
293 52 m 0
 400 52 462 141 462 265 c 0
 462 390 400 478 293 478 c 0
 186 478 124 390 124 265 c 0
 124 141 186 52 293 52 c 0
EndSplineSet
Validated: 1
EndChar

StartChar: ohungarumlaut
Encoding: 337 337 182
Width: 586
GlyphClass: 2
Flags: MW
HStem: -14 66<239.5 346.5 239.5 383> 478 66<239.5 346.5> 580 110<203 344 203 344 325 344 264 381 325 325>
VStem: 30 94<203 327.5 203 340> 462 94<203 327.5>
LayerCount: 2
Fore
SplineSet
259 580 m 1
 203 580 l 1
 264 690 l 1
 344 690 l 1
 259 580 l 1
325 580 m 1
 386 690 l 1
 466 690 l 1
 381 580 l 1
 325 580 l 1
293 544 m 0
 473 544 556 415 556 265 c 0
 556 116 473 -14 293 -14 c 0
 113 -14 30 116 30 265 c 0
 30 415 113 544 293 544 c 0
293 52 m 0
 400 52 462 141 462 265 c 0
 462 390 400 478 293 478 c 0
 186 478 124 390 124 265 c 0
 124 141 186 52 293 52 c 0
EndSplineSet
Validated: 1
EndChar

StartChar: omacron
Encoding: 333 333 183
Width: 586
GlyphClass: 2
Flags: MW
HStem: -14 66<239.5 346.5 239.5 383> 478 66<239.5 346.5> 604 52<173 413 173 413>
VStem: 30 94<203 327.5 203 340> 173 240<604 656 604 656> 462 94<203 327.5>
LayerCount: 2
Fore
SplineSet
413 604 m 1
 173 604 l 1
 173 656 l 1
 413 656 l 1
 413 604 l 1
293 544 m 0
 473 544 556 415 556 265 c 0
 556 116 473 -14 293 -14 c 0
 113 -14 30 116 30 265 c 0
 30 415 113 544 293 544 c 0
293 52 m 0
 400 52 462 141 462 265 c 0
 462 390 400 478 293 478 c 0
 186 478 124 390 124 265 c 0
 124 141 186 52 293 52 c 0
EndSplineSet
Validated: 1
EndChar

StartChar: oslash
Encoding: 248 248 184
Width: 620
GlyphClass: 2
Flags: MW
HStem: -14 66<278 355.5 278 392> 478 66<248.5 328>
VStem: 39 94<243.5 327.5 243.5 340> 471 94<203 284>
LayerCount: 2
Fore
SplineSet
594 508 m 1
 520 434 l 1
 550 387 565 328 565 265 c 0
 565 116 482 -14 302 -14 c 0
 229 -14 171 8 129 43 c 1
 67 -19 l 1
 26 22 l 1
 90 86 l 1
 56 135 39 198 39 265 c 0
 39 415 122 544 302 544 c 0
 381 544 441 519 483 479 c 1
 553 549 l 1
 594 508 l 1
133 265 m 0
 133 222 140 183 155 151 c 1
 425 421 l 1
 396 457 354 478 302 478 c 0
 195 478 133 390 133 265 c 0
471 265 m 0
 471 303 465 338 454 368 c 1
 187 101 l 1
 215 70 254 52 302 52 c 0
 409 52 471 141 471 265 c 0
EndSplineSet
Validated: 1
EndChar

StartChar: otilde
Encoding: 245 245 185
Width: 586
GlyphClass: 2
Flags: MW
HStem: -14 66<239.5 346.5 239.5 383> 478 66<239.5 346.5> 596 71<361 363> 600 71<223 225 187 248.5>
VStem: 30 94<203 327.5 203 340> 187 38<600 607.5 600 628> 361 38<659.5 667> 462 94<203 327.5>
LayerCount: 2
Fore
SplineSet
241 620 m 0xdd
 231 620 225 615 225 600 c 1
 187 600 l 1
 187 656 207 671 239 671 c 0xdd
 258 671 274 667 301 658 c 0
 325 650 336 647 345 647 c 0
 355 647 361 652 361 667 c 1
 399 667 l 1
 399 611 379 596 347 596 c 0xef
 328 596 312 600 285 609 c 0
 261 617 250 620 241 620 c 0xdd
293 544 m 0
 473 544 556 415 556 265 c 0
 556 116 473 -14 293 -14 c 0
 113 -14 30 116 30 265 c 0
 30 415 113 544 293 544 c 0
293 52 m 0
 400 52 462 141 462 265 c 0
 462 390 400 478 293 478 c 0
 186 478 124 390 124 265 c 0
 124 141 186 52 293 52 c 0
EndSplineSet
Validated: 1
EndChar

StartChar: oe
Encoding: 339 339 186
Width: 981
GlyphClass: 2
Flags: MW
HStem: -14 66<239.5 343.5 668 741.5> 239 66<557 854 557 939 557 854> 478 66<239.5 344.5 203 346.5 670.5 755.5>
VStem: 30 94<203 327.5 203 340> 462 95<239 239 239 305 239 327.5> 854 87<305 305>
LayerCount: 2
Fore
SplineSet
941 280 m 0
 941 272 941 258 939 239 c 1
 557 239 l 1
 565 107 629 52 707 52 c 0
 776 52 832 95 844 171 c 1
 934 171 l 1
 913 43 812 -14 703 -14 c 0
 620 -14 548 22 506 112 c 1
 464 27 394 -14 293 -14 c 0
 113 -14 30 116 30 265 c 0
 30 415 113 544 293 544 c 0
 396 544 468 502 510 415 c 1
 554 506 627 544 714 544 c 0
 860 544 941 435 941 280 c 0
293 52 m 0
 400 52 462 141 462 265 c 0
 462 390 400 478 293 478 c 0
 186 478 124 390 124 265 c 0
 124 141 186 52 293 52 c 0
557 305 m 1
 854 305 l 1
 845 415 799 478 712 478 c 0
 627 478 568 418 557 305 c 1
EndSplineSet
Validated: 1
EndChar

StartChar: p
Encoding: 112 112 187
Width: 570
GlyphClass: 2
Flags: HMW
HStem: -14 66<252 320.5 236 342.5> 478 66<265 332> 510 20G<26 112 112 112>
VStem: 26 86<-196 73 172.5 241 241 270 445 530> 439 94<193.5 323>
LayerCount: 2
Fore
SplineSet
288 90 m 0
 381 90 459 176 456 275 c 0
 453.364845982 361.960082586 387 454 293 456 c 0
 292.190553984 456.017222256 291.380859375 456.013671875 290.5703125 456.013671875 c 0
 205.220703125 456.013671875 112 413.729492188 112 280 c 2
 112 251 l 2
 112 137 212 90 288 90 c 0
112 466 m 1
 160 532 239 544 293 544 c 0
 446 544 545 404 545 278 c 0
 545 276 545.040039062 274 545 272 c 0
 542 123 419 6 297 6 c 0
 253 6 159 13 112 86 c 1
 112 -196 l 1
 26 -196 l 1
 26 537 l 1
 112 537 l 1
 112 466 l 1
EndSplineSet
EndChar

StartChar: thorn
Encoding: 254 254 188
Width: 611
GlyphClass: 2
Flags: MW
HStem: -14 66<300 368.5 284 390.5> 478 66<313 380> 715 20G<74 160 160 160>
VStem: 74 86<-196 73 172.5 241 241 270 445 735> 487 94<193.5 323>
LayerCount: 2
Fore
SplineSet
340 544 m 0
 495 544 581 428 581 273 c 0
 581 77 459 -14 322 -14 c 0
 278 -14 222 -1 195 21 c 1
 160 73 l 1
 160 -196 l 1
 74 -196 l 1
 74 735 l 1
 160 735 l 1
 160 445 l 1
 200 502 l 1
 230 527 286 544 340 544 c 0
322 52 m 0
 415 52 487 124 487 263 c 0
 487 383 433 478 327 478 c 0
 239 478 160 422 160 270 c 2
 160 241 l 2
 160 104 246 52 322 52 c 0
EndSplineSet
Validated: 1
EndChar

StartChar: q
Encoding: 113 113 189
Width: 615
GlyphClass: 2
Flags: MW
HStem: -14 66<231 298> 478 66<242.5 311 220.5 327> 510 20G<451 537 537 537>
VStem: 30 94<207 336.5 207 355> 451 86<-196 85 85 85 260 289 289 357.5 457 530 -196 530>
LayerCount: 2
Fore
SplineSet
537 530 m 1xb8
 537 -196 l 1
 451 -196 l 1
 451 85 l 1
 411 28 l 1
 381 3 325 -14 271 -14 c 0
 116 -14 30 102 30 257 c 0
 30 453 152 544 289 544 c 0
 333 544 389 531 416 509 c 1
 451 457 l 1xd8
 451 530 l 1
 537 530 l 1xb8
284 52 m 0
 372 52 451 108 451 260 c 2
 451 289 l 2
 451 426 365 478 289 478 c 0
 196 478 124 406 124 267 c 0
 124 147 178 52 284 52 c 0
EndSplineSet
Validated: 1
EndChar

StartChar: r
Encoding: 114 114 190
Width: 268
GlyphClass: 2
Flags: HMW
HStem: 4.4783e+07 1.30617e+07G<-1294.53 1028.37 -1294.53 -1294.53> 3.61997e+08 1.24398e+07G<-1294.53 1028.37 1028.37 1028.37> 3.65107e+08 1.24398e+07G<5296.02 5296.02> 3.69461e+08 1.24398e+07G<3986.01 4512.71>
VStem: -1294.53 2322.9<4.4783e+07 2.32623e+08 3.22812e+08 3.74437e+08>
AnchorPoint: "Anchor-0" 75 0 basechar 0
LayerCount: 2
Fore
SplineSet
268 538 m 1
 268 461 l 1xa8
 176 459 118 413 118 292 c 2
 118 0 l 1
 29 0 l 1
 29 537 l 1
 118 537 l 1
 118 471 l 1xc8
 148.778320312 505.198242188 159 547 268 538 c 1
EndSplineSet
EndChar

StartChar: racute
Encoding: 341 341 191
Width: 330
GlyphClass: 2
Flags: HMW
HStem: 0 21G<74 160 74 74> 510 20G<74 160 160 160> 515 20G<318 318> 522 20G<269.5 289> 580 110<150 291 150 291>
VStem: 74 86<0 302 447 530>
AnchorPoint: "Anchor-0" 117 0 basechar 0
LayerCount: 2
Fore
SplineSet
206 580 m 1x9c
 150 580 l 1
 211 690 l 1
 291 690 l 1
 206 580 l 1x9c
282 542 m 0
 296 542 308 540 318 535 c 1
 318 470 l 1xac
 313.441340152 470.303910657 308.939123558 470.45645077 304.499328023 470.45645077 c 0
 221.285819417 470.45645077 160 416.871135094 160 302 c 2
 160 0 l 1
 74 0 l 1
 74 530 l 1
 160 530 l 1
 160 447 l 1xcc
 208 518 l 1
 230 533 257 542 282 542 c 0
EndSplineSet
Validated: 1
EndChar

StartChar: rcaron
Encoding: 345 345 192
Width: 330
GlyphClass: 2
Flags: HMW
HStem: 0 21G<74 160 74 74> 510 20G<74 160 160 160> 515 20G<318 318> 522 20G<269.5 289> 580 110<88 155 88 214>
VStem: 74 86<0 302 447 530>
AnchorPoint: "Anchor-0" 117 0 basechar 0
LayerCount: 2
Fore
SplineSet
155 580 m 1x9c
 88 690 l 1
 152 690 l 1
 185 627 l 1
 218 690 l 1
 281 690 l 1
 214 580 l 1
 155 580 l 1x9c
282 542 m 0
 296 542 308 540 318 535 c 1
 318 470 l 1xac
 313.441340152 470.303910657 308.939123558 470.45645077 304.499328023 470.45645077 c 0
 221.285819417 470.45645077 160 416.871135094 160 302 c 2
 160 0 l 1
 74 0 l 1
 74 530 l 1
 160 530 l 1
 160 447 l 1xcc
 208 518 l 1
 230 533 257 542 282 542 c 0
EndSplineSet
Validated: 1
EndChar

StartChar: rcommaaccent
Encoding: 343 343 193
Width: 330
GlyphClass: 2
Flags: HMW
HStem: -195 144<86 95 34 155> 0 21G<74 160 74 74> 510 20G<74 160 160 160> 515 20G<318 318> 522 20G<269.5 289>
VStem: 74 86<0 302 447 530>
AnchorPoint: "Anchor-0" 117 0 basechar 0
LayerCount: 2
Fore
SplineSet
282 542 m 0xcc
 296 542 308 540 318 535 c 1
 318 470 l 1xd4
 313.441340152 470.303910657 308.939123558 470.45645077 304.499328023 470.45645077 c 0
 221.285819417 470.45645077 160 416.871135094 160 302 c 2
 160 0 l 1
 74 0 l 1
 74 530 l 1
 160 530 l 1
 160 447 l 1xe4
 208 518 l 1
 230 533 257 542 282 542 c 0xcc
86 -51 m 1
 155 -51 l 1
 155 -63 l 1
 95 -195 l 1
 34 -195 l 1
 86 -51 l 1
EndSplineSet
Validated: 1
EndChar

StartChar: s
Encoding: 115 115 194
Width: 433
GlyphClass: 2
Flags: HMWO
HStem: -14 66<199.5 258.5 199.5 280> 478 66<183 244>
VStem: 16 90<156 156> 37 88<372.5 422 372.5 437.5> 325 90<379 379> 333 88<103.5 154.5>
AnchorPoint: "Anchor-0" 222 0 basechar 0
LayerCount: 2
Fore
SplineSet
210 554 m 0
 329 554 415 475 415 364 c 1
 325 364 l 1
 325 445 265 480 203 480 c 0
 143 480 102 444 102 398 c 0
 102 345 149.324520948 327.580851507 231 316 c 0
 365 297 427.283517724 241.968333926 431 166 c 0
 437.300909811 37.2035777521 317.626134157 -19.0569592585 214 -14 c 0
 107.108512386 -8.78369136949 36 54 23 159 c 1
 115 159 l 1
 126 95.666809082 161.879293048 59.4814620538 230 53 c 0
 283.413158521 47.9179129868 356.625206013 83.7941603336 347 159 c 0
 339.778379772 215.425598812 245.790340998 236.092525368 198 241 c 0
 98.2650469024 251.241541325 15.0986443469 293.386789245 18 393 c 0
 21 496 101 554 210 554 c 0
EndSplineSet
EndChar

StartChar: sacute
Encoding: 347 347 195
Width: 459
GlyphClass: 2
Flags: MW
HStem: -14 66<207.5 266.5 207.5 288> 478 66<191 252>
VStem: 24 90<156 156> 45 88<372.5 422 372.5 437.5> 333 90<379 379> 341 88<103.5 154.5>
AnchorPoint: "Anchor-0" 240 0 basechar 0
LayerCount: 2
Fore
SplineSet
339 690 m 1
 254 580 l 1
 198 580 l 1
 259 690 l 1
 339 690 l 1
228 544 m 0
 347 544 412 476 423 379 c 1
 333 379 l 1
 321 441 283 478 221 478 c 0
 161 478 133 445 133 399 c 0
 133 346 177 325 249 306 c 0
 371 274 429 226 429 136 c 0
 429 36 344 -14 232 -14 c 0
 123 -14 40 36 24 156 c 1
 114 156 l 1
 128 79 177 52 238 52 c 0
 295 52 341 78 341 129 c 0
 341 180 305 207 216 231 c 0
 121 257 45 296 45 389 c 0
 45 486 119 544 228 544 c 0
EndSplineSet
Validated: 1
EndChar

StartChar: scaron
Encoding: 353 353 196
Width: 459
GlyphClass: 2
Flags: MW
HStem: -14 66<207.5 266.5 207.5 288> 478 66<191 252>
VStem: 24 90<156 156> 45 88<372.5 422 372.5 437.5> 333 90<379 379> 341 88<103.5 154.5>
AnchorPoint: "Anchor-0" 240 0 basechar 0
LayerCount: 2
Fore
SplineSet
262 580 m 1
 203 580 l 1
 136 690 l 1
 200 690 l 1
 233 627 l 1
 266 690 l 1
 329 690 l 1
 262 580 l 1
249 306 m 0
 371 274 429 226 429 136 c 0
 429 36 344 -14 232 -14 c 0
 123 -14 40 36 24 156 c 1
 114 156 l 1
 128 79 177 52 238 52 c 0
 295 52 341 78 341 129 c 0
 341 180 305 207 216 231 c 0
 121 257 45 296 45 389 c 0
 45 486 119 544 228 544 c 0
 347 544 412 476 423 379 c 1
 333 379 l 1
 321 441 283 478 221 478 c 0
 161 478 133 445 133 399 c 0
 133 346 177 325 249 306 c 0
EndSplineSet
Validated: 1
EndChar

StartChar: scedilla
Encoding: 351 351 197
Width: 459
GlyphClass: 2
Flags: HMW
HStem: -13 65<210 210 263 263> 478 66<191 252>
VStem: 24 90<156 156> 45 88<372.5 422 372.5 437.5> 333 90<379 379> 341 88<103.5 154.5>
AnchorPoint: "Anchor-0" 240 0 basechar 0
LayerCount: 2
Fore
SplineSet
429 136 m 0
 429 45 359 -4 263 -13 c 1
 248 -40 l 1
 301 -47 329 -76 329 -123 c 0
 329 -179 279 -210 206 -210 c 0
 188 -210 170 -207 156 -201 c 1
 156 -157 l 1
 171 -165 188 -168 209 -168 c 0
 250 -168 271 -151 271 -124 c 0
 271 -93.9148600577 249.859755688 -77.1402443117 197.186992416 -77.1402443117 c 0
 190.33289443 -77.1402443117 182.944863058 -77.4242852856 175 -78 c 1
 210 -13 l 1
 112 -7 39 44 24 156 c 1
 114 156 l 1
 128 79 177 52 238 52 c 0
 295 52 341 78 341 129 c 0
 341 180 305 207 216 231 c 0
 121 257 45 296 45 389 c 0
 45 486 119 544 228 544 c 0
 347 544 412 476 423 379 c 1
 333 379 l 1
 321 441 283 478 221 478 c 0
 161 478 133 445 133 399 c 0
 133 346 177 325 249 306 c 0
 371 274 429 226 429 136 c 0
EndSplineSet
Validated: 1
Substitution2: "'locl' Localized Forms in Latin lookup 2 subtable" scommaaccent
Substitution2: "'locl' Localized Forms in Latin lookup 1 subtable" scommaaccent
Substitution2: "'aalt' Access All Alternates in Latin lookup 0 subtable" scommaaccent
EndChar

StartChar: scommaaccent
Encoding: 537 537 198
Width: 459
GlyphClass: 2
Flags: MW
HStem: -14 66<207.5 266.5 207.5 288> 478 66<191 252>
VStem: 24 90<156 156> 45 88<372.5 422 372.5 437.5> 333 90<379 379> 341 88<103.5 154.5>
AnchorPoint: "Anchor-0" 240 0 basechar 0
LayerCount: 2
Fore
SplineSet
228 544 m 0
 347 544 412 476 423 379 c 1
 333 379 l 1
 321 441 283 478 221 478 c 0
 161 478 133 445 133 399 c 0
 133 346 177 325 249 306 c 0
 371 274 429 226 429 136 c 0
 429 36 344 -14 232 -14 c 0
 123 -14 40 36 24 156 c 1
 114 156 l 1
 128 79 177 52 238 52 c 0
 295 52 341 78 341 129 c 0
 341 180 305 207 216 231 c 0
 121 257 45 296 45 389 c 0
 45 486 119 544 228 544 c 0
278 -51 m 1
 278 -63 l 1
 218 -195 l 1
 157 -195 l 1
 209 -51 l 1
 278 -51 l 1
EndSplineSet
Validated: 1
EndChar

StartChar: germandbls
Encoding: 223 223 199
Width: 608
GlyphClass: 2
Flags: MW
HStem: -4 66<365 409 365 431.5> 0 21G<74 160 74 74> 686 68<264.5 345>
VStem: 74 86<0 480 480 488 0 490> 322 96<380 411.5 380 421.5> 430 96<566.5 611> 472 96<123 165.5>
LayerCount: 2
Fore
SplineSet
306 754 m 0x7c
 442 754 526 684 526 579 c 0xbc
 526 550 518 513 495 476 c 1
 444 449 418 425 418 398 c 0
 418 362 437 340 483 302 c 0
 541 255 568 214 568 142 c 0
 568 50 483 -4 380 -4 c 0
 347 -4 321 -2 282 6 c 1
 282 75 l 1
 326 64 354 62 376 62 c 0
 442 62 472 97 472 149 c 0
 472 182 462 210 408 257 c 0
 346 311 322 341 322 398 c 0xba
 322 445 349 483 412 514 c 1
 426 538 430 555 430 578 c 0
 430 644 388 686 302 686 c 0
 227 686 169 638 162 542 c 0
 161 528 160 509 160 488 c 2
 160 0 l 1
 74 0 l 1
 74 480 l 2
 74 500 75 526 76 544 c 0
 84 687 184 754 306 754 c 0x7c
EndSplineSet
Validated: 1
EndChar

StartChar: t
Encoding: 116 116 200
Width: 287
GlyphClass: 2
Flags: HMW
HStem: -8 65.9 460 66<20 91 20 91 177 276>
VStem: 91 86<151 155 155 460 526 649>
AnchorPoint: "Anchor-0" 174 0 basechar 0
LayerCount: 2
Fore
SplineSet
178 461 m 1
 177 155 l 2
 177 0 l 1
 91 0 l 1
 91 151 l 2
 92 461 l 1
 21 461 l 1
 21 537 l 1
 92 537 l 1
 91 649 l 5
 177 649 l 5
 178 537 l 1
 277 537 l 1
 277 461 l 1
 178 461 l 1
EndSplineSet
Validated: 1
EndChar

StartChar: tbar
Encoding: 359 359 201
Width: 313
GlyphClass: 2
Flags: HMW
HStem: -8 65.9 296 52<20 91 20 91 177 260> 460 66<20 91 20 91 177 276>
VStem: 91 86<151 155 155 296 348 460 526 649>
AnchorPoint: "Anchor-0" 174 0 basechar 0
LayerCount: 2
Fore
SplineSet
177 460 m 1
 177 348 l 1
 260 348 l 1
 260 296 l 1
 177 296 l 1
 177 155 l 2
 177 137 177 128 178 114 c 0
 181.238095238 72.7142857143 195.616780045 57.641723356 236.520678113 57.641723356 c 0
 246.145124717 57.641723356 257.238095238 58.4761904762 270 60 c 1
 270 -3 l 1
 245 -7 221 -8 197 -8 c 0
 131 -8 97 19 92 85 c 0
 91 99 91 121 91 151 c 2
 91 296 l 1
 20 296 l 1
 20 348 l 1
 91 348 l 1
 91 460 l 1
 20 460 l 1
 20 526 l 1
 91 526 l 1
 91 649 l 1
 177 649 l 1
 177 526 l 1
 276 526 l 1
 276 460 l 1
 177 460 l 1
EndSplineSet
Validated: 1
EndChar

StartChar: tcaron
Encoding: 357 357 202
Width: 303
GlyphClass: 2
Flags: HMW
HStem: -8 65.9 460 66<20 91 20 91 177 276> 591 58<91 277 91 216> 591 144<268 277 216 337>
VStem: 91 86<151 155 155 460 526 649>
AnchorPoint: "Anchor-0" 174 0 basechar 0
LayerCount: 2
Fore
SplineSet
337 735 m 1xd8
 337 723 l 1
 277 591 l 1
 216 591 l 1
 268 735 l 1
 337 735 l 1xd8
177 526 m 1
 276 526 l 1
 276 460 l 1
 177 460 l 1
 177 155 l 2
 177 137 177 128 178 114 c 0
 181.238095238 72.7142857143 195.616780045 57.641723356 236.520678113 57.641723356 c 0
 246.145124717 57.641723356 257.238095238 58.4761904762 270 60 c 1
 270 -3 l 1
 245 -7 221 -8 197 -8 c 0
 131 -8 97 19 92 85 c 0
 91 99 91 121 91 151 c 2
 91 460 l 1
 20 460 l 1
 20 526 l 1
 91 526 l 1
 91 649 l 1
 177 649 l 1xe8
 177 526 l 1
EndSplineSet
Validated: 1
EndChar

StartChar: tcedilla
Encoding: 355 355 203
Width: 313
GlyphClass: 2
Flags: HMW
HStem: -210 42<132.5 163.5 132.5 176.5> -8 65.9 -8 68<200 270> -3 21G<270 270> -2 21G<150 150> 460 66<20 91 20 91 177 276>
VStem: 91 86<151 155 155 460 526 649> 205 58<-137.5 -107>
AnchorPoint: "Anchor-0" 174 0 basechar 0
LayerCount: 2
Fore
SplineSet
177 460 m 1xc6
 177 155 l 2
 177 137 177 128 178 114 c 0xc6
 181.238095238 72.7142857143 195.616780045 57.641723356 236.520678113 57.641723356 c 0
 246.145124717 57.641723356 257.238095238 58.4761904762 270 60 c 1xa6
 270 -3 l 1x96
 246 -7 223 -8 200 -8 c 1xc6
 182 -40 l 1xc7
 235 -47 263 -76 263 -123 c 0
 263 -179 213 -210 140 -210 c 0
 122 -210 104 -207 90 -201 c 1
 90 -157 l 1
 105 -165 122 -168 143 -168 c 0
 184 -168 205 -151 205 -124 c 0
 205 -93.9148600577 183.859755688 -77.1402443117 131.186992416 -77.1402443117 c 0
 124.33289443 -77.1402443117 116.944863058 -77.4242852856 109 -78 c 1
 150 -2 l 1x8f
 115 10 96 37 92 85 c 0x8e
 91 99 91 121 91 151 c 2
 91 460 l 1
 20 460 l 1
 20 526 l 1
 91 526 l 1
 91 649 l 1
 177 649 l 1
 177 526 l 1
 276 526 l 1
 276 460 l 1
 177 460 l 1xc6
EndSplineSet
Validated: 1
Substitution2: "'locl' Localized Forms in Latin lookup 2 subtable" uni021B
Substitution2: "'locl' Localized Forms in Latin lookup 1 subtable" uni021B
Substitution2: "'aalt' Access All Alternates in Latin lookup 0 subtable" uni021B
EndChar

StartChar: uni021B
Encoding: 539 539 204
Width: 313
GlyphClass: 2
Flags: HMW
HStem: -195 144<143 152 91 212> -8 65.9 460 66<20 91 20 91 177 276>
VStem: 91 86<151 155 155 460 526 649>
AnchorPoint: "Anchor-0" 174 0 basechar 0
LayerCount: 2
Fore
SplineSet
177 460 m 1
 177 155 l 2
 177 137 177 128 178 114 c 0
 181.238095238 72.7142857143 195.616780045 57.641723356 236.520678113 57.641723356 c 0
 246.145124717 57.641723356 257.238095238 58.4761904762 270 60 c 1
 270 -3 l 1
 245 -7 221 -8 197 -8 c 0
 131 -8 97 19 92 85 c 0
 91 99 91 121 91 151 c 2
 91 460 l 1
 20 460 l 1
 20 526 l 1
 91 526 l 1
 91 649 l 1
 177 649 l 1
 177 526 l 1
 276 526 l 1
 276 460 l 1
 177 460 l 1
143 -51 m 1
 212 -51 l 1
 212 -63 l 1
 152 -195 l 1
 91 -195 l 1
 143 -51 l 1
EndSplineSet
Validated: 1
EndChar

StartChar: u
Encoding: 117 117 205
Width: 513
GlyphClass: 2
Flags: HMW
HStem: -14 68<220 261> 0 21G<405 491 405 405> 510 20G<43 129 129 129 405 491 491 491>
VStem: 43 86<219.5 228 228 530> 405 86<0 90 90 90 297 530 0 530>
LayerCount: 2
Fore
SplineSet
491 537 m 1xb8
 491 95 l 1
 491 0 l 1
 405 0 l 1
 405 89 l 1x78
 371 27 324.98113652 -15.8567578882 234 -14 c 0
 87 -11 43 95.666809082 43 232 c 2
 43 537 l 1
 136 537 l 1
 136 248 l 2
 136 135 160 62 255 64 c 0
 337.981445312 65.7470703125 403 118 403 267 c 2
 405 537 l 1
 491 537 l 1xb8
EndSplineSet
EndChar

StartChar: uacute
Encoding: 250 250 206
Width: 592
GlyphClass: 2
Flags: MW
HStem: -14 68<243 284> 0 21G<428 514 428 428> 510 20G<66 152 152 152 428 514 514 514> 580 110<256 397 256 397>
VStem: 66 86<219.5 228 228 530> 428 86<0 90 90 90 297 530 0 530>
LayerCount: 2
Fore
SplineSet
312 580 m 1xbc
 256 580 l 1
 317 690 l 1
 397 690 l 1
 312 580 l 1xbc
514 530 m 1
 514 0 l 1
 428 0 l 1
 428 90 l 1x7c
 395 28 l 1
 350 -5 311 -14 257 -14 c 0
 147 -14 83 48 71 121 c 0
 67 148 66 169 66 212 c 2
 66 530 l 1
 152 530 l 1
 152 228 l 2
 152 211 153 182 156 155 c 0
 164 95 207 54 279 54 c 0
 362 54 428 116 428 297 c 2
 428 530 l 1
 514 530 l 1
EndSplineSet
Validated: 1
EndChar

StartChar: ucircumflex
Encoding: 251 251 207
Width: 592
GlyphClass: 2
Flags: MW
HStem: -14 68<243 284> 0 21G<428 514 428 428> 510 20G<66 152 152 152 428 514 514 514> 580 110<194 320 194 320 261 323 261 387> 643 47<290 290>
VStem: 66 86<219.5 228 228 530> 428 86<0 90 90 90 297 530 0 530>
LayerCount: 2
Fore
SplineSet
257 580 m 1xb6
 194 580 l 1
 261 690 l 1
 320 690 l 1
 387 580 l 1
 323 580 l 1xb6
 290 643 l 1xae
 257 580 l 1xb6
514 530 m 1
 514 0 l 1
 428 0 l 1
 428 90 l 1x76
 395 28 l 1
 350 -5 311 -14 257 -14 c 0
 147 -14 83 48 71 121 c 0
 67 148 66 169 66 212 c 2
 66 530 l 1
 152 530 l 1
 152 228 l 2
 152 211 153 182 156 155 c 0
 164 95 207 54 279 54 c 0
 362 54 428 116 428 297 c 2
 428 530 l 1
 514 530 l 1
EndSplineSet
Validated: 1
EndChar

StartChar: udieresis
Encoding: 252 252 208
Width: 592
GlyphClass: 2
Flags: MW
HStem: -14 68<243 284> 0 21G<428 514 428 428> 510 20G<66 152 152 152 428 514 514 514> 583 92<204.5 229.5 350.5 375.5>
VStem: 66 86<219.5 228 228 530> 171 92<616.5 641.5> 317 92<616.5 641.5> 428 86<0 90 90 90 297 530 0 530>
LayerCount: 2
Fore
SplineSet
217 583 m 0xbf
 192 583 171 604 171 629 c 0
 171 654 192 675 217 675 c 0
 242 675 263 654 263 629 c 0
 263 604 242 583 217 583 c 0xbf
363 583 m 0
 338 583 317 604 317 629 c 0
 317 654 338 675 363 675 c 0
 388 675 409 654 409 629 c 0
 409 604 388 583 363 583 c 0
514 530 m 1xb9
 514 0 l 1
 428 0 l 1
 428 90 l 1x79
 395 28 l 1
 350 -5 311 -14 257 -14 c 0
 147 -14 83 48 71 121 c 0
 67 148 66 169 66 212 c 2
 66 530 l 1
 152 530 l 1
 152 228 l 2
 152 211 153 182 156 155 c 0
 164 95 207 54 279 54 c 0
 362 54 428 116 428 297 c 2
 428 530 l 1
 514 530 l 1xb9
EndSplineSet
Validated: 1
EndChar

StartChar: ugrave
Encoding: 249 249 209
Width: 592
GlyphClass: 2
Flags: MW
HStem: -14 68<243 284> 0 21G<428 514 428 428> 510 20G<66 152 152 152 428 514 514 514> 580 110<181 266 181 322>
VStem: 66 86<219.5 228 228 530> 428 86<0 90 90 90 297 530 0 530>
LayerCount: 2
Fore
SplineSet
266 580 m 1xbc
 181 690 l 1
 261 690 l 1
 322 580 l 1
 266 580 l 1xbc
514 530 m 1
 514 0 l 1
 428 0 l 1
 428 90 l 1x7c
 395 28 l 1
 350 -5 311 -14 257 -14 c 0
 147 -14 83 48 71 121 c 0
 67 148 66 169 66 212 c 2
 66 530 l 1
 152 530 l 1
 152 228 l 2
 152 211 153 182 156 155 c 0
 164 95 207 54 279 54 c 0
 362 54 428 116 428 297 c 2
 428 530 l 1
 514 530 l 1
EndSplineSet
Validated: 1
EndChar

StartChar: uhungarumlaut
Encoding: 369 369 210
Width: 592
GlyphClass: 2
Flags: MW
HStem: -14 68<243 284> 0 21G<428 514 428 428> 510 20G<66 152 152 152 428 514 514 514> 580 110<200 341 200 341 322 341 261 378 322 322>
VStem: 66 86<219.5 228 228 530> 428 86<0 90 90 90 297 530 0 530>
LayerCount: 2
Fore
SplineSet
256 580 m 1xbc
 200 580 l 1
 261 690 l 1
 341 690 l 1
 256 580 l 1xbc
322 580 m 1
 383 690 l 1
 463 690 l 1
 378 580 l 1
 322 580 l 1
514 530 m 1
 514 0 l 1
 428 0 l 1
 428 90 l 1x7c
 395 28 l 1
 350 -5 311 -14 257 -14 c 0
 147 -14 83 48 71 121 c 0
 67 148 66 169 66 212 c 2
 66 530 l 1
 152 530 l 1
 152 228 l 2
 152 211 153 182 156 155 c 0
 164 95 207 54 279 54 c 0
 362 54 428 116 428 297 c 2
 428 530 l 1
 514 530 l 1
EndSplineSet
Validated: 1
EndChar

StartChar: umacron
Encoding: 363 363 211
Width: 592
GlyphClass: 2
Flags: MW
HStem: -14 68<243 284> 0 21G<428 514 428 428> 510 20G<66 152 152 152 428 514 514 514> 604 52<170 410 170 410>
VStem: 66 86<219.5 228 228 530> 170 240<604 656 604 656> 428 86<0 90 90 90 297 530 0 530>
LayerCount: 2
Fore
SplineSet
410 604 m 1xbe
 170 604 l 1
 170 656 l 1
 410 656 l 1
 410 604 l 1xbe
514 530 m 1xba
 514 0 l 1
 428 0 l 1
 428 90 l 1x7a
 395 28 l 1
 350 -5 311 -14 257 -14 c 0
 147 -14 83 48 71 121 c 0
 67 148 66 169 66 212 c 2
 66 530 l 1
 152 530 l 1
 152 228 l 2
 152 211 153 182 156 155 c 0
 164 95 207 54 279 54 c 0
 362 54 428 116 428 297 c 2
 428 530 l 1
 514 530 l 1xba
EndSplineSet
Validated: 1
EndChar

StartChar: uogonek
Encoding: 371 371 212
Width: 592
GlyphClass: 2
Flags: MW
HStem: -223 54<380.5 451> -14 68<243 284> 0 21G<491 514 491 491> 510 20G<66 152 152 152 428 514 514 514>
VStem: 66 86<219.5 228 228 530> 315 82<-137.5 -100> 428 86<11 90 90 90 297 530>
LayerCount: 2
Fore
SplineSet
514 0 m 1xbe
 491 0 l 1xbe
 440 -9 397 -56 397 -119 c 0
 397 -156 412 -169 441 -169 c 0
 461 -169 479 -163 497 -149 c 1
 497 -198 l 1
 472 -215 441 -223 408 -223 c 0
 353 -223 315 -201 315 -138 c 0
 315 -62 369 -11 428 11 c 1
 428 90 l 1
 395 28 l 1
 350 -5 311 -14 257 -14 c 0
 147 -14 83 48 71 121 c 0
 67 148 66 169 66 212 c 2
 66 530 l 1
 152 530 l 1
 152 228 l 2
 152 211 153 182 156 155 c 0
 164 95 207 54 279 54 c 0xde
 362 54 428 116 428 297 c 2
 428 530 l 1
 514 530 l 1
 514 0 l 1xbe
EndSplineSet
Validated: 1
EndChar

StartChar: uring
Encoding: 367 367 213
Width: 592
GlyphClass: 2
Flags: MW
HStem: -14 68<243 284> 0 21G<428 514 428 428> 510 20G<66 152 152 152 428 514 514 514> 565 36<278 302 278 316.5> 697 36<278 302>
VStem: 66 86<219.5 228 228 530> 199 50<634 664 634 673.5> 331 50<634 664> 428 86<0 90 90 90 297 530 0 530>
LayerCount: 2
Fore
SplineSet
290 565 m 0xbf80
 237 565 199 600 199 649 c 0
 199 698 237 733 290 733 c 0
 343 733 381 698 381 649 c 0
 381 600 343 565 290 565 c 0xbf80
290 697 m 0
 266 697 249 679 249 649 c 0
 249 619 266 601 290 601 c 0
 314 601 331 619 331 649 c 0
 331 679 314 697 290 697 c 0
514 530 m 1
 514 0 l 1
 428 0 l 1
 428 90 l 1x7f80
 395 28 l 1
 350 -5 311 -14 257 -14 c 0
 147 -14 83 48 71 121 c 0
 67 148 66 169 66 212 c 2
 66 530 l 1
 152 530 l 1
 152 228 l 2
 152 211 153 182 156 155 c 0
 164 95 207 54 279 54 c 0
 362 54 428 116 428 297 c 2
 428 530 l 1
 514 530 l 1
EndSplineSet
Validated: 1
EndChar

StartChar: v
Encoding: 118 118 214
Width: 469
GlyphClass: 2
Flags: HMW
HStem: 0 63<269 269 269 318 213 269> 510 20G<12 107 107 107 428 519 519 519>
VStem: 12 507<530 530>
LayerCount: 2
Fore
SplineSet
519 537 m 1
 318 0 l 1
 213 0 l 1
 12 537 l 1
 107 537 l 1
 269 88 l 1
 428 537 l 1
 519 537 l 1
EndSplineSet
Validated: 1
EndChar

StartChar: w
Encoding: 119 119 215
Width: 785
GlyphClass: 2
Flags: HMW
HStem: 0 21G<170 272 170 170 508 610 508 508> 0 82<223 223 223 272 170 223> 446 84<390 390> 510 20G<1 100 100 100 339 446 446 446 687 779 779 779>
VStem: 1 778<530 530>
LayerCount: 2
Fore
SplineSet
779 530 m 1x98
 610 0 l 1
 508 0 l 1
 390 426 l 1xa8
 272 0 l 1
 170 0 l 1
 1 530 l 1
 100 530 l 1
 223 102 l 1
 339 530 l 1
 446 530 l 1
 564 105 l 1x58
 687 530 l 1
 779 530 l 1x98
EndSplineSet
Validated: 1
EndChar

StartChar: wacute
Encoding: 7811 7811 216
Width: 785
GlyphClass: 2
Flags: MW
HStem: 0 21G<170 272 170 170 508 610 508 508> 0 82<223 223 223 272 170 223> 446 84<390 390> 510 20G<1 100 100 100 339 446 446 446 687 779 779 779> 580 110<358 499 358 499>
VStem: 1 778<530 530>
LayerCount: 2
Fore
SplineSet
414 580 m 1x9c
 358 580 l 1
 419 690 l 1
 499 690 l 1
 414 580 l 1x9c
779 530 m 1
 610 0 l 1
 508 0 l 1
 390 446 l 1xac
 272 0 l 1
 170 0 l 1
 1 530 l 1
 100 530 l 1
 223 82 l 1
 339 530 l 1
 446 530 l 1
 564 85 l 1x5c
 687 530 l 1
 779 530 l 1
EndSplineSet
Validated: 1
EndChar

StartChar: wcircumflex
Encoding: 373 373 217
Width: 785
GlyphClass: 2
Flags: MW
HStem: 0 21G<170 272 170 170 508 610 508 508> 0 82<223 223 223 272 170 223> 446 84<390 390> 510 20G<1 100 100 100 339 446 446 446 687 779 779 779> 580 110<296 422 296 422 363 425 363 489> 643 47<392 392>
VStem: 1 778<530 530>
LayerCount: 2
Fore
SplineSet
359 580 m 1x9a
 296 580 l 1
 363 690 l 1
 422 690 l 1
 489 580 l 1
 425 580 l 1x5a
 392 643 l 1x96
 359 580 l 1x9a
779 530 m 1
 610 0 l 1
 508 0 l 1
 390 446 l 1xaa
 272 0 l 1
 170 0 l 1
 1 530 l 1
 100 530 l 1
 223 82 l 1
 339 530 l 1
 446 530 l 1
 564 85 l 1
 687 530 l 1
 779 530 l 1
EndSplineSet
Validated: 1
EndChar

StartChar: wdieresis
Encoding: 7813 7813 218
Width: 785
GlyphClass: 2
Flags: MW
HStem: 0 21G<170 272 170 170 508 610 508 508> 0 82<223 223 223 272 170 223> 446 84<390 390> 510 20G<1 100 100 100 339 446 446 446 687 779 779 779> 583 92<306.5 331.5 452.5 477.5>
VStem: 273 92<616.5 641.5> 419 92<616.5 641.5>
LayerCount: 2
Fore
SplineSet
319 583 m 0x9e
 294 583 273 604 273 629 c 0
 273 654 294 675 319 675 c 0
 344 675 365 654 365 629 c 0
 365 604 344 583 319 583 c 0x9e
465 583 m 0
 440 583 419 604 419 629 c 0
 419 654 440 675 465 675 c 0
 490 675 511 654 511 629 c 0
 511 604 490 583 465 583 c 0
779 530 m 1
 610 0 l 1
 508 0 l 1
 390 446 l 1xae
 272 0 l 1
 170 0 l 1
 1 530 l 1
 100 530 l 1
 223 82 l 1
 339 530 l 1
 446 530 l 1
 564 85 l 1x5e
 687 530 l 1
 779 530 l 1
EndSplineSet
Validated: 1
EndChar

StartChar: wgrave
Encoding: 7809 7809 219
Width: 785
GlyphClass: 2
Flags: MW
HStem: 0 21G<170 272 170 170 508 610 508 508> 0 82<223 223 223 272 170 223> 446 84<390 390> 510 20G<1 100 100 100 339 446 446 446 687 779 779 779> 580 110<283 368 283 424>
VStem: 1 778<530 530>
LayerCount: 2
Fore
SplineSet
368 580 m 1x9c
 283 690 l 1
 363 690 l 1
 424 580 l 1
 368 580 l 1x9c
779 530 m 1
 610 0 l 1
 508 0 l 1
 390 446 l 1xac
 272 0 l 1
 170 0 l 1
 1 530 l 1
 100 530 l 1
 223 82 l 1
 339 530 l 1
 446 530 l 1
 564 85 l 1x5c
 687 530 l 1
 779 530 l 1
EndSplineSet
Validated: 1
EndChar

StartChar: x
Encoding: 120 120 220
Width: 482
GlyphClass: 2
Flags: HMW
HStem: 0 21G<-6 93 -6 -6 370 470 370 370> 510 20G<1 103 103 103 369 468 468 468>
VStem: -6 476<0 0>
LayerCount: 2
Fore
SplineSet
282 277 m 1
 470 0 l 1
 370 0 l 1
 231 200 l 1
 93 0 l 1
 -6 0 l 1
 184 275 l 1
 1 537 l 1
 103 537 l 1
 236 342 l 1
 369 537 l 1
 468 537 l 1
 282 277 l 1
EndSplineSet
Validated: 1
EndChar

StartChar: y
Encoding: 121 121 221
Width: 503
GlyphClass: 2
Flags: HMW
HStem: -210 71<109.5 132.5 101.5 162> 510 20G<17 114 114 114 429 523 523 523>
VStem: 17 506<530 530>
LayerCount: 2
Fore
SplineSet
527 537 m 1
 247 -202 l 1
 164 -202 l 1
 222 -39 l 1
 229 -20 l 1
 9 537 l 5
 106 537 l 5
 272 94 l 1
 433 537 l 1
 527 537 l 1
EndSplineSet
Validated: 1
EndChar

StartChar: yacute
Encoding: 253 253 222
Width: 513
GlyphClass: 2
Flags: MW
HStem: -210 71<93.5 116.5 85.5 146> 510 20G<1 98 98 98 413 507 507 507> 580 110<223 364 223 364>
VStem: 1 506<530 530>
LayerCount: 2
Fore
SplineSet
279 580 m 1
 223 580 l 1
 284 690 l 1
 364 690 l 1
 279 580 l 1
507 530 m 1
 289 -45 l 2
 246 -157 189 -210 103 -210 c 0
 84 -210 72 -210 59 -208 c 1
 59 -138 l 1
 72 -139 81 -139 90 -139 c 0
 143 -139 178 -116 205 -46 c 2
 212 -27 l 1
 1 530 l 1
 98 530 l 1
 256 64 l 1
 413 530 l 1
 507 530 l 1
EndSplineSet
Validated: 1
EndChar

StartChar: ycircumflex
Encoding: 375 375 223
Width: 513
GlyphClass: 2
Flags: MW
HStem: -210 71<93.5 116.5 85.5 146> 510 20G<1 98 98 98 413 507 507 507> 580 110<161 287 161 287 228 290 228 354> 643 47<257 257>
VStem: 1 506<530 530>
LayerCount: 2
Fore
SplineSet
224 580 m 1xe8
 161 580 l 1
 228 690 l 1
 287 690 l 1
 354 580 l 1
 290 580 l 1xe8
 257 643 l 1xd8
 224 580 l 1xe8
507 530 m 1
 289 -45 l 2
 246 -157 189 -210 103 -210 c 0
 84 -210 72 -210 59 -208 c 1
 59 -138 l 1
 72 -139 81 -139 90 -139 c 0
 143 -139 178 -116 205 -46 c 2
 212 -27 l 1
 1 530 l 1
 98 530 l 1
 256 64 l 1
 413 530 l 1
 507 530 l 1
EndSplineSet
Validated: 1
EndChar

StartChar: ydieresis
Encoding: 255 255 224
Width: 513
GlyphClass: 2
Flags: MW
HStem: -210 71<93.5 116.5 85.5 146> 510 20G<1 98 98 98 413 507 507 507> 583 92<171.5 196.5 317.5 342.5>
VStem: 138 92<616.5 641.5> 284 92<616.5 641.5>
LayerCount: 2
Fore
SplineSet
184 583 m 0
 159 583 138 604 138 629 c 0
 138 654 159 675 184 675 c 0
 209 675 230 654 230 629 c 0
 230 604 209 583 184 583 c 0
330 583 m 0
 305 583 284 604 284 629 c 0
 284 654 305 675 330 675 c 0
 355 675 376 654 376 629 c 0
 376 604 355 583 330 583 c 0
507 530 m 1
 289 -45 l 2
 246 -157 189 -210 103 -210 c 0
 84 -210 72 -210 59 -208 c 1
 59 -138 l 1
 72 -139 81 -139 90 -139 c 0
 143 -139 178 -116 205 -46 c 2
 212 -27 l 1
 1 530 l 1
 98 530 l 1
 256 64 l 1
 413 530 l 1
 507 530 l 1
EndSplineSet
Validated: 1
EndChar

StartChar: ygrave
Encoding: 7923 7923 225
Width: 513
GlyphClass: 2
Flags: MW
HStem: -210 71<93.5 116.5 85.5 146> 510 20G<1 98 98 98 413 507 507 507> 580 110<148 233 148 289>
VStem: 1 506<530 530>
LayerCount: 2
Fore
SplineSet
233 580 m 1
 148 690 l 1
 228 690 l 1
 289 580 l 1
 233 580 l 1
507 530 m 1
 289 -45 l 2
 246 -157 189 -210 103 -210 c 0
 84 -210 72 -210 59 -208 c 1
 59 -138 l 1
 72 -139 81 -139 90 -139 c 0
 143 -139 178 -116 205 -46 c 2
 212 -27 l 1
 1 530 l 1
 98 530 l 1
 256 64 l 1
 413 530 l 1
 507 530 l 1
EndSplineSet
Validated: 1
EndChar

StartChar: z
Encoding: 122 122 226
Width: 461
GlyphClass: 2
Flags: HMW
HStem: 0 68<122 433 122 433> 458 68<42 328 42 428>
VStem: 20 413<0 66 66 66>
LayerCount: 2
Fore
SplineSet
433 78 m 1
 433 0 l 1
 20 0 l 1
 20 76 l 1
 318 458 l 5
 42 458 l 1
 42 537 l 1
 428 537 l 1
 428 457 l 1
 132 78 l 1
 433 78 l 1
EndSplineSet
Validated: 1
EndChar

StartChar: zacute
Encoding: 378 378 227
Width: 462
GlyphClass: 2
Flags: MW
HStem: 0 68<122 433 122 433> 458 68<42 328 42 428> 580 110<196 337 196 337>
VStem: 20 413<0 66 66 66>
LayerCount: 2
Fore
SplineSet
252 580 m 1
 196 580 l 1
 257 690 l 1
 337 690 l 1
 252 580 l 1
433 68 m 1
 433 0 l 1
 20 0 l 1
 20 66 l 1
 328 458 l 1
 42 458 l 1
 42 526 l 1
 428 526 l 1
 428 457 l 1
 122 68 l 1
 433 68 l 1
EndSplineSet
Validated: 1
EndChar

StartChar: zcaron
Encoding: 382 382 228
Width: 462
GlyphClass: 2
Flags: MW
HStem: 0 68<122 433 122 433> 458 68<42 328 42 428> 580 110<134 201 134 260>
VStem: 20 413<0 66 66 66>
LayerCount: 2
Fore
SplineSet
201 580 m 1
 134 690 l 1
 198 690 l 1
 231 627 l 1
 264 690 l 1
 327 690 l 1
 260 580 l 1
 201 580 l 1
433 68 m 1
 433 0 l 1
 20 0 l 1
 20 66 l 1
 328 458 l 1
 42 458 l 1
 42 526 l 1
 428 526 l 1
 428 457 l 1
 122 68 l 1
 433 68 l 1
EndSplineSet
Validated: 1
EndChar

StartChar: zdotaccent
Encoding: 380 380 229
Width: 462
GlyphClass: 2
Flags: MW
HStem: 0 68<122 433 122 433> 458 68<42 328 42 428> 594 110<214.5 245.5>
VStem: 175 110<633.5 664.5>
LayerCount: 2
Fore
SplineSet
230 594 m 0
 199 594 175 618 175 649 c 0
 175 680 199 704 230 704 c 0
 261 704 285 680 285 649 c 0
 285 618 261 594 230 594 c 0
433 68 m 1
 433 0 l 1
 20 0 l 1
 20 66 l 1
 328 458 l 1
 42 458 l 1
 42 526 l 1
 428 526 l 1
 428 457 l 1
 122 68 l 1
 433 68 l 1
EndSplineSet
Validated: 1
EndChar

StartChar: fi
Encoding: 64257 64257 230
Width: 522
GlyphClass: 3
Flags: HMW
HStem: 0 21G<78 164 78 78 358 444 358 358> 460 66<21 78 21 78 164 358> 680.49 68.51 680.49 73.51
VStem: 78 86<0 460 0 460 526 540 540 548> 358 86<0 460 460 460>
LayerCount: 2
Fore
SplineSet
444 526 m 1xec
 444 0 l 1
 358 0 l 1
 358 460 l 1
 164 460 l 1
 164 0 l 1
 78 0 l 1
 78 460 l 1
 21 460 l 1
 21 526 l 1
 78 526 l 1
 78 540 l 2
 78 560 79 586 81 604 c 0
 92 701 158 754 297 754 c 0xdc
 319 754 340 752 358 749 c 1
 358 678 l 1
 337.284376818 679.713322218 318.606602677 680.577540669 301.80041605 680.577540669 c 0
 210.706260908 680.577540669 174.598190912 655.187336387 167 602 c 0
 165 588 164 563 164 548 c 2
 164 526 l 1
 444 526 l 1xec
EndSplineSet
Validated: 1
Ligature2: "'liga' Standard Ligatures in Latin lookup 4 subtable" f i
EndChar

StartChar: fl
Encoding: 64258 64258 231
Width: 509
GlyphClass: 3
Flags: HMW
HStem: -4 67<398 484> 0 21G<68 154 68 68 484 484> 460 66<21 68 21 68 154 263> 688 66<229 276> 715 20G<418 418>
VStem: 68 86<0 460 0 460 526 540 540 548> 332 86<149 152 152 682 682 682>
LayerCount: 2
Fore
SplineSet
419 102 m 0xae
 420.657414541 73.8239528048 431.929409443 61.4432876317 462.491015779 61.4432876317 c 0
 468.808060597 61.4432876317 475.949241711 61.9722436227 484 63 c 1
 484 0 l 1
 465 -3 443 -4 423 -4 c 0
 373 -4 336 12 333 79 c 0xb6
 332 97 332 120 332 149 c 2
 332 682 l 1
 312 686 289 688 263 688 c 0
 195 688 164 651 157 602 c 0
 155 588 154 563 154 548 c 2
 154 526 l 1
 263 526 l 1
 263 460 l 1
 154 460 l 1
 154 0 l 1
 68 0 l 1
 68 460 l 1
 21 460 l 1
 21 526 l 1
 68 526 l 1
 68 540 l 2
 68 560 69 586 71 604 c 0
 82 701 148 754 267 754 c 0x76
 329 754 378 748 418 735 c 1
 418 152 l 2
 418 136 418 119 419 102 c 0xae
EndSplineSet
Validated: 1
Ligature2: "'liga' Standard Ligatures in Latin lookup 4 subtable" f l
EndChar

StartChar: zero
Encoding: 48 48 232
Width: 580
Flags: MW
HStem: -14 68<235 345 235 385> 636 68<235 345>
VStem: 41 96<255 435.5 255 445.5> 443 96<255 435.5>
LayerCount: 2
Fore
SplineSet
290 704 m 0
 480 704 539 546 539 345 c 0
 539 145 480 -14 290 -14 c 0
 100 -14 41 145 41 345 c 0
 41 546 100 704 290 704 c 0
290 54 m 0
 400 54 443 165 443 345 c 0
 443 526 400 636 290 636 c 0
 180 636 137 526 137 345 c 0
 137 165 180 54 290 54 c 0
EndSplineSet
Validated: 1
EndChar

StartChar: one
Encoding: 49 49 233
Width: 580
Flags: MW
HStem: 0 21G<320 406 320 320> 670 20G<351 406 406 406>
VStem: 320 86<0 599 599 599>
LayerCount: 2
Fore
SplineSet
406 690 m 1
 406 0 l 1
 320 0 l 1
 320 599 l 1
 130 486 l 1
 130 577 l 1
 276 668 l 2
 303 685 327 690 351 690 c 2
 406 690 l 1
EndSplineSet
Validated: 1
EndChar

StartChar: two
Encoding: 50 50 234
Width: 580
Flags: MW
HStem: 0 70<185 523 185 523> 636 68<261.5 347.5>
VStem: 77.5 86 430 96<470.5 539.5>
LayerCount: 2
Fore
SplineSet
185 70 m 1
 523 70 l 1
 523 0 l 1
 60 0 l 1
 60 49 l 1
 310 304 l 2
 391 387 430 437 430 504 c 0
 430 575 389 636 306 636 c 0
 217 636 174 581 164 484 c 2
 163 474 l 1
 77 474 l 1
 78 484 l 2
 92 628 178 704 316 704 c 0
 457 704 526 617 526 514 c 0
 526 420 475 356 358 241 c 2
 185 70 l 1
EndSplineSet
Validated: 1
EndChar

StartChar: three
Encoding: 51 51 235
Width: 580
Flags: MW
HStem: -14 68<250 334.5 250 350.5> 314 70<257 274 257 274> 636 68<263.5 336.5>
VStem: 45.5 86 72.5 86 422 96<489.5 553.5> 438 96<145 227.5>
LayerCount: 2
Fore
SplineSet
396 367 m 1xf2
 481 343 534 282 534 192 c 0
 534 63 417 -14 284 -14 c 0
 153 -14 61 45 46 194 c 2
 45 204 l 1
 131 204 l 1
 132 194 l 2
 142 97 208 54 292 54 c 0
 377 54 438 103 438 187 c 0xf2
 438 268 386 314 274 314 c 2
 257 314 l 1
 257 384 l 1
 274 384 l 2
 356 384 422 432 422 519 c 0
 422 588 373 636 300 636 c 0
 227 636 168 592 159 501 c 2
 158 491 l 1
 72 491 l 1
 73 501 l 2
 86 626 171 704 311 704 c 0
 438 704 518 633 518 529 c 0xec
 518 450 468 388 396 367 c 1xf2
EndSplineSet
Validated: 1
EndChar

StartChar: four
Encoding: 52 52 236
Width: 580
Flags: MW
HStem: 0 21G<375 461 375 375> 174 70<142 375 142 375 461 548> 670 20G<375 461 461 461>
VStem: 375 86<0 174 0 174 244 575 575 575>
LayerCount: 2
Fore
SplineSet
548 174 m 1
 461 174 l 1
 461 0 l 1
 375 0 l 1
 375 174 l 1
 33 174 l 1
 33 217 l 1
 375 690 l 1
 461 690 l 1
 461 244 l 1
 548 244 l 1
 548 174 l 1
375 244 m 1
 375 575 l 1
 359 548 341 519 318 487 c 2
 142 244 l 1
 375 244 l 1
EndSplineSet
Validated: 1
EndChar

StartChar: five
Encoding: 53 53 237
Width: 580
Flags: MW
HStem: -14 68<247 335.5 247 355> 387 68<286 340> 620 70<186 508 186 186>
VStem: 441 96<166 270>
LayerCount: 2
Fore
SplineSet
307 455 m 0
 461 455 537 355 537 224 c 0
 537 72 419 -14 291 -14 c 0
 152 -14 71 53 58 183 c 2
 57 193 l 1
 143 193 l 1
 145 183 l 2
 161 104 204 54 290 54 c 0
 381 54 441 114 441 218 c 0
 441 322 386 387 294 387 c 0
 230 387 184 360 150 289 c 1
 68 289 l 1
 116 690 l 1
 508 690 l 1
 508 620 l 1
 186 620 l 1
 155 380 l 1
 198 426 l 1
 231 446 265 455 307 455 c 0
EndSplineSet
Validated: 1
EndChar

StartChar: six
Encoding: 54 54 238
Width: 580
Flags: MW
HStem: -14 68<243.5 330 243.5 357> 398 68<277 339.5> 636 68<256.5 338>
VStem: 43 94<360 360 360 451> 435 96<172 270>
LayerCount: 2
Fore
SplineSet
302 466 m 0
 446 466 531 369 531 232 c 0
 531 85 427 -14 287 -14 c 0
 133 -14 43 83 43 312 c 0
 43 590 168 704 310 704 c 0
 428 704 512 631 523 518 c 2
 524 508 l 1
 432 508 l 1
 430 518 l 2
 414 596 373 636 303 636 c 0
 210 636 144 561 137 360 c 1
 176 422 l 1
 213 453 252 466 302 466 c 0
287 54 m 0
 373 54 435 122 435 222 c 0
 435 318 392 398 287 398 c 0
 209 398 143 339 143 224 c 0
 143 128 200 54 287 54 c 0
EndSplineSet
Validated: 1
EndChar

StartChar: seven
Encoding: 55 55 239
Width: 580
Flags: MW
HStem: 0 21G<102 194 102 102> 620 70<50 433 50 538>
VStem: 50 488<650 690 650 690 650 690>
LayerCount: 2
Fore
SplineSet
538 690 m 1
 538 650 l 1
 194 0 l 1
 102 0 l 1
 433 620 l 1
 50 620 l 1
 50 690 l 1
 538 690 l 1
EndSplineSet
Validated: 1
EndChar

StartChar: eight
Encoding: 56 56 240
Width: 580
Flags: MW
HStem: -15 68<241.5 342.5 241.5 350.5> 324 68<252 338 252 344.5> 636 68<252.5 339.5>
VStem: 44 96<149.5 224.5 149.5 234.5> 74 93<480.5 548 480 575> 425 93<480 548> 440 96<149.5 224.5>
LayerCount: 2
Fore
SplineSet
404 365 m 1xf2
 478 341 536 276 536 193 c 0
 536 42 411 -15 290 -15 c 0
 159 -15 44 42 44 193 c 0xf2
 44 276 107 341 181 364 c 1
 119 388 74 443 74 518 c 0
 74 632 161 704 296 704 c 0
 431 704 518 632 518 518 c 0xec
 518 442 468 388 404 365 c 1xf2
296 636 m 0xec
 209 636 167 581 167 515 c 0
 167 445 209 392 295 392 c 0
 381 392 425 445 425 515 c 0
 425 581 383 636 296 636 c 0xec
292 53 m 0xf2
 393 53 440 110 440 189 c 0
 440 260 398 324 291 324 c 0
 184 324 140 260 140 189 c 0
 140 110 191 53 292 53 c 0xf2
EndSplineSet
Validated: 1
EndChar

StartChar: nine
Encoding: 57 57 241
Width: 580
Flags: MW
HStem: -14 68<242 323.5 242 341> 224 68<240.5 303> 636 68<250 336.5>
VStem: 49 96<420 518 420 531.5> 443 94<330 330>
LayerCount: 2
Fore
SplineSet
293 704 m 0
 447 704 537 607 537 378 c 0
 537 100 412 -14 270 -14 c 0
 152 -14 68 59 57 172 c 2
 56 182 l 1
 148 182 l 1
 150 172 l 2
 166 94 207 54 277 54 c 0
 370 54 436 129 443 330 c 1
 404 268 l 1
 367 237 328 224 278 224 c 0
 134 224 49 321 49 458 c 0
 49 605 153 704 293 704 c 0
293 292 m 0
 371 292 437 351 437 466 c 0
 437 562 380 636 293 636 c 0
 207 636 145 568 145 468 c 0
 145 372 188 292 293 292 c 0
EndSplineSet
Validated: 1
EndChar

StartChar: fraction
Encoding: 8260 8260 242
Width: 235
Flags: MW
HStem: 0 21G<-150 -63 -150 -150> 670 20G<298 385 385 385>
VStem: -150 535
LayerCount: 2
Fore
SplineSet
-63 0 m 1
 -150 0 l 1
 298 690 l 1
 385 690 l 1
 -63 0 l 1
EndSplineSet
Validated: 1
EndChar

StartChar: asterisk
Encoding: 42 42 243
Width: 560
Flags: MW
HStem: 82 393<181 311 249 379>
VStem: 254 52
LayerCount: 2
Fore
SplineSet
301 296 m 1
 456 357 l 1
 475 298 l 1
 316 257 l 1
 429 119 l 1
 379 82 l 1
 280 235 l 1
 181 82 l 1
 131 119 l 1
 244 257 l 1
 85 298 l 1
 104 357 l 1
 259 296 l 1
 249 475 l 1
 311 475 l 1
 301 296 l 1
EndSplineSet
Validated: 1
EndChar

StartChar: backslash
Encoding: 92 92 244
Width: 303
Flags: MW
HStem: -30 750<-5 308 -5 246>
VStem: -5 313
LayerCount: 2
Fore
SplineSet
308 -30 m 1
 246 -30 l 1
 -5 720 l 1
 57 720 l 1
 308 -30 l 1
EndSplineSet
Validated: 1
EndChar

StartChar: bullet
Encoding: 8226 8226 245
Width: 364
Flags: MW
HStem: 201 208<152.5 211.5>
VStem: 78 208<275.5 334.5>
LayerCount: 2
Fore
SplineSet
182 409 m 0
 241 409 286 364 286 305 c 0
 286 246 241 201 182 201 c 0
 123 201 78 246 78 305 c 0
 78 364 123 409 182 409 c 0
EndSplineSet
Validated: 1
EndChar

StartChar: colon
Encoding: 58 58 246
Width: 220
Flags: MW
HStem: -14 128<82.5 119.5> 416 128<82.5 119.5>
VStem: 37 128<31.5 68.5 461.5 498.5>
LayerCount: 2
Fore
SplineSet
101 544 m 0
 138 544 165 517 165 480 c 0
 165 443 138 416 101 416 c 0
 64 416 37 443 37 480 c 0
 37 517 64 544 101 544 c 0
101 114 m 0
 138 114 165 87 165 50 c 0
 165 13 138 -14 101 -14 c 0
 64 -14 37 13 37 50 c 0
 37 87 64 114 101 114 c 0
EndSplineSet
Validated: 1
EndChar

StartChar: comma
Encoding: 44 44 247
Width: 220
Flags: MW
HStem: -120 220<47 50 -31 140>
VStem: -31 171
LayerCount: 2
Fore
SplineSet
140 90 m 1
 50 -120 l 1
 -31 -120 l 1
 47 100 l 1
 140 100 l 1
 140 90 l 1
EndSplineSet
Validated: 1
EndChar

StartChar: ellipsis
Encoding: 8230 8230 248
Width: 620
Flags: MW
HStem: -14 128<82.5 119.5 282.5 319.5 482.5 519.5>
VStem: 37 128<31.5 68.5> 237 128<31.5 68.5> 437 128<31.5 68.5>
LayerCount: 2
Fore
SplineSet
101 114 m 0
 138 114 165 87 165 50 c 0
 165 13 138 -14 101 -14 c 0
 64 -14 37 13 37 50 c 0
 37 87 64 114 101 114 c 0
301 114 m 0
 338 114 365 87 365 50 c 0
 365 13 338 -14 301 -14 c 0
 264 -14 237 13 237 50 c 0
 237 87 264 114 301 114 c 0
501 114 m 0
 538 114 565 87 565 50 c 0
 565 13 538 -14 501 -14 c 0
 464 -14 437 13 437 50 c 0
 437 87 464 114 501 114 c 0
EndSplineSet
Validated: 1
EndChar

StartChar: exclam
Encoding: 33 33 249
Width: 242
Flags: MW
HStem: -14 128<102.5 139.5> 670 20G<70 172 172 172>
VStem: 57 128<31.5 68.5> 76 90
LayerCount: 2
Fore
SplineSet
160 180 m 1xd0
 82 180 l 1
 70 690 l 1
 172 690 l 1
 160 180 l 1xd0
121 114 m 0xe0
 158 114 185 87 185 50 c 0
 185 13 158 -14 121 -14 c 0
 84 -14 57 13 57 50 c 0
 57 87 84 114 121 114 c 0xe0
EndSplineSet
Validated: 1
EndChar

StartChar: exclamdown
Encoding: 161 161 250
Width: 242
Flags: MW
HStem: 416 128<102.5 139.5>
VStem: 57 128<461.5 498.5> 76 90
LayerCount: 2
Fore
SplineSet
121 416 m 0xc0
 84 416 57 443 57 480 c 0
 57 517 84 544 121 544 c 0
 158 544 185 517 185 480 c 0
 185 443 158 416 121 416 c 0xc0
82 350 m 1xa0
 160 350 l 1
 172 -160 l 1
 70 -160 l 1
 82 350 l 1xa0
EndSplineSet
Validated: 1
EndChar

StartChar: numbersign
Encoding: 35 35 251
Width: 580
Flags: MW
HStem: 0 21G<113 171 113 113 262 320 262 262> 219 56<70 160 70 172 230 309 70 218 379 480> 415 56<100 201 100 213 100 260 271 351 420 510> 670 20G<260 318 318 318 409 467 467 467>
VStem: 70 440<219 471 275 471>
LayerCount: 2
Fore
SplineSet
408 415 m 1
 379 275 l 1
 480 275 l 1
 480 219 l 1
 367 219 l 1
 320 0 l 1
 262 0 l 1
 309 219 l 1
 218 219 l 1
 171 0 l 1
 113 0 l 1
 160 219 l 1
 70 219 l 1
 70 275 l 1
 172 275 l 1
 201 415 l 1
 100 415 l 1
 100 471 l 1
 213 471 l 1
 260 690 l 1
 318 690 l 1
 271 471 l 1
 362 471 l 1
 409 690 l 1
 467 690 l 1
 420 471 l 1
 510 471 l 1
 510 415 l 1
 408 415 l 1
351 415 m 1
 260 415 l 1
 230 275 l 1
 321 275 l 1
 351 415 l 1
EndSplineSet
Validated: 1
EndChar

StartChar: period
Encoding: 46 46 252
Width: 220
Flags: MW
HStem: -14 128<82.5 119.5>
VStem: 37 128<31.5 68.5>
LayerCount: 2
Fore
SplineSet
101 114 m 0
 138 114 165 87 165 50 c 0
 165 13 138 -14 101 -14 c 0
 64 -14 37 13 37 50 c 0
 37 87 64 114 101 114 c 0
EndSplineSet
Validated: 1
EndChar

StartChar: periodcentered
Encoding: 183 183 253
Width: 202
Flags: MW
HStem: 236 138<81.5 120.5>
VStem: 32 138<285.5 324.5>
LayerCount: 2
Fore
SplineSet
101 374 m 0
 140 374 170 344 170 305 c 0
 170 266 140 236 101 236 c 0
 62 236 32 266 32 305 c 0
 32 344 62 374 101 374 c 0
EndSplineSet
Validated: 1
EndChar

StartChar: question
Encoding: 63 63 254
Width: 499
Flags: MW
HStem: -14 128<222.5 259.5> 636 68<219.5 293>
VStem: 35 90<494 494> 177 128<31.5 68.5> 198 86<180 180> 372 96<491 555.5>
LayerCount: 2
Fore
SplineSet
260 704 m 0xec
 394 704 468 624 468 521 c 0
 468 451 434 388 363 317 c 0
 302 256 287 229 284 180 c 1
 198 180 l 1
 204 239 222 276 278 340 c 0
 349 421 372 461 372 521 c 0
 372 590 329 636 257 636 c 0
 182 636 131 587 125 494 c 1
 35 494 l 1
 39 622 129 704 260 704 c 0xec
241 114 m 0xf4
 278 114 305 87 305 50 c 0
 305 13 278 -14 241 -14 c 0
 204 -14 177 13 177 50 c 0
 177 87 204 114 241 114 c 0xf4
EndSplineSet
Validated: 1
EndChar

StartChar: questiondown
Encoding: 191 191 255
Width: 491
Flags: MW
HStem: -174 68<241 314.5 241 339.5> 416 128<274.5 311.5>
VStem: 66 96<-25.5 39 -25.5 44> 229 128<461.5 498.5> 250 86<350 350> 409 90<36 36>
LayerCount: 2
Fore
SplineSet
293 416 m 0xf4
 256 416 229 443 229 480 c 0
 229 517 256 544 293 544 c 0
 330 544 357 517 357 480 c 0
 357 443 330 416 293 416 c 0xf4
274 -174 m 0
 140 -174 66 -94 66 9 c 0
 66 79 100 142 171 213 c 0
 232 274 247 301 250 350 c 1
 336 350 l 1xec
 330 291 312 254 256 190 c 0
 185 109 162 69 162 9 c 0
 162 -60 205 -106 277 -106 c 0
 352 -106 403 -57 409 36 c 1
 499 36 l 1
 495 -92 405 -174 274 -174 c 0
EndSplineSet
Validated: 1
EndChar

StartChar: quotedbl
Encoding: 34 34 256
Width: 339
Flags: MW
HStem: 485 250<96 166 96 96 236 236 236 306>
VStem: 91 80 231 80
LayerCount: 2
Fore
SplineSet
166 485 m 1
 96 485 l 1
 86 735 l 1
 176 735 l 1
 166 485 l 1
306 485 m 1
 236 485 l 1
 226 735 l 1
 316 735 l 1
 306 485 l 1
EndSplineSet
Validated: 1
EndChar

StartChar: quotesingle
Encoding: 39 39 257
Width: 88
Flags: HMW
HStem: 485 250<9 79 9 9>
VStem: 4 80
LayerCount: 2
Fore
SplineSet
9 485 m 1
 13.9442764137 518.487573555 16.4968658375 551.97530481 16.4968658375 585.463067021 c 0
 16.4968658375 635.308782089 10.8414522316 685.154565742 -1 735 c 1
 14.5328441372 741.403461641 30.0659500852 745.001095519 45.5993178443 745.001095519 c 0
 60.0659848085 745.001095519 74.5328788604 741.880606327 89 735 c 1
 73.7763671875 642.891601562 41 564 9 485 c 1
EndSplineSet
Validated: 1
EndChar

StartChar: semicolon
Encoding: 59 59 258
Width: 220
Flags: MW
HStem: -120 230<47 51 -31 141> 416 128<82.5 119.5>
VStem: 37 128<461.5 498.5>
LayerCount: 2
Fore
SplineSet
101 544 m 0
 138 544 165 517 165 480 c 0
 165 443 138 416 101 416 c 0
 64 416 37 443 37 480 c 0
 37 517 64 544 101 544 c 0
141 98 m 1
 51 -120 l 1
 -31 -120 l 1
 47 110 l 1
 141 110 l 1
 141 98 l 1
EndSplineSet
Validated: 1
EndChar

StartChar: slash
Encoding: 47 47 259
Width: 303
Flags: MW
HStem: -30 750<-5 308 -5 308>
VStem: -5 313
LayerCount: 2
Fore
SplineSet
57 -30 m 1
 -5 -30 l 1
 246 720 l 1
 308 720 l 1
 57 -30 l 1
EndSplineSet
Validated: 1
EndChar

StartChar: underscore
Encoding: 95 95 260
Width: 500
Flags: MW
HStem: -86 56<50 450 50 450>
VStem: 50 400<-86 -30 -86 -30>
LayerCount: 2
Fore
SplineSet
450 -86 m 1
 50 -86 l 1
 50 -30 l 1
 450 -30 l 1
 450 -86 l 1
EndSplineSet
Validated: 1
EndChar

StartChar: braceleft
Encoding: 123 123 261
Width: 303
Flags: MW
HStem: -80 56<258 259 259 270> 322 56<64 64> 724 56<228.5 270 259 270 259 270>
VStem: 123 58<9.5 36.5 9.5 36.5 663.5 690.5> 146 59<232.5 267 433 467.5>
LayerCount: 2
Fore
SplineSet
270 724 m 1xa8
 258 724 l 2
 199 724 181 706 181 675 c 0xb0
 181 652 183 639 192 575 c 0
 202 505 205 483 205 452 c 0
 205 394 173 358 118 351 c 1
 172 344 205 306 205 248 c 0xa8
 205 217 202 195 192 125 c 0
 183 61 181 48 181 25 c 0
 181 -6 199 -24 258 -24 c 2
 270 -24 l 1
 270 -80 l 1
 259 -80 l 2
 173 -80 123 -56 123 26 c 0xb0
 123 47 125 64 135 135 c 0
 143 190 146 217 146 245 c 0
 146 289 124 316 64 322 c 1
 64 378 l 1
 124 384 146 411 146 455 c 0xe8
 146 483 143 510 135 565 c 0
 125 636 123 653 123 674 c 0xb0
 123 756 173 780 259 780 c 2
 270 780 l 1
 270 724 l 1xa8
EndSplineSet
Validated: 1
EndChar

StartChar: braceright
Encoding: 125 125 262
Width: 303
Flags: MW
HStem: -80 56<33 44 33 45> 322 56<239 239> 724 56<33 44 44 45 33 44>
VStem: 98 59<232.5 267 231 277 433 467.5> 122 58<9.5 36.5 663.5 690.5>
LayerCount: 2
Fore
SplineSet
239 378 m 1xf0
 239 322 l 1
 179 316 157 289 157 245 c 0xf0
 157 217 160 190 168 135 c 0
 178 64 180 47 180 26 c 0
 180 -56 130 -80 44 -80 c 2
 33 -80 l 1
 33 -24 l 1
 45 -24 l 2
 104 -24 122 -6 122 25 c 0xe8
 122 48 120 61 111 125 c 0
 101 195 98 217 98 248 c 0
 98 306 130 342 185 349 c 1
 131 356 98 394 98 452 c 0xf0
 98 483 101 505 111 575 c 0
 120 639 122 652 122 675 c 0
 122 706 104 724 45 724 c 2
 33 724 l 1
 33 780 l 1
 44 780 l 2
 130 780 180 756 180 674 c 0xe8
 180 653 178 636 168 565 c 0
 160 510 157 483 157 455 c 0
 157 411 179 384 239 378 c 1xf0
EndSplineSet
Validated: 1
EndChar

StartChar: bracketleft
Encoding: 91 91 263
Width: 307
Flags: MW
HStem: -80 56<156 261 156 261> 724 56<156 261 156 156>
VStem: 98 58<-24 724 -24 780 -24 780>
LayerCount: 2
Fore
SplineSet
261 780 m 1
 261 724 l 1
 156 724 l 1
 156 -24 l 1
 261 -24 l 1
 261 -80 l 1
 98 -80 l 1
 98 780 l 1
 261 780 l 1
EndSplineSet
Validated: 1
EndChar

StartChar: bracketright
Encoding: 93 93 264
Width: 295
Flags: MW
HStem: -80 56<34 139 34 197 34 139> 724 56<34 139 34 197>
VStem: 139 58<-24 724 724 724>
LayerCount: 2
Fore
SplineSet
197 -80 m 1
 34 -80 l 1
 34 -24 l 1
 139 -24 l 1
 139 724 l 1
 34 724 l 1
 34 780 l 1
 197 780 l 1
 197 -80 l 1
EndSplineSet
Validated: 1
EndChar

StartChar: parenleft
Encoding: 40 40 265
Width: 315
Flags: MW
HStem: -80 860<221 279 221 279>
VStem: 100 62<275 425 275 429>
LayerCount: 2
Fore
SplineSet
221 780 m 1
 279 780 l 1
 205 655 162 500 162 350 c 0
 162 200 205 45 279 -80 c 1
 221 -80 l 1
 146 33 100 192 100 350 c 0
 100 508 146 667 221 780 c 1
EndSplineSet
Validated: 1
EndChar

StartChar: parenright
Encoding: 41 41 266
Width: 315
Flags: MW
HStem: -80 860<30 88 30 88>
VStem: 147 62<275 425>
LayerCount: 2
Fore
SplineSet
30 780 m 1
 88 780 l 1
 163 667 209 508 209 350 c 0
 209 192 163 33 88 -80 c 1
 30 -80 l 1
 104 45 147 200 147 350 c 0
 147 500 104 655 30 780 c 1
EndSplineSet
Validated: 1
EndChar

StartChar: emdash
Encoding: 8212 8212 267
Width: 1000
Flags: MW
HStem: 264 56<70 930 70 930>
VStem: 70 860<264 320 264 320>
LayerCount: 2
Fore
SplineSet
930 264 m 1
 70 264 l 1
 70 320 l 1
 930 320 l 1
 930 264 l 1
EndSplineSet
Validated: 1
EndChar

StartChar: endash
Encoding: 8211 8211 268
Width: 500
Flags: MW
HStem: 264 56<70 430 70 430>
VStem: 70 360<264 320 264 320>
LayerCount: 2
Fore
SplineSet
430 264 m 1
 70 264 l 1
 70 320 l 1
 430 320 l 1
 430 264 l 1
EndSplineSet
Validated: 1
EndChar

StartChar: hyphen
Encoding: 45 45 269
Width: 274
Flags: MW
HStem: 255 56<32 242 32 242>
VStem: 32 210<255 311 255 311>
LayerCount: 2
Fore
SplineSet
242 255 m 1
 32 255 l 1
 32 311 l 1
 242 311 l 1
 242 255 l 1
EndSplineSet
Validated: 1
EndChar

StartChar: guillemotleft
Encoding: 171 171 270
Width: 557
Flags: MW
HStem: 82 332<257 330 257 330 257 427 427 500>
VStem: 120 380<82 248>
LayerCount: 2
Fore
SplineSet
330 414 m 1
 193 248 l 1
 330 82 l 1
 257 82 l 1
 120 248 l 1
 257 414 l 1
 330 414 l 1
500 414 m 1
 363 248 l 1
 500 82 l 1
 427 82 l 1
 290 248 l 1
 427 414 l 1
 500 414 l 1
EndSplineSet
Validated: 1
EndChar

StartChar: guillemotright
Encoding: 187 187 271
Width: 557
Flags: MW
HStem: 82 332<57 130 57 130 57 227 227 300>
VStem: 57 380<82 248 248 414>
LayerCount: 2
Fore
SplineSet
267 248 m 1
 130 82 l 1
 57 82 l 1
 194 248 l 1
 57 414 l 1
 130 414 l 1
 267 248 l 1
437 248 m 1
 300 82 l 1
 227 82 l 1
 364 248 l 1
 227 414 l 1
 300 414 l 1
 437 248 l 1
EndSplineSet
Validated: 1
EndChar

StartChar: guilsinglleft
Encoding: 8249 8249 272
Width: 387
Flags: MW
HStem: 82 332<257 330 257 330>
VStem: 120 210<82 248>
LayerCount: 2
Fore
SplineSet
330 414 m 1
 193 248 l 1
 330 82 l 1
 257 82 l 1
 120 248 l 1
 257 414 l 1
 330 414 l 1
EndSplineSet
Validated: 1
EndChar

StartChar: guilsinglright
Encoding: 8250 8250 273
Width: 387
Flags: MW
HStem: 82 332<57 130 57 130>
VStem: 57 210<82 248 248 414>
LayerCount: 2
Fore
SplineSet
267 248 m 1
 130 82 l 1
 57 82 l 1
 194 248 l 1
 57 414 l 1
 130 414 l 1
 267 248 l 1
EndSplineSet
Validated: 1
EndChar

StartChar: quotedblbase
Encoding: 8222 8222 274
Width: 390
Flags: MW
HStem: -120 220<47 50 -31 140 139 139 139 140 217 220>
VStem: -31 341<-120 90>
LayerCount: 2
Fore
SplineSet
140 90 m 1
 50 -120 l 1
 -31 -120 l 1
 47 100 l 1
 140 100 l 1
 140 90 l 1
310 90 m 1
 220 -120 l 1
 139 -120 l 1
 217 100 l 1
 310 100 l 1
 310 90 l 1
EndSplineSet
Validated: 1
EndChar

StartChar: quotedblleft
Encoding: 8220 8220 275
Width: 417
Flags: MW
HStem: 485 250<54 225 54 225 224 224 224 225 148 317>
VStem: 54 341<485 735 495 735>
LayerCount: 2
Fore
SplineSet
54 495 m 1
 148 735 l 1
 225 735 l 1
 147 485 l 1
 54 485 l 1
 54 495 l 1
224 495 m 1
 318 735 l 1
 395 735 l 1
 317 485 l 1
 224 485 l 1
 224 495 l 1
EndSplineSet
Validated: 1
EndChar

StartChar: quotedblright
Encoding: 8221 8221 276
Width: 417
Flags: MW
HStem: 485 250<22 193 22 193 192 192 192 193 100 269> 715 20G<100 193 193 193 270 363 363 363>
VStem: 22 341<485 725>
LayerCount: 2
Fore
SplineSet
193 725 m 1x60
 99 485 l 1
 22 485 l 1xa0
 100 735 l 1
 193 735 l 1
 193 725 l 1x60
363 725 m 1
 269 485 l 1
 192 485 l 1
 270 735 l 1
 363 735 l 1
 363 725 l 1
EndSplineSet
Validated: 1
EndChar

StartChar: quoteleft
Encoding: 8216 8216 277
Width: 247
Flags: MW
HStem: 715 20G<148 225 225 225>
VStem: 54 171
LayerCount: 2
Fore
SplineSet
54 495 m 1
 148 735 l 1
 225 735 l 1
 147 485 l 1
 54 485 l 1
 54 495 l 1
EndSplineSet
Validated: 1
EndChar

StartChar: quoteright
Encoding: 8217 8217 278
Width: 247
Flags: MW
HStem: 715 20G<100 193 193 193>
VStem: 22 171
LayerCount: 2
Fore
SplineSet
193 725 m 1
 99 485 l 1
 22 485 l 1
 100 735 l 1
 193 735 l 1
 193 725 l 1
EndSplineSet
Validated: 1
EndChar

StartChar: quotesinglbase
Encoding: 8218 8218 279
Width: 220
Flags: MW
HStem: -120 220<47 50 -31 140>
VStem: -31 171
LayerCount: 2
Fore
SplineSet
140 90 m 1
 50 -120 l 1
 -31 -120 l 1
 47 100 l 1
 140 100 l 1
 140 90 l 1
EndSplineSet
Validated: 1
EndChar

StartChar: cent
Encoding: 162 162 281
Width: 560
Flags: MW
HStem: -13 21G<261 261> -12 21G<319 319> 476 67<319 319> 521 20G<261 261> 523 20G<319 319>
VStem: 49 94<202.5 331 202.5 344.5> 261 58<-90 -13 -13 -13 55 474 474 474 543 620>
LayerCount: 2
Fore
SplineSet
319 476 m 1x66
 319 54 l 1
 374 64 412 103 427 169 c 1
 517 169 l 1
 494 58 420 -2 319 -12 c 1
 319 -90 l 1
 261 -90 l 1x4e
 261 -13 l 1
 139 -3 49 82 49 264 c 0
 49 425 145 523 261 541 c 1
 261 620 l 1
 319 620 l 1x96
 319 543 l 1
 433 536 507 462 522 352 c 1
 432 352 l 1
 415 427 377 468 319 476 c 1x66
143 270 m 0
 143 135 195 69 261 55 c 1
 261 474 l 1
 194 458 143 392 143 270 c 0
EndSplineSet
Validated: 1
EndChar

StartChar: currency
Encoding: 164 164 282
Width: 580
Flags: MW
HStem: 121 58<270 310> 423 58<270.5 309.5 270.5 323.5>
VStem: 110 62<281.5 321> 408 62<281.5 320.5 281.5 336.5>
LayerCount: 2
Fore
SplineSet
470 301 m 0
 470 262 458 226 437 196 c 1
 497 136 l 1
 456 95 l 1
 396 155 l 1
 366 134 330 121 290 121 c 0
 250 121 214 133 185 155 c 1
 125 96 l 1
 84 137 l 1
 144 196 l 1
 122 225 110 262 110 301 c 0
 110 341 123 377 144 407 c 1
 84 467 l 1
 125 508 l 1
 185 448 l 1
 215 469 251 481 290 481 c 0
 329 481 366 469 395 447 c 1
 456 508 l 1
 497 467 l 1
 436 406 l 1
 458 377 470 340 470 301 c 0
290 179 m 0
 357 179 408 230 408 301 c 0
 408 372 357 423 290 423 c 0
 223 423 172 372 172 301 c 0
 172 230 223 179 290 179 c 0
EndSplineSet
Validated: 1
EndChar

StartChar: dollar
Encoding: 36 36 283
Width: 580
Flags: MW
HStem: -13 21G<267 267> -12 21G<325 325> 682 20G<267 267> 683 20G<325 325>
VStem: 53 92<186 186> 78 92<490.5 555.5 490.5 567.5> 267 58<-90 -13 -13 -13 56 301 405 634 703 780> 427 92<509 509> 434 92<135 200>
LayerCount: 2
Fore
SplineSet
526 181 m 0x5680
 526 69 438 -1 325 -12 c 1
 325 -90 l 1
 267 -90 l 1x5680
 267 -13 l 1
 140 -5 58 70 53 186 c 1
 145 186 l 1x9a80
 154 115 196 67 267 56 c 1
 267 312 l 1
 151 344 78 396 78 511 c 0
 78 624 157 691 267 702 c 1
 267 780 l 1
 325 780 l 1x6680
 325 703 l 1
 444 693 507 610 519 509 c 1
 427 509 l 1x57
 420 577 389 624 325 634 c 1
 325 396 l 1
 473 349 526 284 526 181 c 0x5680
170 524 m 0
 170 457 200 426 267 405 c 1
 267 634 l 1
 207 624 170 587 170 524 c 0
325 301 m 1
 325 55 l 1
 390 63 434 99 434 171 c 0
 434 229 407 274 325 301 c 1
EndSplineSet
Validated: 1
EndChar

StartChar: Euro
Encoding: 8364 8364 284
Width: 580
Flags: MW
HStem: -14 68<338 415> 260 56<40 96 40 100 30 96 197 465 197 197> 370 56<58 97 48 101 197 482> 636 68<346 420>
VStem: 96 96<341 342 342 346 346 347>
LayerCount: 2
Fore
SplineSet
465 260 m 1
 197 260 l 1
 215 114 283 54 393 54 c 0
 450 54 496 66 540 94 c 1
 540 23 l 1
 491 -5 442 -14 388 -14 c 0
 225 -14 121 54 100 260 c 1
 30 260 l 1
 40 316 l 1
 96 316 l 1
 96 342 l 2
 96 352 96 361 97 370 c 1
 48 370 l 1
 58 426 l 1
 101 426 l 1
 127 617 241 704 398 704 c 0
 470 704 526 683 561 642 c 1
 519 585 l 1
 489 619 444 636 396 636 c 0
 296 636 216 581 197 426 c 1
 493 426 l 1
 482 370 l 1
 192 370 l 1
 192 346 l 2
 192 336 192 326 193 316 c 1
 474 316 l 1
 465 260 l 1
EndSplineSet
Validated: 1
EndChar

StartChar: sterling
Encoding: 163 163 285
Width: 580
Flags: MW
HStem: 0 70<192 518 192 518> 317 56<77 123 77 150 77 123 248 248 248 441> 636 68<264 339>
VStem: 92 96<488 544.5 488 559.5> 177 91<181 222>
LayerCount: 2
Fore
SplineSet
518 70 m 1xf0
 518 0 l 1
 68 0 l 1
 68 62 l 1
 150 82 177 142 177 200 c 0
 177 244 169 275 150 317 c 1
 77 317 l 1
 77 373 l 1xe8
 123 373 l 1
 104 416 92 452 92 498 c 0
 92 621 187 704 306 704 c 0
 440 704 508 621 516 508 c 1
 424 508 l 1
 412 595 374 636 304 636 c 0
 224 636 188 574 188 515 c 0
 188 461 198 433 225 373 c 1xf0
 441 373 l 1
 441 317 l 1
 248 317 l 1
 262 281 268 248 268 215 c 0
 268 147 243 108 192 70 c 1xe8
 518 70 l 1xf0
EndSplineSet
Validated: 1
EndChar

StartChar: yen
Encoding: 165 165 286
Width: 580
Flags: MW
HStem: 0 21G<247 333 247 247> 181 56<85 247 85 247 333 495> 301 56<85 207 85 238 85 207 373 495> 670 20G<23 129 129 129 456 557 557 557>
VStem: 247 86<0 181 0 181 237 285>
LayerCount: 2
Fore
SplineSet
373 357 m 1
 495 357 l 1
 495 301 l 1
 342 301 l 1
 333 285 l 1
 333 237 l 1
 495 237 l 1
 495 181 l 1
 333 181 l 1
 333 0 l 1
 247 0 l 1
 247 181 l 1
 85 181 l 1
 85 237 l 1
 247 237 l 1
 247 285 l 1
 238 301 l 1
 85 301 l 1
 85 357 l 1
 207 357 l 1
 23 690 l 1
 129 690 l 1
 294 359 l 1
 456 690 l 1
 557 690 l 1
 373 357 l 1
EndSplineSet
Validated: 1
EndChar

StartChar: approxequal
Encoding: 8776 8776 287
Width: 580
Flags: MW
HStem: 141 61<383.5 413.5 383.5 419> 217 61<166 195.5> 301 61<383.5 413.5 383.5 419> 377 61<166 195.5>
VStem: 66 447<205 218 218 365>
LayerCount: 2
Fore
SplineSet
186 438 m 0
 226 438 251 425 303 397 c 0
 342 376 369 362 398 362 c 0
 429 362 449 377 469 411 c 1
 513 378 l 1
 480 327 446 301 392 301 c 0xa8
 353 301 328 314 276 342 c 0
 237 363 210 377 181 377 c 0
 151 377 130 362 110 328 c 1
 66 365 l 1
 99 416 133 438 186 438 c 0
186 278 m 0xe8
 226 278 251 265 303 237 c 0
 342 216 369 202 398 202 c 0
 429 202 449 217 469 251 c 1
 513 218 l 1
 480 167 446 141 392 141 c 0xa8
 353 141 328 154 276 182 c 0
 237 203 210 217 181 217 c 0
 151 217 130 202 110 168 c 1
 66 205 l 1
 99 256 133 278 186 278 c 0xe8
EndSplineSet
Validated: 1
EndChar

StartChar: asciitilde
Encoding: 126 126 288
Width: 580
Flags: MW
HStem: 223 57<383 416 383 429> 299 57<163 196>
VStem: 77 56<223 246.5 223 266> 446 56<332.5 356>
LayerCount: 2
Fore
SplineSet
446 356 m 1
 502 356 l 1
 502 270 466 223 392 223 c 0xf0
 353 223 328 236 276 264 c 0
 239 284 210 299 182 299 c 0
 144 299 133 270 133 223 c 1
 77 223 l 1
 77 309 113 356 187 356 c 0x70
 226 356 251 343 303 315 c 0
 340 295 369 280 397 280 c 0
 435 280 446 309 446 356 c 1
EndSplineSet
Validated: 1
EndChar

StartChar: divide
Encoding: 247 247 289
Width: 580
Flags: MW
HStem: 101 112<276 308> 291 56<80 500 80 500> 421 112<276 308>
VStem: 236 112<141 173 461 493>
LayerCount: 2
Fore
SplineSet
292 533 m 0
 324 533 348 509 348 477 c 0
 348 445 324 421 292 421 c 0
 260 421 236 445 236 477 c 0
 236 509 260 533 292 533 c 0
500 291 m 1
 80 291 l 1
 80 347 l 1
 500 347 l 1
 500 291 l 1
292 213 m 0
 324 213 348 189 348 157 c 0
 348 125 324 101 292 101 c 0
 260 101 236 125 236 157 c 0
 236 189 260 213 292 213 c 0
EndSplineSet
Validated: 1
EndChar

StartChar: emptyset
Encoding: 8709 8709 290
Width: 838
Flags: MW
HStem: -34 58<378.5 509.5 378.5 526.5> 686 58<328.5 459.5>
VStem: 36 62<315.5 446 315.5 462.5> 740 62<263.5 394.5>
LayerCount: 2
Fore
SplineSet
793 688 m 1
 712 607 l 1
 768 539 802 451 802 355 c 0
 802 140 634 -34 419 -34 c 0
 321 -34 233 2 166 61 c 1
 86 -19 l 1
 45 22 l 1
 126 103 l 1
 70 171 36 259 36 355 c 0
 36 570 204 744 419 744 c 0
 517 744 605 708 672 649 c 1
 752 729 l 1
 793 688 l 1
98 355 m 0
 98 276 124 203 169 146 c 1
 629 606 l 1
 573 656 500 686 419 686 c 0
 238 686 98 537 98 355 c 0
419 24 m 0
 600 24 740 172 740 355 c 0
 740 434 714 507 669 564 c 1
 209 104 l 1
 265 54 338 24 419 24 c 0
EndSplineSet
Validated: 1
EndChar

StartChar: equal
Encoding: 61 61 291
Width: 580
Flags: MW
HStem: 187 56<80 500 80 500> 387 56<80 500 80 500>
VStem: 80 420<187 243 187 243 387 443 187 443>
LayerCount: 2
Fore
SplineSet
500 387 m 1
 80 387 l 1
 80 443 l 1
 500 443 l 1
 500 387 l 1
500 187 m 1
 80 187 l 1
 80 243 l 1
 500 243 l 1
 500 187 l 1
EndSplineSet
Validated: 1
EndChar

StartChar: greater
Encoding: 62 62 292
Width: 580
Flags: MW
HStem: 30 470<68 68>
VStem: 410 59<264 264>
LayerCount: 2
Fore
SplineSet
469 299 m 1
 469 231 l 1
 68 30 l 1
 68 98 l 1
 410 264 l 1
 68 430 l 1
 68 500 l 1
 469 299 l 1
EndSplineSet
Validated: 1
EndChar

StartChar: greaterequal
Encoding: 8805 8805 293
Width: 580
Flags: MW
HStem: 0 56<70 490 70 490>
VStem: 428 62<309 309>
LayerCount: 2
Fore
SplineSet
490 342 m 1
 490 274 l 1
 70 103 l 1
 70 171 l 1
 428 309 l 1
 70 443 l 1
 70 513 l 1
 490 342 l 1
70 56 m 1
 490 56 l 1
 490 0 l 1
 70 0 l 1
 70 56 l 1
EndSplineSet
Validated: 1
EndChar

StartChar: infinity
Encoding: 8734 8734 294
Width: 986
Flags: MW
HStem: -14 66<229.5 311 229.5 325.5 675 756.5> 478 66<229.5 311 675 756.5>
VStem: 30 94<202.5 327.5 202.5 340> 862 94<202.5 327.5>
LayerCount: 2
Fore
SplineSet
713 544 m 0
 883 544 956 415 956 265 c 0
 956 115 883 -14 713 -14 c 0
 617 -14 538 38 491 147 c 1
 441 38 378 -14 273 -14 c 0
 103 -14 30 115 30 265 c 0
 30 415 103 544 273 544 c 0
 369 544 448 492 495 383 c 1
 545 492 608 544 713 544 c 0
273 52 m 0
 349 52 419 111 438 265 c 1
 409 419 349 478 273 478 c 0
 186 478 124 390 124 265 c 0
 124 140 186 52 273 52 c 0
713 52 m 0
 800 52 862 140 862 265 c 0
 862 390 800 478 713 478 c 0
 637 478 567 419 548 265 c 1
 577 111 637 52 713 52 c 0
EndSplineSet
Validated: 1
EndChar

StartChar: integral
Encoding: 8747 8747 295
Width: 580
Flags: MW
HStem: -160 56<225 258.5 225 278> 698 56<320.5 354>
VStem: 205 62<545.5 614.5 545.5 628.5> 312 62<-20.5 48.5>
LayerCount: 2
Fore
SplineSet
339 754 m 0
 370 754 391 750 417 732 c 1
 402 678 l 1
 381 694 366 698 342 698 c 0
 299 698 267 655 267 574 c 0
 267 517 273 470 319 304 c 0
 359 160 374 89 374 25 c 0
 374 -94 316 -160 240 -160 c 0
 209 -160 188 -156 162 -138 c 1
 177 -84 l 1
 198 -100 213 -104 237 -104 c 0
 280 -104 312 -61 312 20 c 0
 312 77 306 124 260 290 c 0
 220 434 205 505 205 569 c 0
 205 688 263 754 339 754 c 0
EndSplineSet
Validated: 1
EndChar

StartChar: less
Encoding: 60 60 296
Width: 580
Flags: MW
HStem: 30 470<504 504>
VStem: 103 59<266 266 266 299 266 299>
LayerCount: 2
Fore
SplineSet
504 432 m 1
 162 266 l 1
 504 100 l 1
 504 30 l 1
 103 231 l 1
 103 299 l 1
 504 500 l 1
 504 432 l 1
EndSplineSet
Validated: 1
EndChar

StartChar: lessequal
Encoding: 8804 8804 297
Width: 580
Flags: MW
HStem: 0 56<90 510 90 510>
VStem: 90 62<307 307 307 342 307 342>
LayerCount: 2
Fore
SplineSet
510 445 m 1
 152 307 l 1
 510 173 l 1
 510 103 l 1
 90 274 l 1
 90 342 l 1
 510 513 l 1
 510 445 l 1
90 56 m 1
 510 56 l 1
 510 0 l 1
 90 0 l 1
 90 56 l 1
EndSplineSet
Validated: 1
EndChar

StartChar: logicalnot
Encoding: 172 172 298
Width: 580
Flags: MW
HStem: 328 56<100 411 100 469>
VStem: 411 58<210 328 328 328>
LayerCount: 2
Fore
SplineSet
469 210 m 1
 411 210 l 1
 411 328 l 1
 100 328 l 1
 100 384 l 1
 469 384 l 1
 469 210 l 1
EndSplineSet
Validated: 1
EndChar

StartChar: minus
Encoding: 8722 8722 299
Width: 580
Flags: MW
HStem: 291 56<80 500 80 500>
VStem: 80 420<291 347 291 347>
LayerCount: 2
Fore
SplineSet
500 291 m 1
 80 291 l 1
 80 347 l 1
 500 347 l 1
 500 291 l 1
EndSplineSet
Validated: 1
EndChar

StartChar: multiply
Encoding: 215 215 300
Width: 580
Flags: MW
HStem: 135 358<152 152 152 428>
VStem: 111 358<176 176 176 452>
LayerCount: 2
Fore
SplineSet
331 314 m 1
 469 176 l 1
 428 135 l 1
 290 273 l 1
 152 135 l 1
 111 176 l 1
 249 314 l 1
 111 452 l 1
 152 493 l 1
 290 355 l 1
 428 493 l 1
 469 452 l 1
 331 314 l 1
EndSplineSet
Validated: 1
EndChar

